# Blender 4.4.1
# www.blender.org
mtllib skydome.mtl
o 球
v 0.000000 415.734802 -277.785126
v 0.000000 277.785126 -415.734802
v 0.000000 97.545158 -490.392639
v 0.000000 0.000000 -500.000000
v 0.000000 -97.545158 -490.392639
v 0.000000 -277.785126 -415.734802
v 19.030117 490.392639 -95.670860
v 37.328922 461.939758 -187.665146
v 54.193192 415.734802 -272.447571
v 68.974846 353.553375 -346.759949
v 81.105835 277.785126 -407.746552
v 90.119972 191.341721 -453.063690
v 95.670860 97.545158 -480.969849
v 97.545158 0.000000 -490.392639
v 95.670860 -97.545158 -480.969849
v 90.119972 -191.341721 -453.063690
v 81.105835 -277.785126 -407.746552
v 68.974846 -353.553375 -346.759949
v 54.193192 -415.734802 -272.447571
v 37.328922 -461.939758 -187.665146
v 19.030117 -490.392639 -95.670860
v 37.328915 490.392639 -90.119972
v 73.223305 461.939758 -176.776703
v 106.303764 415.734802 -256.639954
v 135.299026 353.553375 -326.640717
v 159.094818 277.785126 -384.088806
v 176.776672 191.341721 -426.776672
v 187.665131 97.545158 -453.063690
v 191.341721 0.000000 -461.939728
v 187.665131 -97.545158 -453.063690
v 176.776672 -191.341721 -426.776672
v 159.094818 -277.785126 -384.088806
v 135.299026 -353.553375 -326.640717
v 106.303764 -415.734802 -256.639954
v 73.223305 -461.939758 -176.776703
v 37.328915 -490.392639 -90.119972
v 54.193184 490.392639 -81.105827
v 106.303764 461.939758 -159.094818
v 154.329132 415.734802 -230.969849
v 196.423737 353.553375 -293.968872
v 230.969849 277.785126 -345.670776
v 256.639954 191.341721 -384.088837
v 272.447571 97.545158 -407.746552
v 277.785126 0.000000 -415.734741
v 272.447571 -97.545158 -407.746552
v 256.639954 -191.341721 -384.088837
v 230.969849 -277.785126 -345.670776
v 196.423737 -353.553375 -293.968872
v 154.329132 -415.734802 -230.969849
v 106.303764 -461.939758 -159.094818
v 54.193184 -490.392639 -81.105827
v 68.974838 490.392639 -68.974831
v 135.299026 461.939758 -135.299011
v 196.423721 415.734802 -196.423691
v 250.000000 353.553375 -250.000000
v 293.968842 277.785126 -293.968842
v 326.640686 191.341721 -326.640717
v 346.759949 97.545158 -346.759918
v 353.553375 0.000000 -353.553284
v 346.759949 -97.545158 -346.759918
v 326.640686 -191.341721 -326.640717
v 293.968842 -277.785126 -293.968842
v 250.000000 -353.553375 -250.000000
v 196.423721 -415.734802 -196.423691
v 135.299026 -461.939758 -135.299011
v 68.974838 -490.392639 -68.974831
v 81.105827 490.392639 -54.193176
v 159.094818 461.939758 -106.303749
v 230.969864 415.734802 -154.329102
v 293.968872 353.553375 -196.423737
v 345.670807 277.785126 -230.969818
v 384.088806 191.341721 -256.639984
v 407.746552 97.545158 -272.447510
v 415.734772 0.000000 -277.785004
v 407.746552 -97.545158 -272.447510
v 384.088806 -191.341721 -256.639984
v 345.670807 -277.785126 -230.969818
v 293.968872 -353.553375 -196.423737
v 230.969864 -415.734802 -154.329102
v 159.094818 -461.939758 -106.303749
v 81.105827 -490.392639 -54.193176
v 0.000000 500.000000 0.000000
v 90.119957 490.392639 -37.328907
v 176.776672 461.939758 -73.223289
v 256.639954 415.734802 -106.303726
v 326.640717 353.553375 -135.299026
v 384.088806 277.785126 -159.094757
v 426.776642 191.341721 -176.776703
v 453.063660 97.545158 -187.665070
v 461.939697 0.000000 -191.341614
v 453.063660 -97.545158 -187.665070
v 426.776642 -191.341721 -176.776703
v 384.088806 -277.785126 -159.094757
v 326.640717 -353.553375 -135.299026
v 256.639954 -415.734802 -106.303726
v 176.776672 -461.939758 -73.223289
v 90.119957 -490.392639 -37.328907
v 95.670837 490.392639 -19.030107
v 187.665115 461.939758 -37.328907
v 272.447540 415.734802 -54.193157
v 346.759949 353.553375 -68.974854
v 407.746490 277.785126 -81.105782
v 453.063660 191.341721 -90.119995
v 480.969818 97.545158 -95.670807
v 490.392548 0.000000 -97.545067
v 480.969818 -97.545158 -95.670807
v 453.063660 -191.341721 -90.119995
v 407.746490 -277.785126 -81.105782
v 346.759949 -353.553375 -68.974854
v 272.447540 -415.734802 -54.193157
v 187.665115 -461.939758 -37.328907
v 95.670837 -490.392639 -19.030107
v 97.545135 490.392639 0.000006
v 191.341705 461.939758 0.000011
v 277.785065 415.734802 0.000026
v 353.553345 353.553375 -0.000007
v 415.734711 277.785126 0.000045
v 461.939728 191.341721 -0.000022
v 490.392578 97.545158 0.000045
v 499.999847 0.000000 0.000082
v 490.392578 -97.545158 0.000045
v 461.939728 -191.341721 -0.000022
v 415.734711 -277.785126 0.000045
v 353.553345 -353.553375 -0.000007
v 277.785065 -415.734802 0.000026
v 191.341705 -461.939758 0.000011
v 97.545135 -490.392639 0.000006
v 95.670830 490.392639 19.030117
v 187.665115 461.939758 37.328926
v 272.447510 415.734802 54.193203
v 346.759918 353.553375 68.974831
v 407.746460 277.785126 81.105865
v 453.063660 191.341721 90.119949
v 480.969788 97.545158 95.670883
v 490.392456 0.000000 97.545212
v 480.969788 -97.545158 95.670883
v 453.063660 -191.341721 90.119949
v 407.746460 -277.785126 81.105865
v 346.759918 -353.553375 68.974831
v 272.447510 -415.734802 54.193203
v 187.665115 -461.939758 37.328926
v 95.670830 -490.392639 19.030117
v 90.119942 490.392639 37.328911
v 176.776672 461.939758 73.223305
v 256.639893 415.734802 106.303764
v 326.640686 353.553375 135.298996
v 384.088745 277.785126 159.094818
v 426.776642 191.341721 176.776642
v 453.063599 97.545158 187.665146
v 461.939545 0.000000 191.341721
v 453.063599 -97.545158 187.665146
v 426.776642 -191.341721 176.776642
v 384.088745 -277.785126 159.094818
v 326.640686 -353.553375 135.298996
v 256.639893 -415.734802 106.303764
v 176.776672 -461.939758 73.223305
v 90.119942 -490.392639 37.328911
v 81.105797 490.392639 54.193169
v 159.094803 461.939758 106.303757
v 230.969788 415.734802 154.329117
v 293.968842 353.553375 196.423706
v 345.670715 277.785126 230.969849
v 384.088806 191.341721 256.639923
v 407.746460 97.545158 272.447540
v 415.734558 0.000000 277.785095
v 407.746460 -97.545158 272.447540
v 384.088806 -191.341721 256.639923
v 345.670715 -277.785126 230.969849
v 293.968842 -353.553375 196.423706
v 230.969788 -415.734802 154.329117
v 159.094803 -461.939758 106.303757
v 81.105797 -490.392639 54.193169
v 68.974808 490.392639 68.974815
v 135.298981 461.939758 135.299011
v 196.423630 415.734802 196.423706
v 249.999969 353.553375 249.999969
v 293.968781 277.785126 293.968842
v 326.640686 191.341721 326.640656
v 346.759857 97.545158 346.759918
v 353.553131 0.000000 353.553314
v 346.759857 -97.545158 346.759918
v 326.640686 -191.341721 326.640656
v 293.968781 -277.785126 293.968842
v 249.999969 -353.553375 249.999969
v 196.423630 -415.734802 196.423706
v 135.298981 -461.939758 135.299011
v 68.974808 -490.392639 68.974815
v 54.193157 490.392639 81.105797
v 106.303719 461.939758 159.094818
v 154.329041 415.734802 230.969833
v 196.423706 353.553375 293.968842
v 230.969772 277.785126 345.670746
v 256.639954 191.341721 384.088776
v 272.447449 97.545158 407.746490
v 277.784851 0.000000 415.734680
v 272.447449 -97.545158 407.746490
v 256.639954 -191.341721 384.088776
v 230.969772 -277.785126 345.670746
v 196.423706 -353.553375 293.968842
v 154.329041 -415.734802 230.969833
v 106.303719 -461.939758 159.094818
v 54.193157 -490.392639 81.105797
v 37.328892 490.392639 90.119926
v 73.223267 461.939758 176.776657
v 106.303680 415.734802 256.639893
v 135.298996 353.553375 326.640686
v 159.094727 277.785126 384.088745
v 176.776672 191.341721 426.776581
v 187.665009 97.545158 453.063599
v 191.341476 0.000000 461.939575
v 187.665009 -97.545158 453.063599
v 176.776672 -191.341721 426.776581
v 159.094727 -277.785126 384.088745
v 135.298996 -353.553375 326.640686
v 106.303680 -415.734802 256.639893
v 73.223267 -461.939758 176.776657
v 37.328892 -490.392639 90.119926
v 19.030102 490.392639 95.670799
v 37.328880 461.939758 187.665085
v 54.193115 415.734802 272.447449
v 68.974831 353.553375 346.759918
v 81.105759 277.785126 407.746429
v 90.119972 191.341721 453.063599
v 95.670761 97.545158 480.969727
v 97.544952 0.000000 490.392395
v 95.670761 -97.545158 480.969727
v 90.119972 -191.341721 453.063599
v 81.105759 -277.785126 407.746429
v 68.974831 -353.553375 346.759918
v 54.193115 -415.734802 272.447449
v 37.328880 -461.939758 187.665085
v 19.030102 -490.392639 95.670799
v -0.000004 490.392639 97.545097
v -0.000026 461.939758 191.341675
v -0.000048 415.734802 277.784973
v -0.000007 353.553375 353.553314
v -0.000052 277.785126 415.734650
v 0.000015 191.341721 461.939636
v -0.000067 97.545158 490.392487
v -0.000164 0.000000 499.999664
v -0.000067 -97.545158 490.392487
v 0.000015 -191.341721 461.939636
v -0.000052 -277.785126 415.734650
v -0.000007 -353.553375 353.553314
v -0.000048 -415.734802 277.784973
v -0.000026 -461.939758 191.341675
v -0.000004 -490.392639 97.545097
v -19.030107 490.392639 95.670792
v -37.328934 461.939758 187.665085
v -54.193211 415.734802 272.447418
v -68.974838 353.553375 346.759888
v -81.105858 277.785126 407.746399
v -90.119934 191.341721 453.063568
v -95.670891 97.545158 480.969696
v -97.545258 0.000000 490.392273
v -95.670891 -97.545158 480.969696
v -90.119934 -191.341721 453.063568
v -81.105858 -277.785126 407.746399
v -68.974838 -353.553375 346.759888
v -54.193211 -415.734802 272.447418
v -37.328934 -461.939758 187.665085
v -19.030107 -490.392639 95.670792
v -37.328892 490.392639 90.119911
v -73.223305 461.939758 176.776642
v -106.303749 415.734802 256.639801
v -135.298996 353.553375 326.640656
v -159.094818 277.785126 384.088684
v -176.776611 191.341721 426.776550
v -187.665131 97.545158 453.063507
v -191.341736 0.000000 461.939362
v -187.665131 -97.545158 453.063507
v -176.776611 -191.341721 426.776550
v -159.094818 -277.785126 384.088684
v -135.298996 -353.553375 326.640656
v -106.303749 -415.734802 256.639801
v -73.223305 -461.939758 176.776642
v -37.328892 -490.392639 90.119911
v -54.193150 490.392639 81.105774
v -106.303749 461.939758 159.094772
v -154.329086 415.734802 230.969696
v -196.423706 353.553375 293.968842
v -230.969818 277.785126 345.670685
v -256.639862 191.341721 384.088745
v -272.447540 97.545158 407.746368
v -277.785065 0.000000 415.734375
v -272.447540 -97.545158 407.746368
v -256.639862 -191.341721 384.088745
v -230.969818 -277.785126 345.670685
v -196.423706 -353.553375 293.968842
v -154.329086 -415.734802 230.969696
v -106.303749 -461.939758 159.094772
v -54.193150 -490.392639 81.105774
v -68.974792 490.392639 68.974785
v -135.298996 461.939758 135.298965
v -196.423645 415.734802 196.423553
v -249.999954 353.553375 249.999939
v -293.968811 277.785126 293.968719
v -326.640594 191.341721 326.640625
v -346.759888 97.545158 346.759766
v -353.553223 0.000000 353.552979
v -346.759888 -97.545158 346.759766
v -326.640594 -191.341721 326.640625
v -293.968811 -277.785126 293.968719
v -249.999954 -353.553375 249.999939
v -196.423645 -415.734802 196.423553
v -135.298996 -461.939758 135.298965
v -68.974792 -490.392639 68.974785
v 0.000000 -500.000000 0.000000
v -81.105774 490.392639 54.193138
v -159.094788 461.939758 106.303703
v -230.969757 415.734802 154.328979
v -293.968842 353.553375 196.423676
v -345.670715 277.785126 230.969711
v -384.088715 191.341721 256.639893
v -407.746460 97.545158 272.447357
v -415.734558 0.000000 277.784698
v -407.746460 -97.545158 272.447357
v -384.088715 -191.341721 256.639893
v -345.670715 -277.785126 230.969711
v -293.968842 -353.553375 196.423676
v -230.969757 -415.734802 154.328979
v -159.094788 -461.939758 106.303703
v -81.105774 -490.392639 54.193138
v -90.119904 490.392639 37.328876
v -176.776627 461.939758 73.223259
v -256.639801 415.734802 106.303619
v -326.640656 353.553375 135.298981
v -384.088684 277.785126 159.094666
v -426.776520 191.341721 176.776627
v -453.063568 97.545158 187.664948
v -461.939423 0.000000 191.341339
v -453.063568 -97.545158 187.664948
v -426.776520 -191.341721 176.776627
v -384.088684 -277.785126 159.094666
v -326.640656 -353.553375 135.298981
v -256.639801 -415.734802 106.303619
v -176.776627 -461.939758 73.223259
v -90.119904 -490.392639 37.328876
v -95.670776 490.392639 19.030090
v -187.665054 461.939758 37.328876
v -272.447357 415.734802 54.193077
v -346.759888 353.553375 68.974815
v -407.746368 277.785126 81.105713
v -453.063538 191.341721 90.119942
v -480.969696 97.545158 95.670692
v -490.392212 0.000000 97.544846
v -480.969696 -97.545158 95.670692
v -453.063538 -191.341721 90.119942
v -407.746368 -277.785126 81.105713
v -346.759888 -353.553375 68.974815
v -272.447357 -415.734802 54.193077
v -187.665054 -461.939758 37.328876
v -95.670776 -490.392639 19.030090
v -97.545074 490.392639 -0.000009
v -191.341629 461.939758 -0.000026
v -277.784882 415.734802 -0.000075
v -353.553284 353.553375 -0.000015
v -415.734589 277.785126 -0.000082
v -461.939575 191.341721 -0.000007
v -490.392426 97.545158 -0.000134
v -499.999512 0.000000 -0.000224
v -490.392426 -97.545158 -0.000134
v -461.939575 -191.341721 -0.000007
v -415.734589 -277.785126 -0.000082
v -353.553284 -353.553375 -0.000015
v -277.784882 -415.734802 -0.000075
v -191.341629 -461.939758 -0.000026
v -97.545074 -490.392639 -0.000009
v -95.670769 490.392639 -19.030109
v -187.665039 461.939758 -37.328926
v -272.447327 415.734802 -54.193218
v -346.759857 353.553375 -68.974846
v -407.746307 277.785126 -81.105881
v -453.063507 191.341721 -90.119949
v -480.969604 97.545158 -95.670944
v -490.392120 0.000000 -97.545288
v -480.969604 -97.545158 -95.670944
v -453.063507 -191.341721 -90.119949
v -407.746307 -277.785126 -81.105881
v -346.759857 -353.553375 -68.974846
v -272.447327 -415.734802 -54.193218
v -187.665039 -461.939758 -37.328926
v -95.670769 -490.392639 -19.030109
v -90.119888 490.392639 -37.328892
v -176.776596 461.939758 -73.223289
v -256.639709 415.734802 -106.303741
v -326.640625 353.553375 -135.298996
v -384.088593 277.785126 -159.094818
v -426.776489 191.341721 -176.776611
v -453.063416 97.545158 -187.665161
v -461.939209 0.000000 -191.341736
v -453.063416 -97.545158 -187.665161
v -426.776489 -191.341721 -176.776611
v -384.088593 -277.785126 -159.094818
v -326.640625 -353.553375 -135.298996
v -256.639709 -415.734802 -106.303741
v -176.776596 -461.939758 -73.223289
v -90.119888 -490.392639 -37.328892
v -81.105751 490.392639 -54.193146
v -159.094727 461.939758 -106.303726
v -230.969604 415.734802 -154.329071
v -293.968811 353.553375 -196.423691
v -345.670593 277.785126 -230.969818
v -384.088684 191.341721 -256.639862
v -407.746277 97.545158 -272.447540
v -415.734222 0.000000 -277.785034
v -407.746277 -97.545158 -272.447540
v -384.088684 -191.341721 -256.639862
v -345.670593 -277.785126 -230.969818
v -293.968811 -353.553375 -196.423691
v -230.969604 -415.734802 -154.329071
v -159.094727 -461.939758 -106.303726
v -81.105751 -490.392639 -54.193146
v -68.974770 490.392639 -68.974785
v -135.298935 461.939758 -135.298965
v -196.423477 415.734802 -196.423615
v -249.999908 353.553375 -249.999939
v -293.968628 277.785126 -293.968781
v -326.640564 191.341721 -326.640564
v -346.759674 97.545158 -346.759857
v -353.552856 0.000000 -353.553162
v -346.759674 -97.545158 -346.759857
v -326.640564 -191.341721 -326.640564
v -293.968628 -277.785126 -293.968781
v -249.999908 -353.553375 -249.999939
v -196.423477 -415.734802 -196.423615
v -135.298935 -461.939758 -135.298965
v -68.974770 -490.392639 -68.974785
v -54.193123 490.392639 -81.105759
v -106.303688 461.939758 -159.094757
v -154.328903 415.734802 -230.969711
v -196.423645 353.553375 -293.968842
v -230.969635 277.785126 -345.670685
v -256.639832 191.341721 -384.088684
v -272.447296 97.545158 -407.746399
v -277.784607 0.000000 -415.734467
v -272.447296 -97.545158 -407.746399
v -256.639832 -191.341721 -384.088684
v -230.969635 -277.785126 -345.670685
v -196.423645 -353.553375 -293.968842
v -154.328903 -415.734802 -230.969711
v -106.303688 -461.939758 -159.094757
v -54.193123 -490.392639 -81.105759
v -37.328869 490.392639 -90.119881
v -73.223244 461.939758 -176.776611
v -106.303551 415.734802 -256.639740
v -135.298950 353.553375 -326.640656
v -159.094604 277.785126 -384.088623
v -176.776581 191.341721 -426.776489
v -187.664902 97.545158 -453.063477
v -191.341278 0.000000 -461.939301
v -187.664902 -97.545158 -453.063477
v -176.776581 -191.341721 -426.776489
v -159.094604 -277.785126 -384.088623
v -135.298950 -353.553375 -326.640656
v -106.303551 -415.734802 -256.639740
v -73.223244 -461.939758 -176.776611
v -37.328869 -490.392639 -90.119881
v -19.030088 490.392639 -95.670753
v -37.328865 461.939758 -187.665039
v -54.193020 415.734802 -272.447266
v -68.974785 353.553375 -346.759888
v -81.105667 277.785126 -407.746277
v -90.119904 191.341721 -453.063477
v -95.670662 97.545158 -480.969604
v -97.544815 0.000000 -490.392090
v -95.670662 -97.545158 -480.969604
v -90.119904 -191.341721 -453.063477
v -81.105667 -277.785126 -407.746277
v -68.974785 -353.553375 -346.759888
v -54.193020 -415.734802 -272.447266
v -37.328865 -461.939758 -187.665039
v -19.030088 -490.392639 -95.670753
v 0.000007 490.392639 -97.545052
v 0.000034 461.939758 -191.341614
v 0.000045 353.553375 -353.553284
v 0.000030 191.341721 -461.939514
v 0.000030 -191.341721 -461.939514
v 0.000045 -353.553375 -353.553284
v 0.000108 -415.734802 -277.784760
v 0.000034 -461.939758 -191.341614
v 0.000007 -490.392639 -97.545052
vn -0.0759 0.6326 0.7708
vn -0.0759 -0.6326 0.7708
vn -0.0624 0.7715 0.6332
vn -0.0865 -0.4696 0.8786
vn -0.0464 0.8810 0.4709
vn -0.0938 -0.2890 0.9527
vn -0.0286 0.9565 0.2902
vn -0.0975 -0.0975 0.9904
vn -0.0097 -0.9951 0.0980
vn -0.0097 0.9951 0.0980
vn -0.0975 0.0976 0.9904
vn -0.0286 -0.9565 0.2902
vn -0.0938 0.2890 0.9527
vn -0.0464 -0.8810 0.4709
vn -0.0865 0.4696 0.8786
vn -0.0624 -0.7715 0.6332
vn -0.1374 -0.8810 0.4528
vn -0.2563 0.4696 0.8448
vn -0.1847 -0.7715 0.6088
vn -0.2248 0.6326 0.7412
vn -0.2248 -0.6326 0.7412
vn -0.1847 0.7715 0.6088
vn -0.2563 -0.4696 0.8448
vn -0.1374 0.8810 0.4528
vn -0.2779 -0.2890 0.9161
vn -0.0846 0.9565 0.2790
vn -0.2889 -0.0976 0.9524
vn -0.0286 -0.9951 0.0942
vn -0.0286 0.9951 0.0942
vn -0.2889 0.0975 0.9524
vn -0.0846 -0.9565 0.2790
vn -0.2779 0.2890 0.9161
vn -0.4513 -0.2890 0.8443
vn -0.1374 0.9565 0.2571
vn -0.4691 -0.0975 0.8777
vn -0.0464 -0.9951 0.0869
vn -0.0464 0.9951 0.0869
vn -0.4691 0.0975 0.8777
vn -0.1374 -0.9565 0.2571
vn -0.4513 0.2890 0.8443
vn -0.2231 -0.8810 0.4173
vn -0.4162 0.4696 0.7786
vn -0.2999 -0.7715 0.5611
vn -0.3651 0.6326 0.6831
vn -0.3651 -0.6326 0.6831
vn -0.2999 0.7715 0.5611
vn -0.4162 -0.4696 0.7786
vn -0.2231 0.8810 0.4173
vn -0.5601 0.4696 0.6825
vn -0.4036 -0.7715 0.4918
vn -0.4913 0.6326 0.5987
vn -0.4913 -0.6326 0.5987
vn -0.4036 0.7715 0.4918
vn -0.5601 -0.4696 0.6825
vn -0.3002 0.8810 0.3658
vn -0.6073 -0.2890 0.7400
vn -0.1850 0.9565 0.2254
vn -0.6314 -0.0975 0.7693
vn -0.0625 -0.9951 0.0761
vn -0.0625 0.9951 0.0761
vn -0.6314 0.0975 0.7693
vn -0.1850 -0.9565 0.2254
vn -0.6073 0.2890 0.7400
vn -0.3002 -0.8810 0.3658
vn -0.2254 0.9565 0.1850
vn -0.7693 -0.0975 0.6314
vn -0.0761 -0.9951 0.0625
vn -0.0761 0.9951 0.0625
vn -0.7693 0.0975 0.6314
vn -0.2254 -0.9565 0.1850
vn -0.7400 0.2890 0.6073
vn -0.3658 -0.8810 0.3002
vn -0.6825 0.4696 0.5601
vn -0.4918 -0.7715 0.4036
vn -0.5987 0.6326 0.4913
vn -0.5987 -0.6326 0.4913
vn -0.4918 0.7715 0.4036
vn -0.6825 -0.4696 0.5601
vn -0.3658 0.8810 0.3002
vn -0.7400 -0.2890 0.6073
vn -0.6831 0.6326 0.3651
vn -0.6831 -0.6326 0.3651
vn -0.5611 0.7715 0.2999
vn -0.7786 -0.4696 0.4162
vn -0.4173 0.8810 0.2230
vn -0.8443 -0.2890 0.4513
vn -0.2571 0.9565 0.1374
vn -0.8777 -0.0975 0.4691
vn -0.0869 -0.9951 0.0464
vn -0.0869 0.9951 0.0464
vn -0.8777 0.0975 0.4691
vn -0.2571 -0.9565 0.1374
vn -0.8443 0.2890 0.4513
vn -0.4173 -0.8810 0.2230
vn -0.7786 0.4696 0.4162
vn -0.5611 -0.7715 0.2999
vn -0.0942 -0.9951 0.0286
vn -0.0942 0.9951 0.0286
vn -0.9524 0.0975 0.2889
vn -0.2790 -0.9565 0.0846
vn -0.9161 0.2890 0.2779
vn -0.4528 -0.8810 0.1374
vn -0.8448 0.4696 0.2563
vn -0.6088 -0.7715 0.1847
vn -0.7412 0.6326 0.2248
vn -0.7412 -0.6326 0.2248
vn -0.6088 0.7715 0.1847
vn -0.8448 -0.4696 0.2563
vn -0.4528 0.8810 0.1374
vn -0.9161 -0.2890 0.2779
vn -0.2790 0.9565 0.0846
vn -0.9524 -0.0975 0.2889
vn -0.7708 -0.6326 0.0759
vn -0.6332 0.7715 0.0624
vn -0.8786 -0.4696 0.0865
vn -0.4709 0.8810 0.0464
vn -0.9527 -0.2890 0.0938
vn -0.2902 0.9565 0.0286
vn -0.9904 -0.0975 0.0975
vn -0.0980 -0.9951 0.0097
vn -0.0980 0.9951 0.0097
vn -0.9904 0.0975 0.0975
vn -0.2902 -0.9565 0.0286
vn -0.9527 0.2890 0.0938
vn -0.4709 -0.8810 0.0464
vn -0.8786 0.4696 0.0865
vn -0.6332 -0.7715 0.0624
vn -0.7708 0.6326 0.0759
vn -0.9904 0.0975 -0.0976
vn -0.2902 -0.9565 -0.0286
vn -0.9527 0.2890 -0.0938
vn -0.4709 -0.8810 -0.0464
vn -0.8786 0.4696 -0.0865
vn -0.6332 -0.7715 -0.0624
vn -0.7708 0.6326 -0.0759
vn -0.7708 -0.6326 -0.0759
vn -0.6332 0.7715 -0.0624
vn -0.8786 -0.4696 -0.0865
vn -0.4709 0.8810 -0.0464
vn -0.9527 -0.2890 -0.0938
vn -0.2902 0.9565 -0.0286
vn -0.9904 -0.0975 -0.0976
vn -0.0980 -0.9951 -0.0097
vn -0.0980 0.9951 -0.0097
vn -0.6088 0.7715 -0.1847
vn -0.8448 -0.4696 -0.2563
vn -0.4528 0.8810 -0.1374
vn -0.9161 -0.2890 -0.2779
vn -0.2790 0.9565 -0.0846
vn -0.9524 -0.0975 -0.2889
vn -0.0942 -0.9951 -0.0286
vn -0.0942 0.9951 -0.0286
vn -0.9524 0.0975 -0.2889
vn -0.2790 -0.9565 -0.0846
vn -0.9161 0.2890 -0.2779
vn -0.4528 -0.8810 -0.1374
vn -0.8448 0.4696 -0.2563
vn -0.6088 -0.7715 -0.1847
vn -0.7412 0.6326 -0.2248
vn -0.7412 -0.6326 -0.2248
vn -0.2571 -0.9565 -0.1374
vn -0.8443 0.2890 -0.4513
vn -0.4173 -0.8810 -0.2231
vn -0.7786 0.4696 -0.4162
vn -0.5611 -0.7715 -0.2999
vn -0.6831 0.6326 -0.3651
vn -0.6831 -0.6326 -0.3651
vn -0.5611 0.7715 -0.2999
vn -0.7786 -0.4696 -0.4162
vn -0.4173 0.8810 -0.2231
vn -0.8443 -0.2890 -0.4513
vn -0.2571 0.9565 -0.1374
vn -0.8777 -0.0975 -0.4691
vn -0.0869 -0.9951 -0.0464
vn -0.0869 0.9951 -0.0464
vn -0.8777 0.0975 -0.4691
vn -0.6825 -0.4696 -0.5601
vn -0.3658 0.8810 -0.3002
vn -0.7400 -0.2890 -0.6073
vn -0.2254 0.9565 -0.1850
vn -0.7693 -0.0975 -0.6314
vn -0.0761 -0.9951 -0.0625
vn -0.0761 0.9951 -0.0625
vn -0.7693 0.0975 -0.6314
vn -0.2254 -0.9565 -0.1850
vn -0.7400 0.2890 -0.6073
vn -0.3658 -0.8810 -0.3002
vn -0.6825 0.4696 -0.5601
vn -0.4918 -0.7715 -0.4036
vn -0.5987 0.6326 -0.4913
vn -0.5987 -0.6326 -0.4913
vn -0.4918 0.7715 -0.4036
vn -0.6073 0.2890 -0.7400
vn -0.3002 -0.8810 -0.3658
vn -0.5601 0.4696 -0.6825
vn -0.4036 -0.7715 -0.4918
vn -0.4913 0.6326 -0.5987
vn -0.4913 -0.6326 -0.5987
vn -0.4036 0.7715 -0.4918
vn -0.5601 -0.4696 -0.6825
vn -0.3002 0.8810 -0.3658
vn -0.6073 -0.2890 -0.7400
vn -0.1850 0.9565 -0.2254
vn -0.6314 -0.0975 -0.7693
vn -0.0625 -0.9951 -0.0761
vn -0.0625 0.9951 -0.0761
vn -0.6314 0.0975 -0.7693
vn -0.1850 -0.9565 -0.2254
vn -0.2230 0.8810 -0.4173
vn -0.4513 -0.2890 -0.8443
vn -0.1374 0.9565 -0.2571
vn -0.4691 -0.0975 -0.8777
vn -0.0464 -0.9951 -0.0869
vn -0.0464 0.9951 -0.0869
vn -0.4691 0.0975 -0.8777
vn -0.1374 -0.9565 -0.2571
vn -0.4513 0.2890 -0.8443
vn -0.2230 -0.8810 -0.4173
vn -0.4162 0.4696 -0.7786
vn -0.2999 -0.7715 -0.5611
vn -0.3651 0.6326 -0.6831
vn -0.3651 -0.6326 -0.6831
vn -0.2999 0.7715 -0.5611
vn -0.4162 -0.4696 -0.7786
vn -0.2563 0.4696 -0.8448
vn -0.1847 -0.7715 -0.6088
vn -0.2248 0.6326 -0.7412
vn -0.2248 -0.6326 -0.7412
vn -0.1847 0.7715 -0.6088
vn -0.2563 -0.4696 -0.8448
vn -0.1374 0.8810 -0.4528
vn -0.2779 -0.2890 -0.9161
vn -0.0846 0.9565 -0.2790
vn -0.2889 -0.0975 -0.9524
vn -0.0286 -0.9951 -0.0942
vn -0.0286 0.9951 -0.0942
vn -0.2889 0.0975 -0.9524
vn -0.0846 -0.9565 -0.2790
vn -0.2779 0.2890 -0.9161
vn -0.1374 -0.8810 -0.4528
vn -0.0286 0.9565 -0.2902
vn -0.0975 -0.0975 -0.9904
vn -0.0097 -0.9951 -0.0980
vn -0.0097 0.9951 -0.0980
vn -0.0975 0.0975 -0.9904
vn -0.0286 -0.9565 -0.2902
vn -0.0938 0.2890 -0.9527
vn -0.0464 -0.8810 -0.4709
vn -0.0865 0.4696 -0.8786
vn -0.0624 -0.7715 -0.6332
vn -0.0759 0.6326 -0.7708
vn -0.0759 -0.6326 -0.7708
vn -0.0624 0.7715 -0.6332
vn -0.0865 -0.4696 -0.8786
vn -0.0464 0.8810 -0.4709
vn -0.0938 -0.2890 -0.9527
vn 0.0624 -0.7715 -0.6332
vn 0.0759 0.6326 -0.7708
vn 0.0759 -0.6326 -0.7708
vn 0.0624 0.7715 -0.6332
vn 0.0865 -0.4696 -0.8786
vn 0.0464 0.8810 -0.4709
vn 0.0938 -0.2890 -0.9527
vn 0.0286 0.9565 -0.2902
vn 0.0975 -0.0975 -0.9904
vn 0.0097 -0.9951 -0.0980
vn 0.0097 0.9951 -0.0980
vn 0.0975 0.0975 -0.9904
vn 0.0286 -0.9565 -0.2902
vn 0.0938 0.2890 -0.9527
vn 0.0464 -0.8810 -0.4709
vn 0.0865 0.4696 -0.8786
vn 0.2889 -0.0975 -0.9524
vn 0.0286 -0.9951 -0.0942
vn 0.0286 0.9951 -0.0942
vn 0.2889 0.0975 -0.9524
vn 0.0846 -0.9565 -0.2790
vn 0.2779 0.2890 -0.9161
vn 0.1374 -0.8810 -0.4528
vn 0.2563 0.4696 -0.8448
vn 0.1847 -0.7715 -0.6088
vn 0.2248 0.6326 -0.7412
vn 0.2248 -0.6326 -0.7412
vn 0.1847 0.7715 -0.6088
vn 0.2563 -0.4696 -0.8448
vn 0.1374 0.8810 -0.4528
vn 0.2779 -0.2890 -0.9161
vn 0.0846 0.9565 -0.2790
vn 0.3651 0.6326 -0.6831
vn 0.3651 -0.6326 -0.6831
vn 0.2999 0.7715 -0.5611
vn 0.4162 -0.4696 -0.7786
vn 0.2230 0.8810 -0.4173
vn 0.4513 -0.2890 -0.8443
vn 0.1374 0.9565 -0.2571
vn 0.4691 -0.0975 -0.8777
vn 0.0464 -0.9951 -0.0869
vn 0.0464 0.9951 -0.0869
vn 0.4691 0.0975 -0.8777
vn 0.1374 -0.9565 -0.2571
vn 0.4513 0.2890 -0.8443
vn 0.2230 -0.8810 -0.4173
vn 0.4162 0.4696 -0.7786
vn 0.2999 -0.7715 -0.5611
vn 0.0625 -0.9951 -0.0761
vn 0.0625 0.9951 -0.0761
vn 0.6314 0.0975 -0.7693
vn 0.1850 -0.9565 -0.2254
vn 0.6073 0.2890 -0.7400
vn 0.3002 -0.8810 -0.3658
vn 0.5601 0.4696 -0.6825
vn 0.4036 -0.7715 -0.4918
vn 0.4913 0.6326 -0.5987
vn 0.4913 -0.6326 -0.5987
vn 0.4036 0.7715 -0.4918
vn 0.5601 -0.4696 -0.6825
vn 0.3002 0.8810 -0.3658
vn 0.6073 -0.2890 -0.7400
vn 0.1850 0.9565 -0.2254
vn 0.6314 -0.0975 -0.7693
vn 0.5987 -0.6326 -0.4913
vn 0.4918 0.7715 -0.4036
vn 0.6825 -0.4696 -0.5601
vn 0.3658 0.8810 -0.3002
vn 0.7400 -0.2890 -0.6073
vn 0.2254 0.9565 -0.1850
vn 0.7693 -0.0975 -0.6314
vn 0.0761 -0.9951 -0.0625
vn 0.0761 0.9951 -0.0625
vn 0.7693 0.0975 -0.6314
vn 0.2254 -0.9565 -0.1850
vn 0.7400 0.2890 -0.6073
vn 0.3658 -0.8810 -0.3002
vn 0.6825 0.4696 -0.5601
vn 0.4918 -0.7715 -0.4036
vn 0.5987 0.6326 -0.4913
vn 0.8777 0.0975 -0.4691
vn 0.2571 -0.9565 -0.1374
vn 0.8443 0.2890 -0.4513
vn 0.4173 -0.8810 -0.2230
vn 0.7786 0.4696 -0.4162
vn 0.5611 -0.7715 -0.2999
vn 0.6831 0.6326 -0.3651
vn 0.6831 -0.6326 -0.3651
vn 0.5611 0.7715 -0.2999
vn 0.7786 -0.4696 -0.4162
vn 0.4173 0.8810 -0.2231
vn 0.8443 -0.2890 -0.4513
vn 0.2571 0.9565 -0.1374
vn 0.8777 -0.0975 -0.4691
vn 0.0869 -0.9951 -0.0464
vn 0.0869 0.9951 -0.0464
vn 0.6088 0.7715 -0.1847
vn 0.8448 -0.4696 -0.2563
vn 0.4528 0.8810 -0.1374
vn 0.9161 -0.2890 -0.2779
vn 0.2790 0.9565 -0.0846
vn 0.9524 -0.0975 -0.2889
vn 0.0942 -0.9951 -0.0286
vn 0.0942 0.9951 -0.0286
vn 0.9524 0.0975 -0.2889
vn 0.2790 -0.9565 -0.0846
vn 0.9161 0.2890 -0.2779
vn 0.4528 -0.8810 -0.1374
vn 0.8448 0.4696 -0.2563
vn 0.6088 -0.7715 -0.1847
vn 0.7412 0.6326 -0.2248
vn 0.7412 -0.6326 -0.2248
vn 0.9527 0.2890 -0.0938
vn 0.4709 -0.8810 -0.0464
vn 0.8786 0.4696 -0.0865
vn 0.6332 -0.7715 -0.0624
vn 0.7708 0.6326 -0.0759
vn 0.7708 -0.6326 -0.0759
vn 0.6332 0.7715 -0.0624
vn 0.8786 -0.4696 -0.0865
vn 0.4709 0.8810 -0.0464
vn 0.9527 -0.2890 -0.0938
vn 0.2902 0.9565 -0.0286
vn 0.9904 -0.0975 -0.0976
vn 0.0980 -0.9951 -0.0097
vn 0.0980 0.9951 -0.0097
vn 0.9904 0.0975 -0.0976
vn 0.2902 -0.9565 -0.0286
vn 0.4709 0.8810 0.0464
vn 0.9527 -0.2890 0.0938
vn 0.2902 0.9565 0.0286
vn 0.9904 -0.0975 0.0976
vn 0.0980 -0.9951 0.0097
vn 0.0980 0.9951 0.0097
vn 0.9904 0.0975 0.0976
vn 0.2902 -0.9565 0.0286
vn 0.9527 0.2890 0.0938
vn 0.4709 -0.8810 0.0464
vn 0.8786 0.4696 0.0865
vn 0.6332 -0.7715 0.0624
vn 0.7708 0.6326 0.0759
vn 0.7708 -0.6326 0.0759
vn 0.6332 0.7715 0.0624
vn 0.8786 -0.4696 0.0865
vn 0.4528 -0.8810 0.1374
vn 0.8448 0.4696 0.2563
vn 0.6088 -0.7715 0.1847
vn 0.7412 0.6326 0.2248
vn 0.7412 -0.6326 0.2248
vn 0.6088 0.7715 0.1847
vn 0.8448 -0.4696 0.2563
vn 0.4528 0.8810 0.1374
vn 0.9161 -0.2890 0.2779
vn 0.2790 0.9565 0.0846
vn 0.9524 -0.0975 0.2889
vn 0.0942 -0.9951 0.0286
vn 0.0942 0.9951 0.0286
vn 0.9524 0.0975 0.2889
vn 0.2790 -0.9565 0.0846
vn 0.9161 0.2890 0.2779
vn 0.8443 -0.2890 0.4513
vn 0.2571 0.9565 0.1374
vn 0.8777 -0.0975 0.4691
vn 0.0869 -0.9951 0.0464
vn 0.0869 0.9951 0.0464
vn 0.8777 0.0975 0.4691
vn 0.2571 -0.9565 0.1374
vn 0.8443 0.2890 0.4513
vn 0.4173 -0.8810 0.2231
vn 0.7786 0.4696 0.4162
vn 0.5611 -0.7715 0.2999
vn 0.6831 0.6326 0.3651
vn 0.6831 -0.6326 0.3651
vn 0.5611 0.7715 0.2999
vn 0.7786 -0.4696 0.4162
vn 0.4173 0.8810 0.2231
vn 0.6825 0.4696 0.5601
vn 0.4918 -0.7715 0.4036
vn 0.5987 0.6326 0.4913
vn 0.5987 -0.6326 0.4913
vn 0.4918 0.7715 0.4036
vn 0.6825 -0.4696 0.5601
vn 0.3658 0.8810 0.3002
vn 0.7400 -0.2890 0.6073
vn 0.2254 0.9565 0.1850
vn 0.7693 -0.0975 0.6314
vn 0.0761 -0.9951 0.0625
vn 0.0761 0.9951 0.0625
vn 0.7693 0.0975 0.6314
vn 0.2254 -0.9565 0.1850
vn 0.7400 0.2890 0.6073
vn 0.3658 -0.8810 0.3002
vn 0.1850 0.9565 0.2254
vn 0.6314 -0.0975 0.7693
vn 0.0625 -0.9951 0.0761
vn 0.0625 0.9951 0.0761
vn 0.6314 0.0975 0.7693
vn 0.1850 -0.9565 0.2254
vn 0.6073 0.2890 0.7400
vn 0.3002 -0.8810 0.3658
vn 0.5601 0.4696 0.6825
vn 0.4036 -0.7715 0.4918
vn 0.4913 0.6326 0.5987
vn 0.4913 -0.6326 0.5987
vn 0.4036 0.7715 0.4918
vn 0.5601 -0.4696 0.6825
vn 0.3002 0.8810 0.3658
vn 0.6073 -0.2890 0.7400
vn 0.2999 -0.7715 0.5611
vn 0.3651 0.6326 0.6831
vn 0.3651 -0.6326 0.6831
vn 0.2999 0.7715 0.5611
vn 0.4162 -0.4696 0.7786
vn 0.2230 0.8810 0.4173
vn 0.4513 -0.2890 0.8443
vn 0.1374 0.9565 0.2571
vn 0.4691 -0.0975 0.8777
vn 0.0464 -0.9951 0.0869
vn 0.0464 0.9951 0.0869
vn 0.4691 0.0975 0.8777
vn 0.1374 -0.9565 0.2571
vn 0.4513 0.2890 0.8443
vn 0.2230 -0.8810 0.4173
vn 0.4162 0.4696 0.7786
vn 0.2889 -0.0975 0.9524
vn 0.0286 -0.9951 0.0942
vn 0.0286 0.9951 0.0942
vn 0.2889 0.0975 0.9524
vn 0.0846 -0.9565 0.2790
vn 0.2779 0.2890 0.9161
vn 0.1374 -0.8810 0.4528
vn 0.2563 0.4696 0.8448
vn 0.1847 -0.7715 0.6088
vn 0.2248 0.6326 0.7412
vn 0.2248 -0.6326 0.7412
vn 0.1847 0.7715 0.6088
vn 0.2563 -0.4696 0.8448
vn 0.1374 0.8810 0.4528
vn 0.2779 -0.2890 0.9161
vn 0.0846 0.9565 0.2790
vn 0.0759 0.6326 0.7708
vn 0.0759 -0.6326 0.7708
vn 0.0624 0.7715 0.6332
vn 0.0865 -0.4696 0.8786
vn 0.0464 0.8810 0.4709
vn 0.0938 -0.2890 0.9527
vn 0.0286 0.9565 0.2902
vn 0.0976 -0.0975 0.9904
vn 0.0097 -0.9951 0.0980
vn 0.0097 0.9951 0.0980
vn 0.0976 0.0975 0.9904
vn 0.0286 -0.9565 0.2902
vn 0.0938 0.2890 0.9527
vn 0.0464 -0.8810 0.4709
vn 0.0865 0.4696 0.8786
vn 0.0624 -0.7715 0.6332
vn -0.0975 -0.0976 0.9904
vn -0.0975 0.0975 0.9904
vn -0.2889 0.0976 0.9524
vn -0.2230 -0.8810 0.4173
vn -0.2230 0.8810 0.4173
vn -0.4173 -0.8810 -0.2230
vn -0.4173 0.8810 -0.2230
vn 0.0976 -0.0975 -0.9904
vn 0.0976 0.0975 -0.9904
vn 0.2231 0.8810 -0.4173
vn 0.2231 -0.8810 -0.4173
vn 0.4173 0.8810 -0.2230
vn 0.9904 -0.0975 -0.0975
vn 0.9904 0.0975 -0.0975
vn 0.9904 -0.0975 0.0975
vn 0.9904 0.0975 0.0975
vt 0.750000 0.250000
vt 0.718750 0.312500
vt 0.750000 0.312500
vt 0.718750 0.687500
vt 0.750000 0.750000
vt 0.750000 0.687500
vt 0.718750 0.187500
vt 0.750000 0.187500
vt 0.750000 0.625000
vt 0.718750 0.125000
vt 0.750000 0.125000
vt 0.750000 0.562500
vt 0.718750 0.625000
vt 0.718750 0.062500
vt 0.750000 0.062500
vt 0.718750 0.500000
vt 0.750000 0.500000
vt 0.750000 0.937500
vt 0.718750 0.937500
vt 0.734375 1.000000
vt 0.734375 0.000000
vt 0.718750 0.437500
vt 0.750000 0.437500
vt 0.750000 0.875000
vt 0.718750 0.375000
vt 0.750000 0.375000
vt 0.750000 0.812500
vt 0.718750 0.875000
vt 0.718750 0.812500
vt 0.687500 0.812500
vt 0.687500 0.375000
vt 0.687500 0.750000
vt 0.718750 0.750000
vt 0.718750 0.250000
vt 0.687500 0.312500
vt 0.687500 0.687500
vt 0.687500 0.250000
vt 0.687500 0.625000
vt 0.687500 0.187500
vt 0.718750 0.562500
vt 0.687500 0.062500
vt 0.687500 0.500000
vt 0.687500 0.937500
vt 0.703125 1.000000
vt 0.703125 0.000000
vt 0.687500 0.437500
vt 0.687500 0.875000
vt 0.687500 0.562500
vt 0.656250 0.625000
vt 0.656250 0.125000
vt 0.687500 0.125000
vt 0.656250 0.562500
vt 0.656250 0.937500
vt 0.671875 1.000000
vt 0.671875 0.000000
vt 0.656250 0.062500
vt 0.656250 0.437500
vt 0.656250 0.875000
vt 0.656250 0.375000
vt 0.656250 0.812500
vt 0.656250 0.750000
vt 0.656250 0.312500
vt 0.656250 0.687500
vt 0.656250 0.250000
vt 0.656250 0.187500
vt 0.625000 0.375000
vt 0.625000 0.750000
vt 0.625000 0.250000
vt 0.625000 0.625000
vt 0.625000 0.187500
vt 0.625000 0.125000
vt 0.656250 0.500000
vt 0.625000 0.562500
vt 0.625000 0.937500
vt 0.640625 1.000000
vt 0.640625 0.000000
vt 0.625000 0.062500
vt 0.625000 0.437500
vt 0.625000 0.875000
vt 0.625000 0.812500
vt 0.593750 0.062500
vt 0.625000 0.500000
vt 0.593750 0.562500
vt 0.593750 0.937500
vt 0.609375 1.000000
vt 0.609375 0.000000
vt 0.593750 0.437500
vt 0.593750 0.375000
vt 0.593750 0.875000
vt 0.625000 0.312500
vt 0.593750 0.750000
vt 0.593750 0.250000
vt 0.625000 0.687500
vt 0.593750 0.625000
vt 0.593750 0.125000
vt 0.562500 0.250000
vt 0.593750 0.312500
vt 0.593750 0.687500
vt 0.562500 0.750000
vt 0.593750 0.187500
vt 0.562500 0.625000
vt 0.562500 0.187500
vt 0.562500 0.125000
vt 0.593750 0.500000
vt 0.562500 0.562500
vt 0.562500 0.937500
vt 0.578125 1.000000
vt 0.578125 0.000000
vt 0.562500 0.062500
vt 0.562500 0.437500
vt 0.562500 0.875000
vt 0.562500 0.375000
vt 0.562500 0.812500
vt 0.593750 0.812500
vt 0.531250 0.937500
vt 0.546875 1.000000
vt 0.546875 0.000000
vt 0.531250 0.062500
vt 0.531250 0.437500
vt 0.562500 0.500000
vt 0.531250 0.875000
vt 0.531250 0.375000
vt 0.562500 0.312500
vt 0.531250 0.750000
vt 0.531250 0.250000
vt 0.562500 0.687500
vt 0.531250 0.625000
vt 0.531250 0.125000
vt 0.531250 0.562500
vt 0.531250 0.687500
vt 0.500000 0.750000
vt 0.531250 0.187500
vt 0.500000 0.250000
vt 0.500000 0.625000
vt 0.500000 0.187500
vt 0.500000 0.062500
vt 0.531250 0.500000
vt 0.500000 0.562500
vt 0.500000 0.937500
vt 0.515625 1.000000
vt 0.515625 0.000000
vt 0.500000 0.437500
vt 0.500000 0.875000
vt 0.500000 0.375000
vt 0.500000 0.812500
vt 0.531250 0.812500
vt 0.531250 0.312500
vt 0.468750 0.437500
vt 0.500000 0.500000
vt 0.468750 0.937500
vt 0.468750 0.375000
vt 0.468750 0.875000
vt 0.500000 0.312500
vt 0.468750 0.750000
vt 0.468750 0.250000
vt 0.500000 0.687500
vt 0.468750 0.625000
vt 0.468750 0.125000
vt 0.500000 0.125000
vt 0.468750 0.062500
vt 0.468750 0.562500
vt 0.484375 1.000000
vt 0.484375 0.000000
vt 0.468750 0.187500
vt 0.437500 0.250000
vt 0.437500 0.625000
vt 0.468750 0.687500
vt 0.437500 0.187500
vt 0.437500 0.062500
vt 0.468750 0.500000
vt 0.437500 0.562500
vt 0.437500 0.937500
vt 0.453125 1.000000
vt 0.453125 0.000000
vt 0.437500 0.437500
vt 0.437500 0.875000
vt 0.437500 0.375000
vt 0.437500 0.812500
vt 0.468750 0.812500
vt 0.468750 0.312500
vt 0.437500 0.750000
vt 0.406250 0.875000
vt 0.406250 0.375000
vt 0.406250 0.812500
vt 0.437500 0.312500
vt 0.406250 0.750000
vt 0.406250 0.250000
vt 0.437500 0.687500
vt 0.406250 0.625000
vt 0.437500 0.125000
vt 0.406250 0.187500
vt 0.406250 0.125000
vt 0.437500 0.500000
vt 0.406250 0.562500
vt 0.406250 0.937500
vt 0.421875 1.000000
vt 0.421875 0.000000
vt 0.406250 0.062500
vt 0.406250 0.437500
vt 0.375000 0.625000
vt 0.406250 0.687500
vt 0.375000 0.187500
vt 0.375000 0.125000
vt 0.406250 0.500000
vt 0.375000 0.562500
vt 0.375000 0.937500
vt 0.390625 1.000000
vt 0.390625 0.000000
vt 0.375000 0.062500
vt 0.375000 0.437500
vt 0.375000 0.875000
vt 0.375000 0.375000
vt 0.375000 0.812500
vt 0.406250 0.312500
vt 0.375000 0.750000
vt 0.375000 0.250000
vt 0.343750 0.375000
vt 0.343750 0.875000
vt 0.375000 0.312500
vt 0.343750 0.750000
vt 0.343750 0.250000
vt 0.375000 0.687500
vt 0.343750 0.625000
vt 0.343750 0.125000
vt 0.343750 0.062500
vt 0.375000 0.500000
vt 0.343750 0.562500
vt 0.343750 0.937500
vt 0.359375 1.000000
vt 0.359375 0.000000
vt 0.343750 0.437500
vt 0.312500 0.187500
vt 0.343750 0.187500
vt 0.312500 0.625000
vt 0.312500 0.125000
vt 0.343750 0.500000
vt 0.312500 0.562500
vt 0.312500 0.937500
vt 0.328125 1.000000
vt 0.328125 0.000000
vt 0.312500 0.062500
vt 0.312500 0.437500
vt 0.312500 0.875000
vt 0.312500 0.375000
vt 0.312500 0.812500
vt 0.343750 0.812500
vt 0.343750 0.312500
vt 0.312500 0.750000
vt 0.312500 0.250000
vt 0.343750 0.687500
vt 0.312500 0.312500
vt 0.281250 0.375000
vt 0.281250 0.750000
vt 0.281250 0.250000
vt 0.312500 0.687500
vt 0.281250 0.625000
vt 0.281250 0.187500
vt 0.281250 0.125000
vt 0.312500 0.500000
vt 0.281250 0.562500
vt 0.281250 0.937500
vt 0.296875 1.000000
vt 0.296875 0.000000
vt 0.281250 0.062500
vt 0.281250 0.437500
vt 0.281250 0.875000
vt 0.281250 0.812500
vt 0.250000 0.062500
vt 0.281250 0.500000
vt 0.250000 0.562500
vt 0.250000 0.937500
vt 0.265625 1.000000
vt 0.265625 0.000000
vt 0.250000 0.437500
vt 0.250000 0.375000
vt 0.250000 0.812500
vt 0.281250 0.312500
vt 0.250000 0.750000
vt 0.250000 0.250000
vt 0.281250 0.687500
vt 0.250000 0.625000
vt 0.250000 0.187500
vt 0.218750 0.750000
vt 0.218750 0.250000
vt 0.250000 0.312500
vt 0.250000 0.687500
vt 0.218750 0.625000
vt 0.218750 0.125000
vt 0.250000 0.125000
vt 0.218750 0.062500
vt 0.250000 0.500000
vt 0.218750 0.562500
vt 0.218750 0.937500
vt 0.234375 1.000000
vt 0.234375 0.000000
vt 0.218750 0.437500
vt 0.250000 0.875000
vt 0.218750 0.375000
vt 0.218750 0.875000
vt 0.218750 0.500000
vt 0.187500 0.562500
vt 0.187500 0.937500
vt 0.203125 1.000000
vt 0.203125 0.000000
vt 0.187500 0.062500
vt 0.187500 0.437500
vt 0.187500 0.375000
vt 0.187500 0.812500
vt 0.218750 0.812500
vt 0.218750 0.312500
vt 0.187500 0.750000
vt 0.187500 0.250000
vt 0.218750 0.687500
vt 0.218750 0.187500
vt 0.187500 0.625000
vt 0.187500 0.187500
vt 0.156250 0.250000
vt 0.187500 0.312500
vt 0.187500 0.687500
vt 0.156250 0.750000
vt 0.156250 0.625000
vt 0.156250 0.125000
vt 0.187500 0.125000
vt 0.156250 0.062500
vt 0.187500 0.500000
vt 0.156250 0.562500
vt 0.156250 0.937500
vt 0.171875 1.000000
vt 0.171875 0.000000
vt 0.156250 0.437500
vt 0.156250 0.875000
vt 0.187500 0.875000
vt 0.156250 0.375000
vt 0.156250 0.812500
vt 0.125000 0.937500
vt 0.140625 1.000000
vt 0.140625 0.000000
vt 0.125000 0.062500
vt 0.125000 0.437500
vt 0.156250 0.500000
vt 0.125000 0.875000
vt 0.125000 0.375000
vt 0.156250 0.312500
vt 0.125000 0.750000
vt 0.125000 0.250000
vt 0.156250 0.687500
vt 0.156250 0.187500
vt 0.125000 0.625000
vt 0.125000 0.125000
vt 0.125000 0.562500
vt 0.125000 0.687500
vt 0.093750 0.750000
vt 0.125000 0.187500
vt 0.093750 0.250000
vt 0.093750 0.625000
vt 0.093750 0.125000
vt 0.093750 0.062500
vt 0.125000 0.500000
vt 0.093750 0.562500
vt 0.093750 0.937500
vt 0.109375 1.000000
vt 0.109375 0.000000
vt 0.093750 0.437500
vt 0.093750 0.375000
vt 0.125000 0.812500
vt 0.093750 0.875000
vt 0.125000 0.312500
vt 0.062500 0.437500
vt 0.093750 0.500000
vt 0.062500 0.875000
vt 0.062500 0.375000
vt 0.062500 0.812500
vt 0.093750 0.812500
vt 0.093750 0.312500
vt 0.062500 0.750000
vt 0.062500 0.250000
vt 0.093750 0.687500
vt 0.093750 0.187500
vt 0.062500 0.625000
vt 0.062500 0.125000
vt 0.062500 0.562500
vt 0.062500 0.937500
vt 0.078125 1.000000
vt 0.078125 0.000000
vt 0.062500 0.062500
vt 0.062500 0.187500
vt 0.031250 0.250000
vt 0.031250 0.625000
vt 0.062500 0.687500
vt 0.031250 0.125000
vt 0.062500 0.500000
vt 0.031250 0.562500
vt 0.031250 0.937500
vt 0.046875 1.000000
vt 0.046875 0.000000
vt 0.031250 0.062500
vt 0.031250 0.437500
vt 0.031250 0.875000
vt 0.031250 0.375000
vt 0.062500 0.312500
vt 0.031250 0.750000
vt 0.000000 0.375000
vt 0.031250 0.812500
vt 0.000000 0.875000
vt 0.031250 0.312500
vt 0.000000 0.750000
vt 0.000000 0.250000
vt 0.031250 0.687500
vt 0.031250 0.187500
vt 0.000000 0.625000
vt 0.000000 0.125000
vt 0.031250 0.500000
vt 0.000000 0.562500
vt 0.000000 0.937500
vt 0.015625 1.000000
vt 0.015625 0.000000
vt 0.000000 0.062500
vt 0.000000 0.437500
vt 0.968750 0.125000
vt 1.000000 0.187500
vt 1.000000 0.125000
vt 1.000000 0.562500
vt 0.968750 0.625000
vt 1.000000 0.625000
vt 0.968750 0.062500
vt 1.000000 0.062500
vt 1.000000 0.500000
vt 0.968750 0.562500
vt 1.000000 0.937500
vt 0.968750 0.937500
vt 0.984375 1.000000
vt 0.984375 0.000000
vt 0.968750 0.437500
vt 1.000000 0.437500
vt 1.000000 0.875000
vt 0.968750 0.375000
vt 1.000000 0.375000
vt 1.000000 0.812500
vt 0.968750 0.875000
vt 1.000000 0.312500
vt 0.968750 0.750000
vt 1.000000 0.750000
vt 0.968750 0.250000
vt 1.000000 0.250000
vt 1.000000 0.687500
vt 0.968750 0.812500
vt 0.937500 0.875000
vt 0.968750 0.312500
vt 0.937500 0.375000
vt 0.937500 0.750000
vt 0.937500 0.250000
vt 0.968750 0.687500
vt 0.968750 0.187500
vt 0.937500 0.625000
vt 0.937500 0.125000
vt 0.937500 0.062500
vt 0.968750 0.500000
vt 0.937500 0.562500
vt 0.937500 0.937500
vt 0.953125 1.000000
vt 0.953125 0.000000
vt 0.937500 0.437500
vt 0.906250 0.625000
vt 0.906250 0.125000
vt 0.937500 0.500000
vt 0.906250 0.562500
vt 0.906250 0.937500
vt 0.921875 1.000000
vt 0.921875 0.000000
vt 0.906250 0.062500
vt 0.906250 0.437500
vt 0.906250 0.875000
vt 0.906250 0.375000
vt 0.937500 0.812500
vt 0.937500 0.312500
vt 0.906250 0.750000
vt 0.906250 0.250000
vt 0.937500 0.687500
vt 0.937500 0.187500
vt 0.906250 0.312500
vt 0.875000 0.375000
vt 0.875000 0.750000
vt 0.906250 0.812500
vt 0.875000 0.250000
vt 0.906250 0.687500
vt 0.906250 0.187500
vt 0.875000 0.625000
vt 0.875000 0.125000
vt 0.875000 0.062500
vt 0.906250 0.500000
vt 0.875000 0.562500
vt 0.875000 0.937500
vt 0.890625 1.000000
vt 0.890625 0.000000
vt 0.875000 0.437500
vt 0.875000 0.875000
vt 0.843750 0.125000
vt 0.875000 0.500000
vt 0.843750 0.562500
vt 0.843750 0.937500
vt 0.859375 1.000000
vt 0.859375 0.000000
vt 0.843750 0.062500
vt 0.843750 0.437500
vt 0.843750 0.875000
vt 0.843750 0.375000
vt 0.875000 0.812500
vt 0.875000 0.312500
vt 0.843750 0.750000
vt 0.843750 0.250000
vt 0.875000 0.687500
vt 0.875000 0.187500
vt 0.843750 0.625000
vt 0.812500 0.750000
vt 0.843750 0.812500
vt 0.812500 0.250000
vt 0.843750 0.312500
vt 0.843750 0.687500
vt 0.843750 0.187500
vt 0.812500 0.625000
vt 0.812500 0.125000
vt 0.812500 0.062500
vt 0.843750 0.500000
vt 0.812500 0.562500
vt 0.812500 0.937500
vt 0.828125 1.000000
vt 0.828125 0.000000
vt 0.812500 0.437500
vt 0.812500 0.375000
vt 0.812500 0.875000
vt 0.812500 0.500000
vt 0.781250 0.562500
vt 0.781250 0.937500
vt 0.796875 1.000000
vt 0.796875 0.000000
vt 0.781250 0.062500
vt 0.781250 0.437500
vt 0.781250 0.875000
vt 0.781250 0.375000
vt 0.812500 0.812500
vt 0.812500 0.312500
vt 0.781250 0.750000
vt 0.781250 0.250000
vt 0.812500 0.687500
vt 0.812500 0.187500
vt 0.781250 0.625000
vt 0.781250 0.125000
vt 0.781250 0.312500
vt 0.781250 0.687500
vt 0.781250 0.187500
vt 0.781250 0.500000
vt 0.765625 1.000000
vt 0.765625 0.000000
vt 0.781250 0.812500
vt 0.000000 0.812500
vt 0.000000 0.312500
vt 0.000000 0.687500
vt 0.000000 0.187500
vt 0.000000 0.500000
s 0
usemtl マテリアル.001
f 479/1/1 17/2/1 6/3/1
f 11/4/2 476/5/2 2/6/2
f 19/7/3 479/1/3 480/8/3
f 477/9/4 11/4/4 2/6/4
f 20/10/5 480/8/5 481/11/5
f 3/12/6 12/13/6 477/9/6
f 21/14/7 481/11/7 482/15/7
f 14/16/8 3/12/8 4/17/8
f 474/18/9 7/19/9 82/20/9
f 308/21/10 21/14/10 482/15/10
f 15/22/11 4/17/11 5/23/11
f 475/24/12 7/19/12 474/18/12
f 16/25/13 5/23/13 478/26/13
f 1/27/14 8/28/14 475/24/14
f 17/2/15 478/26/15 6/3/15
f 476/5/16 9/29/16 1/27/16
f 24/30/17 8/28/17 9/29/17
f 17/2/18 31/31/18 16/25/18
f 25/32/19 9/29/19 10/33/19
f 18/34/20 32/35/20 17/2/20
f 26/36/21 10/33/21 11/4/21
f 19/7/22 33/37/22 18/34/22
f 27/38/23 11/4/23 12/13/23
f 20/10/24 34/39/24 19/7/24
f 13/40/25 27/38/25 12/13/25
f 36/41/26 20/10/26 21/14/26
f 29/42/27 13/40/27 14/16/27
f 7/19/28 22/43/28 82/44/28
f 308/45/29 36/41/29 21/14/29
f 30/46/30 14/16/30 15/22/30
f 23/47/31 7/19/31 8/28/31
f 31/31/32 15/22/32 16/25/32
f 28/48/33 42/49/33 27/38/33
f 36/41/34 50/50/34 35/51/34
f 29/42/35 43/52/35 28/48/35
f 22/43/36 37/53/36 82/54/36
f 308/55/37 51/56/37 36/41/37
f 45/57/38 29/42/38 30/46/38
f 38/58/39 22/43/39 23/47/39
f 46/59/40 30/46/40 31/31/40
f 39/60/41 23/47/41 24/30/41
f 32/35/42 46/59/42 31/31/42
f 40/61/43 24/30/43 25/32/43
f 33/37/44 47/62/44 32/35/44
f 41/63/45 25/32/45 26/36/45
f 34/39/46 48/64/46 33/37/46
f 42/49/47 26/36/47 27/38/47
f 35/51/48 49/65/48 34/39/48
f 47/62/49 61/66/49 46/59/49
f 55/67/50 39/60/50 40/61/50
f 63/68/51 47/62/51 48/64/51
f 41/63/52 55/67/52 40/61/52
f 49/65/53 63/68/53 48/64/53
f 57/69/54 41/63/54 42/49/54
f 50/50/55 64/70/55 49/65/55
f 43/52/56 57/69/56 42/49/56
f 51/56/57 65/71/57 50/50/57
f 44/72/58 58/73/58 43/52/58
f 37/53/59 52/74/59 82/75/59
f 308/76/60 66/77/60 51/56/60
f 60/78/61 44/72/61 45/57/61
f 53/79/62 37/53/62 38/58/62
f 61/66/63 45/57/63 46/59/63
f 54/80/64 38/58/64 39/60/64
f 81/81/65 65/71/65 66/77/65
f 59/82/66 73/83/66 58/73/66
f 52/74/67 67/84/67 82/85/67
f 308/86/68 81/81/68 66/77/68
f 75/87/69 59/82/69 60/78/69
f 53/79/70 67/84/70 52/74/70
f 76/88/71 60/78/71 61/66/71
f 54/80/72 68/89/72 53/79/72
f 62/90/73 76/88/73 61/66/73
f 70/91/74 54/80/74 55/67/74
f 78/92/75 62/90/75 63/68/75
f 56/93/76 70/91/76 55/67/76
f 64/70/77 78/92/77 63/68/77
f 72/94/78 56/93/78 57/69/78
f 80/95/79 64/70/79 65/71/79
f 58/73/80 72/94/80 57/69/80
f 94/96/81 77/97/81 78/92/81
f 71/98/82 86/99/82 70/91/82
f 79/100/83 94/96/83 78/92/83
f 88/101/84 71/98/84 72/94/84
f 80/95/85 95/102/85 79/100/85
f 73/83/86 88/101/86 72/94/86
f 81/81/87 96/103/87 80/95/87
f 74/104/88 89/105/88 73/83/88
f 67/84/89 83/106/89 82/107/89
f 308/108/90 97/109/90 81/81/90
f 91/110/91 74/104/91 75/87/91
f 84/111/92 67/84/92 68/89/92
f 92/112/93 75/87/93 76/88/93
f 85/113/94 68/89/94 69/114/94
f 77/97/95 92/112/95 76/88/95
f 86/99/96 69/114/96 70/91/96
f 83/106/97 98/115/97 82/116/97
f 308/117/98 112/118/98 97/109/98
f 106/119/99 90/120/99 91/110/99
f 99/121/100 83/106/100 84/111/100
f 107/122/101 91/110/101 92/112/101
f 85/113/102 99/121/102 84/111/102
f 93/123/103 107/122/103 92/112/103
f 101/124/104 85/113/104 86/99/104
f 109/125/105 93/123/105 94/96/105
f 87/126/106 101/124/106 86/99/106
f 95/102/107 109/125/107 94/96/107
f 103/127/108 87/126/108 88/101/108
f 111/128/109 95/102/109 96/103/109
f 89/105/110 103/127/110 88/101/110
f 112/118/111 96/103/111 97/109/111
f 90/120/112 104/129/112 89/105/112
f 102/130/113 116/131/113 101/124/113
f 110/132/114 124/133/114 109/125/114
f 118/134/115 102/130/115 103/127/115
f 111/128/116 125/135/116 110/132/116
f 104/129/117 118/134/117 103/127/117
f 127/136/118 111/128/118 112/118/118
f 105/137/119 119/138/119 104/129/119
f 98/115/120 113/139/120 82/140/120
f 308/141/121 127/136/121 112/118/121
f 121/142/122 105/137/122 106/119/122
f 114/143/123 98/115/123 99/121/123
f 122/144/124 106/119/124 107/122/124
f 115/145/125 99/121/125 100/146/125
f 108/147/126 122/144/126 107/122/126
f 116/131/127 100/146/127 101/124/127
f 124/133/128 108/147/128 109/125/128
f 136/148/129 120/149/129 121/142/129
f 114/143/130 128/150/130 113/139/130
f 137/151/131 121/142/131 122/144/131
f 115/145/132 129/152/132 114/143/132
f 123/153/133 137/151/133 122/144/133
f 131/154/134 115/145/134 116/131/134
f 139/155/135 123/153/135 124/133/135
f 117/156/136 131/154/136 116/131/136
f 125/135/137 139/155/137 124/133/137
f 133/157/138 117/156/138 118/134/138
f 141/158/139 125/135/139 126/159/139
f 119/138/140 133/157/140 118/134/140
f 142/160/141 126/159/141 127/136/141
f 120/149/142 134/161/142 119/138/142
f 113/139/143 128/150/143 82/162/143
f 308/163/144 142/160/144 127/136/144
f 140/164/145 154/165/145 139/155/145
f 148/166/146 132/167/146 133/157/146
f 141/158/147 155/168/147 140/164/147
f 134/161/148 148/166/148 133/157/148
f 157/169/149 141/158/149 142/160/149
f 135/170/150 149/171/150 134/161/150
f 128/150/151 143/172/151 82/173/151
f 308/174/152 157/169/152 142/160/152
f 151/175/153 135/170/153 136/148/153
f 144/176/154 128/150/154 129/152/154
f 152/177/155 136/148/155 137/151/155
f 145/178/156 129/152/156 130/179/156
f 138/180/157 152/177/157 137/151/157
f 146/181/158 130/179/158 131/154/158
f 154/165/159 138/180/159 139/155/159
f 132/167/160 146/181/160 131/154/160
f 159/182/161 143/172/161 144/176/161
f 167/183/162 151/175/162 152/177/162
f 160/184/163 144/176/163 145/178/163
f 153/185/164 167/183/164 152/177/164
f 161/186/165 145/178/165 146/181/165
f 169/187/166 153/185/166 154/165/166
f 147/188/167 161/186/167 146/181/167
f 155/168/168 169/187/168 154/165/168
f 163/189/169 147/188/169 148/166/169
f 156/190/170 170/191/170 155/168/170
f 149/171/171 163/189/171 148/166/171
f 157/169/172 171/192/172 156/190/172
f 150/193/173 164/194/173 149/171/173
f 143/172/174 158/195/174 82/196/174
f 308/197/175 172/198/175 157/169/175
f 166/199/176 150/193/176 151/175/176
f 178/200/177 162/201/177 163/189/177
f 171/192/178 185/202/178 170/191/178
f 164/194/179 178/200/179 163/189/179
f 172/198/180 186/203/180 171/192/180
f 165/204/181 179/205/181 164/194/181
f 158/195/182 173/206/182 82/207/182
f 308/208/183 187/209/183 172/198/183
f 181/210/184 165/204/184 166/199/184
f 174/211/185 158/195/185 159/182/185
f 182/212/186 166/199/186 167/183/186
f 175/213/187 159/182/187 160/184/187
f 168/214/188 182/212/188 167/183/188
f 176/215/189 160/184/189 161/186/189
f 184/216/190 168/214/190 169/187/190
f 162/201/191 176/215/191 161/186/191
f 170/191/192 184/216/192 169/187/192
f 197/217/193 181/210/193 182/212/193
f 175/213/194 189/218/194 174/211/194
f 183/219/195 197/217/195 182/212/195
f 191/220/196 175/213/196 176/215/196
f 199/221/197 183/219/197 184/216/197
f 177/222/198 191/220/198 176/215/198
f 185/202/199 199/221/199 184/216/199
f 193/223/200 177/222/200 178/200/200
f 201/224/201 185/202/201 186/203/201
f 179/205/202 193/223/202 178/200/202
f 202/225/203 186/203/203 187/209/203
f 180/226/204 194/227/204 179/205/204
f 173/206/205 188/228/205 82/229/205
f 308/230/206 202/225/206 187/209/206
f 196/231/207 180/226/207 181/210/207
f 174/211/208 188/228/208 173/206/208
f 201/224/209 215/232/209 200/233/209
f 194/227/210 208/234/210 193/223/210
f 202/225/211 216/235/211 201/224/211
f 195/236/212 209/237/212 194/227/212
f 188/228/213 203/238/213 82/239/213
f 308/240/214 217/241/214 202/225/214
f 211/242/215 195/236/215 196/231/215
f 204/243/216 188/228/216 189/218/216
f 212/244/217 196/231/217 197/217/217
f 205/245/218 189/218/218 190/246/218
f 198/247/219 212/244/219 197/217/219
f 206/248/220 190/246/220 191/220/220
f 214/249/221 198/247/221 199/221/221
f 192/250/222 206/248/222 191/220/222
f 200/233/223 214/249/223 199/221/223
f 208/234/224 192/250/224 193/223/224
f 213/251/225 227/252/225 212/244/225
f 221/253/226 205/245/226 206/248/226
f 229/254/227 213/251/227 214/249/227
f 207/255/228 221/253/228 206/248/228
f 215/232/229 229/254/229 214/249/229
f 223/256/230 207/255/230 208/234/230
f 216/235/231 230/257/231 215/232/231
f 209/237/232 223/256/232 208/234/232
f 217/241/233 231/258/233 216/235/233
f 210/259/234 224/260/234 209/237/234
f 203/238/235 218/261/235 82/262/235
f 308/263/236 232/264/236 217/241/236
f 226/265/237 210/259/237 211/242/237
f 219/266/238 203/238/238 204/243/238
f 227/252/239 211/242/239 212/244/239
f 220/267/240 204/243/240 205/245/240
f 247/268/241 231/258/241 232/264/241
f 225/269/242 239/270/242 224/260/242
f 218/261/243 233/271/243 82/272/243
f 308/273/244 247/268/244 232/264/244
f 241/274/245 225/269/245 226/265/245
f 219/266/246 233/271/246 218/261/246
f 242/275/247 226/265/247 227/252/247
f 235/276/248 219/266/248 220/267/248
f 228/277/249 242/275/249 227/252/249
f 236/278/250 220/267/250 221/253/250
f 244/279/251 228/277/251 229/254/251
f 222/280/252 236/278/252 221/253/252
f 230/257/253 244/279/253 229/254/253
f 238/281/254 222/280/254 223/256/254
f 231/258/255 245/282/255 230/257/255
f 224/260/256 238/281/256 223/256/256
f 251/283/257 235/276/257 236/278/257
f 259/284/258 243/285/258 244/279/258
f 237/286/259 251/283/259 236/278/259
f 245/282/260 259/284/260 244/279/260
f 253/287/261 237/286/261 238/281/261
f 261/288/262 245/282/262 246/289/262
f 239/270/263 253/287/263 238/281/263
f 262/290/264 246/289/264 247/268/264
f 240/291/265 254/292/265 239/270/265
f 233/271/266 248/293/266 82/294/266
f 308/295/267 262/290/267 247/268/267
f 256/296/268 240/291/268 241/274/268
f 234/297/269 248/293/269 233/271/269
f 257/298/270 241/274/270 242/275/270
f 235/276/271 249/299/271 234/297/271
f 243/285/272 257/298/272 242/275/272
f 255/300/273 269/301/273 254/292/273
f 248/293/274 263/302/274 82/303/274
f 308/304/275 277/305/275 262/290/275
f 271/306/276 255/300/276 256/296/276
f 249/299/277 263/302/277 248/293/277
f 272/307/278 256/296/278 257/298/278
f 265/308/279 249/299/279 250/309/279
f 258/310/280 272/307/280 257/298/280
f 266/311/281 250/309/281 251/283/281
f 274/312/282 258/310/282 259/284/282
f 252/313/283 266/311/283 251/283/283
f 260/314/284 274/312/284 259/284/284
f 268/315/285 252/313/285 253/287/285
f 261/288/286 275/316/286 260/314/286
f 254/292/287 268/315/287 253/287/287
f 277/305/288 261/288/288 262/290/288
f 289/317/289 273/318/289 274/312/289
f 267/319/290 281/320/290 266/311/290
f 275/316/291 289/317/291 274/312/291
f 283/321/292 267/319/292 268/315/292
f 291/322/293 275/316/293 276/323/293
f 269/301/294 283/321/294 268/315/294
f 292/324/295 276/323/295 277/305/295
f 270/325/296 284/326/296 269/301/296
f 263/302/297 278/327/297 82/328/297
f 308/329/298 292/324/298 277/305/298
f 286/330/299 270/325/299 271/306/299
f 279/331/300 263/302/300 264/332/300
f 287/333/301 271/306/301 272/307/301
f 280/334/302 264/332/302 265/308/302
f 273/318/303 287/333/303 272/307/303
f 281/320/304 265/308/304 266/311/304
f 278/327/305 293/335/305 82/336/305
f 308/337/306 307/338/306 292/324/306
f 301/339/307 285/340/307 286/330/307
f 294/341/308 278/327/308 279/331/308
f 302/342/309 286/330/309 287/333/309
f 280/334/310 294/341/310 279/331/310
f 288/343/311 302/342/311 287/333/311
f 296/344/312 280/334/312 281/320/312
f 304/345/313 288/343/313 289/317/313
f 282/346/314 296/344/314 281/320/314
f 290/347/315 304/345/315 289/317/315
f 298/348/316 282/346/316 283/321/316
f 306/349/317 290/347/317 291/322/317
f 284/326/318 298/348/318 283/321/318
f 292/324/319 306/349/319 291/322/319
f 285/340/320 299/350/320 284/326/320
f 297/351/321 312/352/321 296/344/321
f 305/353/322 320/354/322 304/345/322
f 314/355/323 297/351/323 298/348/323
f 322/356/324 305/353/324 306/349/324
f 299/350/325 314/355/325 298/348/325
f 323/357/326 306/349/326 307/338/326
f 300/358/327 315/359/327 299/350/327
f 293/335/328 309/360/328 82/361/328
f 308/362/329 323/357/329 307/338/329
f 317/363/330 300/358/330 301/339/330
f 294/341/331 309/360/331 293/335/331
f 318/364/332 301/339/332 302/342/332
f 295/365/333 310/366/333 294/341/333
f 303/367/334 318/364/334 302/342/334
f 312/352/335 295/365/335 296/344/335
f 320/354/336 303/367/336 304/345/336
f 332/368/337 316/369/337 317/363/337
f 325/370/338 309/360/338 310/366/338
f 333/371/339 317/363/339 318/364/339
f 326/372/340 310/366/340 311/373/340
f 319/374/341 333/371/341 318/364/341
f 327/375/342 311/373/342 312/352/342
f 335/376/343 319/374/343 320/354/343
f 313/377/344 327/375/344 312/352/344
f 321/378/345 335/376/345 320/354/345
f 329/379/346 313/377/346 314/355/346
f 337/380/347 321/378/347 322/356/347
f 315/359/348 329/379/348 314/355/348
f 323/357/349 337/380/349 322/356/349
f 316/369/350 330/381/350 315/359/350
f 309/360/351 324/382/351 82/383/351
f 308/384/352 338/385/352 323/357/352
f 336/386/353 350/387/353 335/376/353
f 344/388/354 328/389/354 329/379/354
f 352/390/355 336/386/355 337/380/355
f 330/381/356 344/388/356 329/379/356
f 338/385/357 352/390/357 337/380/357
f 331/391/358 345/392/358 330/381/358
f 324/382/359 339/393/359 82/394/359
f 308/395/360 353/396/360 338/385/360
f 347/397/361 331/391/361 332/368/361
f 340/398/362 324/382/362 325/370/362
f 348/399/363 332/368/363 333/371/363
f 326/372/364 340/398/364 325/370/364
f 334/400/365 348/399/365 333/371/365
f 342/401/366 326/372/366 327/375/366
f 350/387/367 334/400/367 335/376/367
f 328/389/368 342/401/368 327/375/368
f 363/402/369 347/397/369 348/399/369
f 341/403/370 355/404/370 340/398/370
f 349/405/371 363/402/371 348/399/371
f 357/406/372 341/403/372 342/401/372
f 365/407/373 349/405/373 350/387/373
f 343/408/374 357/406/374 342/401/374
f 351/409/375 365/407/375 350/387/375
f 359/410/376 343/408/376 344/388/376
f 367/411/377 351/409/377 352/390/377
f 345/392/378 359/410/378 344/388/378
f 353/396/379 367/411/379 352/390/379
f 346/412/380 360/413/380 345/392/380
f 339/393/381 354/414/381 82/415/381
f 308/416/382 368/417/382 353/396/382
f 362/418/383 346/412/383 347/397/383
f 355/404/384 339/393/384 340/398/384
f 382/419/385 366/420/385 367/421/385
f 360/422/386 374/423/386 359/424/386
f 383/425/387 367/421/387 368/426/387
f 361/427/388 375/428/388 360/422/388
f 354/429/389 369/430/389 82/431/389
f 308/432/390 383/425/390 368/426/390
f 377/433/391 361/427/391 362/434/391
f 355/435/392 369/430/392 354/429/392
f 378/436/393 362/434/393 363/437/393
f 356/438/394 370/439/394 355/435/394
f 364/440/395 378/436/395 363/437/395
f 372/441/396 356/438/396 357/442/396
f 380/443/397 364/440/397 365/444/397
f 358/445/398 372/441/398 357/442/398
f 366/420/399 380/443/399 365/444/399
f 374/423/400 358/445/400 359/424/400
f 371/446/401 385/447/401 370/439/401
f 379/448/402 393/449/402 378/436/402
f 387/450/403 371/446/403 372/441/403
f 395/451/404 379/448/404 380/443/404
f 373/452/405 387/450/405 372/441/405
f 381/453/406 395/451/406 380/443/406
f 389/454/407 373/452/407 374/423/407
f 397/455/408 381/453/408 382/419/408
f 375/428/409 389/454/409 374/423/409
f 398/456/410 382/419/410 383/425/410
f 376/457/411 390/458/411 375/428/411
f 369/430/412 384/459/412 82/460/412
f 308/461/413 398/456/413 383/425/413
f 392/462/414 376/457/414 377/433/414
f 370/439/415 384/459/415 369/430/415
f 393/449/416 377/433/416 378/436/416
f 390/458/417 404/463/417 389/454/417
f 398/456/418 412/464/418 397/455/418
f 391/465/419 405/466/419 390/458/419
f 384/459/420 399/467/420 82/468/420
f 308/469/421 413/470/421 398/456/421
f 407/471/422 391/465/422 392/462/422
f 400/472/423 384/459/423 385/447/423
f 408/473/424 392/462/424 393/449/424
f 386/474/425 400/472/425 385/447/425
f 394/475/426 408/473/426 393/449/426
f 402/476/427 386/474/427 387/450/427
f 410/477/428 394/475/428 395/451/428
f 388/478/429 402/476/429 387/450/429
f 396/479/430 410/477/430 395/451/430
f 404/463/431 388/478/431 389/454/431
f 412/464/432 396/479/432 397/455/432
f 409/480/433 423/481/433 408/473/433
f 417/482/434 401/483/434 402/476/434
f 425/484/435 409/480/435 410/477/435
f 403/485/436 417/482/436 402/476/436
f 411/486/437 425/484/437 410/477/437
f 419/487/438 403/485/438 404/463/438
f 427/488/439 411/486/439 412/464/439
f 405/466/440 419/487/440 404/463/440
f 428/489/441 412/464/441 413/470/441
f 406/490/442 420/491/442 405/466/442
f 399/467/443 414/492/443 82/493/443
f 308/494/444 428/489/444 413/470/444
f 422/495/445 406/490/445 407/471/445
f 415/496/446 399/467/446 400/472/446
f 423/481/447 407/471/447 408/473/447
f 401/483/448 415/496/448 400/472/448
f 428/489/449 442/497/449 427/488/449
f 421/498/450 435/499/450 420/491/450
f 414/492/451 429/500/451 82/501/451
f 308/502/452 443/503/452 428/489/452
f 437/504/453 421/498/453 422/495/453
f 430/505/454 414/492/454 415/496/454
f 438/506/455 422/495/455 423/481/455
f 416/507/456 430/505/456 415/496/456
f 424/508/457 438/506/457 423/481/457
f 432/509/458 416/507/458 417/482/458
f 440/510/459 424/508/459 425/484/459
f 418/511/460 432/509/460 417/482/460
f 426/512/461 440/510/461 425/484/461
f 434/513/462 418/511/462 419/487/462
f 442/497/463 426/512/463 427/488/463
f 420/491/464 434/513/464 419/487/464
f 447/514/465 431/515/465 432/509/465
f 455/516/466 439/517/466 440/510/466
f 433/518/467 447/514/467 432/509/467
f 441/519/468 455/516/468 440/510/468
f 449/520/469 433/518/469 434/513/469
f 457/521/470 441/519/470 442/497/470
f 435/499/471 449/520/471 434/513/471
f 458/522/472 442/497/472 443/503/472
f 436/523/473 450/524/473 435/499/473
f 429/500/474 444/525/474 82/526/474
f 308/527/475 458/522/475 443/503/475
f 452/528/476 436/523/476 437/504/476
f 430/505/477 444/525/477 429/500/477
f 453/529/478 437/504/478 438/506/478
f 431/515/479 445/530/479 430/505/479
f 439/517/480 453/529/480 438/506/480
f 451/531/481 465/532/481 450/524/481
f 444/525/482 459/533/482 82/534/482
f 308/535/483 473/536/483 458/522/483
f 467/537/484 451/531/484 452/528/484
f 460/538/485 444/525/485 445/530/485
f 468/539/486 452/528/486 453/529/486
f 446/540/487 460/538/487 445/530/487
f 454/541/488 468/539/488 453/529/488
f 462/542/489 446/540/489 447/514/489
f 470/543/490 454/541/490 455/516/490
f 448/544/491 462/542/491 447/514/491
f 456/545/492 470/543/492 455/516/492
f 464/546/493 448/544/493 449/520/493
f 472/547/494 456/545/494 457/521/494
f 450/524/495 464/546/495 449/520/495
f 458/522/496 472/547/496 457/521/496
f 479/1/497 469/548/497 470/543/497
f 463/549/498 476/5/498 462/542/498
f 471/550/499 479/1/499 470/543/499
f 464/546/500 2/6/500 463/549/500
f 481/11/501 471/550/501 472/547/501
f 465/532/502 477/9/502 464/546/502
f 482/15/503 472/547/503 473/536/503
f 466/551/504 3/12/504 465/532/504
f 459/533/505 474/18/505 82/552/505
f 308/553/506 482/15/506 473/536/506
f 5/23/507 466/551/507 467/537/507
f 475/24/508 459/533/508 460/538/508
f 478/26/509 467/537/509 468/539/509
f 461/554/510 475/24/510 460/538/510
f 6/3/511 468/539/511 469/548/511
f 462/542/512 1/27/512 461/554/512
f 479/1/1 18/34/1 17/2/1
f 11/4/2 10/33/2 476/5/2
f 19/7/3 18/34/3 479/1/3
f 477/9/4 12/13/4 11/4/4
f 20/10/5 19/7/5 480/8/5
f 3/12/6 13/40/6 12/13/6
f 21/14/7 20/10/7 481/11/7
f 14/16/513 13/40/513 3/12/513
f 15/22/514 14/16/514 4/17/514
f 475/24/12 8/28/12 7/19/12
f 16/25/13 15/22/13 5/23/13
f 1/27/14 9/29/14 8/28/14
f 17/2/15 16/25/15 478/26/15
f 476/5/16 10/33/16 9/29/16
f 24/30/17 23/47/17 8/28/17
f 17/2/18 32/35/18 31/31/18
f 25/32/19 24/30/19 9/29/19
f 18/34/20 33/37/20 32/35/20
f 26/36/21 25/32/21 10/33/21
f 19/7/22 34/39/22 33/37/22
f 27/38/23 26/36/23 11/4/23
f 20/10/24 35/51/24 34/39/24
f 13/40/25 28/48/25 27/38/25
f 36/41/26 35/51/26 20/10/26
f 29/42/27 28/48/27 13/40/27
f 30/46/515 29/42/515 14/16/515
f 23/47/31 22/43/31 7/19/31
f 31/31/32 30/46/32 15/22/32
f 28/48/33 43/52/33 42/49/33
f 36/41/34 51/56/34 50/50/34
f 29/42/35 44/72/35 43/52/35
f 45/57/38 44/72/38 29/42/38
f 38/58/39 37/53/39 22/43/39
f 46/59/40 45/57/40 30/46/40
f 39/60/516 38/58/516 23/47/516
f 32/35/42 47/62/42 46/59/42
f 40/61/43 39/60/43 24/30/43
f 33/37/44 48/64/44 47/62/44
f 41/63/45 40/61/45 25/32/45
f 34/39/46 49/65/46 48/64/46
f 42/49/47 41/63/47 26/36/47
f 35/51/517 50/50/517 49/65/517
f 47/62/49 62/90/49 61/66/49
f 55/67/50 54/80/50 39/60/50
f 63/68/51 62/90/51 47/62/51
f 41/63/52 56/93/52 55/67/52
f 49/65/53 64/70/53 63/68/53
f 57/69/54 56/93/54 41/63/54
f 50/50/55 65/71/55 64/70/55
f 43/52/56 58/73/56 57/69/56
f 51/56/57 66/77/57 65/71/57
f 44/72/58 59/82/58 58/73/58
f 60/78/61 59/82/61 44/72/61
f 53/79/62 52/74/62 37/53/62
f 61/66/63 60/78/63 45/57/63
f 54/80/64 53/79/64 38/58/64
f 81/81/65 80/95/65 65/71/65
f 59/82/66 74/104/66 73/83/66
f 75/87/69 74/104/69 59/82/69
f 53/79/70 68/89/70 67/84/70
f 76/88/71 75/87/71 60/78/71
f 54/80/72 69/114/72 68/89/72
f 62/90/73 77/97/73 76/88/73
f 70/91/74 69/114/74 54/80/74
f 78/92/75 77/97/75 62/90/75
f 56/93/76 71/98/76 70/91/76
f 64/70/77 79/100/77 78/92/77
f 72/94/78 71/98/78 56/93/78
f 80/95/79 79/100/79 64/70/79
f 58/73/80 73/83/80 72/94/80
f 94/96/81 93/123/81 77/97/81
f 71/98/82 87/126/82 86/99/82
f 79/100/83 95/102/83 94/96/83
f 88/101/84 87/126/84 71/98/84
f 80/95/85 96/103/85 95/102/85
f 73/83/86 89/105/86 88/101/86
f 81/81/87 97/109/87 96/103/87
f 74/104/88 90/120/88 89/105/88
f 91/110/91 90/120/91 74/104/91
f 84/111/92 83/106/92 67/84/92
f 92/112/93 91/110/93 75/87/93
f 85/113/94 84/111/94 68/89/94
f 77/97/95 93/123/95 92/112/95
f 86/99/96 85/113/96 69/114/96
f 106/119/99 105/137/99 90/120/99
f 99/121/100 98/115/100 83/106/100
f 107/122/101 106/119/101 91/110/101
f 85/113/102 100/146/102 99/121/102
f 93/123/103 108/147/103 107/122/103
f 101/124/104 100/146/104 85/113/104
f 109/125/105 108/147/105 93/123/105
f 87/126/106 102/130/106 101/124/106
f 95/102/107 110/132/107 109/125/107
f 103/127/108 102/130/108 87/126/108
f 111/128/109 110/132/109 95/102/109
f 89/105/110 104/129/110 103/127/110
f 112/118/111 111/128/111 96/103/111
f 90/120/112 105/137/112 104/129/112
f 102/130/113 117/156/113 116/131/113
f 110/132/114 125/135/114 124/133/114
f 118/134/115 117/156/115 102/130/115
f 111/128/116 126/159/116 125/135/116
f 104/129/117 119/138/117 118/134/117
f 127/136/118 126/159/118 111/128/118
f 105/137/119 120/149/119 119/138/119
f 121/142/122 120/149/122 105/137/122
f 114/143/123 113/139/123 98/115/123
f 122/144/124 121/142/124 106/119/124
f 115/145/125 114/143/125 99/121/125
f 108/147/126 123/153/126 122/144/126
f 116/131/127 115/145/127 100/146/127
f 124/133/128 123/153/128 108/147/128
f 136/148/129 135/170/129 120/149/129
f 114/143/130 129/152/130 128/150/130
f 137/151/131 136/148/131 121/142/131
f 115/145/132 130/179/132 129/152/132
f 123/153/133 138/180/133 137/151/133
f 131/154/134 130/179/134 115/145/134
f 139/155/135 138/180/135 123/153/135
f 117/156/136 132/167/136 131/154/136
f 125/135/137 140/164/137 139/155/137
f 133/157/138 132/167/138 117/156/138
f 141/158/139 140/164/139 125/135/139
f 119/138/140 134/161/140 133/157/140
f 142/160/141 141/158/141 126/159/141
f 120/149/142 135/170/142 134/161/142
f 140/164/145 155/168/145 154/165/145
f 148/166/146 147/188/146 132/167/146
f 141/158/147 156/190/147 155/168/147
f 134/161/148 149/171/148 148/166/148
f 157/169/149 156/190/149 141/158/149
f 135/170/150 150/193/150 149/171/150
f 151/175/153 150/193/153 135/170/153
f 144/176/154 143/172/154 128/150/154
f 152/177/155 151/175/155 136/148/155
f 145/178/156 144/176/156 129/152/156
f 138/180/157 153/185/157 152/177/157
f 146/181/158 145/178/158 130/179/158
f 154/165/159 153/185/159 138/180/159
f 132/167/160 147/188/160 146/181/160
f 159/182/161 158/195/161 143/172/161
f 167/183/162 166/199/162 151/175/162
f 160/184/518 159/182/518 144/176/518
f 153/185/164 168/214/164 167/183/164
f 161/186/165 160/184/165 145/178/165
f 169/187/166 168/214/166 153/185/166
f 147/188/167 162/201/167 161/186/167
f 155/168/168 170/191/168 169/187/168
f 163/189/169 162/201/169 147/188/169
f 156/190/519 171/192/519 170/191/519
f 149/171/171 164/194/171 163/189/171
f 157/169/172 172/198/172 171/192/172
f 150/193/173 165/204/173 164/194/173
f 166/199/176 165/204/176 150/193/176
f 178/200/177 177/222/177 162/201/177
f 171/192/178 186/203/178 185/202/178
f 164/194/179 179/205/179 178/200/179
f 172/198/180 187/209/180 186/203/180
f 165/204/181 180/226/181 179/205/181
f 181/210/184 180/226/184 165/204/184
f 174/211/185 173/206/185 158/195/185
f 182/212/186 181/210/186 166/199/186
f 175/213/187 174/211/187 159/182/187
f 168/214/188 183/219/188 182/212/188
f 176/215/189 175/213/189 160/184/189
f 184/216/190 183/219/190 168/214/190
f 162/201/191 177/222/191 176/215/191
f 170/191/192 185/202/192 184/216/192
f 197/217/193 196/231/193 181/210/193
f 175/213/194 190/246/194 189/218/194
f 183/219/195 198/247/195 197/217/195
f 191/220/196 190/246/196 175/213/196
f 199/221/197 198/247/197 183/219/197
f 177/222/198 192/250/198 191/220/198
f 185/202/199 200/233/199 199/221/199
f 193/223/200 192/250/200 177/222/200
f 201/224/201 200/233/201 185/202/201
f 179/205/202 194/227/202 193/223/202
f 202/225/203 201/224/203 186/203/203
f 180/226/204 195/236/204 194/227/204
f 196/231/207 195/236/207 180/226/207
f 174/211/208 189/218/208 188/228/208
f 201/224/209 216/235/209 215/232/209
f 194/227/210 209/237/210 208/234/210
f 202/225/211 217/241/211 216/235/211
f 195/236/212 210/259/212 209/237/212
f 211/242/215 210/259/215 195/236/215
f 204/243/216 203/238/216 188/228/216
f 212/244/217 211/242/217 196/231/217
f 205/245/218 204/243/218 189/218/218
f 198/247/219 213/251/219 212/244/219
f 206/248/220 205/245/220 190/246/220
f 214/249/221 213/251/221 198/247/221
f 192/250/222 207/255/222 206/248/222
f 200/233/223 215/232/223 214/249/223
f 208/234/224 207/255/224 192/250/224
f 213/251/225 228/277/225 227/252/225
f 221/253/226 220/267/226 205/245/226
f 229/254/227 228/277/227 213/251/227
f 207/255/228 222/280/228 221/253/228
f 215/232/229 230/257/229 229/254/229
f 223/256/230 222/280/230 207/255/230
f 216/235/231 231/258/231 230/257/231
f 209/237/232 224/260/232 223/256/232
f 217/241/233 232/264/233 231/258/233
f 210/259/234 225/269/234 224/260/234
f 226/265/237 225/269/237 210/259/237
f 219/266/238 218/261/238 203/238/238
f 227/252/239 226/265/239 211/242/239
f 220/267/240 219/266/240 204/243/240
f 247/268/241 246/289/241 231/258/241
f 225/269/242 240/291/242 239/270/242
f 241/274/245 240/291/245 225/269/245
f 219/266/246 234/297/246 233/271/246
f 242/275/247 241/274/247 226/265/247
f 235/276/248 234/297/248 219/266/248
f 228/277/249 243/285/249 242/275/249
f 236/278/250 235/276/250 220/267/250
f 244/279/251 243/285/251 228/277/251
f 222/280/252 237/286/252 236/278/252
f 230/257/253 245/282/253 244/279/253
f 238/281/254 237/286/254 222/280/254
f 231/258/255 246/289/255 245/282/255
f 224/260/256 239/270/256 238/281/256
f 251/283/257 250/309/257 235/276/257
f 259/284/258 258/310/258 243/285/258
f 237/286/259 252/313/259 251/283/259
f 245/282/260 260/314/260 259/284/260
f 253/287/261 252/313/261 237/286/261
f 261/288/262 260/314/262 245/282/262
f 239/270/263 254/292/263 253/287/263
f 262/290/264 261/288/264 246/289/264
f 240/291/520 255/300/520 254/292/520
f 256/296/521 255/300/521 240/291/521
f 234/297/269 249/299/269 248/293/269
f 257/298/270 256/296/270 241/274/270
f 235/276/271 250/309/271 249/299/271
f 243/285/272 258/310/272 257/298/272
f 255/300/273 270/325/273 269/301/273
f 271/306/276 270/325/276 255/300/276
f 249/299/277 264/332/277 263/302/277
f 272/307/278 271/306/278 256/296/278
f 265/308/279 264/332/279 249/299/279
f 258/310/280 273/318/280 272/307/280
f 266/311/281 265/308/281 250/309/281
f 274/312/282 273/318/282 258/310/282
f 252/313/283 267/319/283 266/311/283
f 260/314/284 275/316/284 274/312/284
f 268/315/285 267/319/285 252/313/285
f 261/288/286 276/323/286 275/316/286
f 254/292/287 269/301/287 268/315/287
f 277/305/288 276/323/288 261/288/288
f 289/317/289 288/343/289 273/318/289
f 267/319/290 282/346/290 281/320/290
f 275/316/291 290/347/291 289/317/291
f 283/321/292 282/346/292 267/319/292
f 291/322/522 290/347/522 275/316/522
f 269/301/294 284/326/294 283/321/294
f 292/324/295 291/322/295 276/323/295
f 270/325/296 285/340/296 284/326/296
f 286/330/299 285/340/299 270/325/299
f 279/331/300 278/327/300 263/302/300
f 287/333/301 286/330/301 271/306/301
f 280/334/523 279/331/523 264/332/523
f 273/318/303 288/343/303 287/333/303
f 281/320/304 280/334/304 265/308/304
f 301/339/307 300/358/307 285/340/307
f 294/341/308 293/335/308 278/327/308
f 302/342/309 301/339/309 286/330/309
f 280/334/310 295/365/310 294/341/310
f 288/343/311 303/367/311 302/342/311
f 296/344/312 295/365/312 280/334/312
f 304/345/313 303/367/313 288/343/313
f 282/346/314 297/351/314 296/344/314
f 290/347/315 305/353/315 304/345/315
f 298/348/316 297/351/316 282/346/316
f 306/349/317 305/353/317 290/347/317
f 284/326/318 299/350/318 298/348/318
f 292/324/319 307/338/319 306/349/319
f 285/340/320 300/358/320 299/350/320
f 297/351/321 313/377/321 312/352/321
f 305/353/322 321/378/322 320/354/322
f 314/355/323 313/377/323 297/351/323
f 322/356/324 321/378/324 305/353/324
f 299/350/325 315/359/325 314/355/325
f 323/357/326 322/356/326 306/349/326
f 300/358/327 316/369/327 315/359/327
f 317/363/330 316/369/330 300/358/330
f 294/341/331 310/366/331 309/360/331
f 318/364/332 317/363/332 301/339/332
f 295/365/333 311/373/333 310/366/333
f 303/367/334 319/374/334 318/364/334
f 312/352/335 311/373/335 295/365/335
f 320/354/336 319/374/336 303/367/336
f 332/368/337 331/391/337 316/369/337
f 325/370/338 324/382/338 309/360/338
f 333/371/339 332/368/339 317/363/339
f 326/372/340 325/370/340 310/366/340
f 319/374/341 334/400/341 333/371/341
f 327/375/342 326/372/342 311/373/342
f 335/376/343 334/400/343 319/374/343
f 313/377/344 328/389/344 327/375/344
f 321/378/345 336/386/345 335/376/345
f 329/379/346 328/389/346 313/377/346
f 337/380/524 336/386/524 321/378/524
f 315/359/348 330/381/348 329/379/348
f 323/357/349 338/385/349 337/380/349
f 316/369/350 331/391/350 330/381/350
f 336/386/353 351/409/353 350/387/353
f 344/388/354 343/408/354 328/389/354
f 352/390/355 351/409/355 336/386/355
f 330/381/356 345/392/356 344/388/356
f 338/385/357 353/396/357 352/390/357
f 331/391/358 346/412/358 345/392/358
f 347/397/361 346/412/361 331/391/361
f 340/398/362 339/393/362 324/382/362
f 348/399/363 347/397/363 332/368/363
f 326/372/364 341/403/364 340/398/364
f 334/400/365 349/405/365 348/399/365
f 342/401/366 341/403/366 326/372/366
f 350/387/367 349/405/367 334/400/367
f 328/389/368 343/408/368 342/401/368
f 363/402/369 362/418/369 347/397/369
f 341/403/370 356/555/370 355/404/370
f 349/405/371 364/556/371 363/402/371
f 357/406/372 356/555/372 341/403/372
f 365/407/373 364/556/373 349/405/373
f 343/408/374 358/557/374 357/406/374
f 351/409/375 366/558/375 365/407/375
f 359/410/376 358/557/376 343/408/376
f 367/411/377 366/558/377 351/409/377
f 345/392/378 360/413/378 359/410/378
f 353/396/379 368/417/379 367/411/379
f 346/412/525 361/559/525 360/413/525
f 362/418/526 361/559/526 346/412/526
f 355/404/384 354/414/384 339/393/384
f 382/419/385 381/453/385 366/420/385
f 360/422/386 375/428/386 374/423/386
f 383/425/387 382/419/387 367/421/387
f 361/427/527 376/457/527 375/428/527
f 377/433/528 376/457/528 361/427/528
f 355/435/392 370/439/392 369/430/392
f 378/436/393 377/433/393 362/434/393
f 356/438/394 371/446/394 370/439/394
f 364/440/395 379/448/395 378/436/395
f 372/441/396 371/446/396 356/438/396
f 380/443/397 379/448/397 364/440/397
f 358/445/398 373/452/398 372/441/398
f 366/420/399 381/453/399 380/443/399
f 374/423/400 373/452/400 358/445/400
f 371/446/401 386/474/401 385/447/401
f 379/448/402 394/475/402 393/449/402
f 387/450/403 386/474/403 371/446/403
f 395/451/404 394/475/404 379/448/404
f 373/452/405 388/478/405 387/450/405
f 381/453/406 396/479/406 395/451/406
f 389/454/407 388/478/407 373/452/407
f 397/455/408 396/479/408 381/453/408
f 375/428/409 390/458/409 389/454/409
f 398/456/410 397/455/410 382/419/410
f 376/457/411 391/465/411 390/458/411
f 392/462/414 391/465/414 376/457/414
f 370/439/415 385/447/415 384/459/415
f 393/449/416 392/462/416 377/433/416
f 390/458/417 405/466/417 404/463/417
f 398/456/418 413/470/418 412/464/418
f 391/465/419 406/490/419 405/466/419
f 407/471/422 406/490/422 391/465/422
f 400/472/423 399/467/423 384/459/423
f 408/473/424 407/471/424 392/462/424
f 386/474/425 401/483/425 400/472/425
f 394/475/426 409/480/426 408/473/426
f 402/476/427 401/483/427 386/474/427
f 410/477/428 409/480/428 394/475/428
f 388/478/429 403/485/429 402/476/429
f 396/479/430 411/486/430 410/477/430
f 404/463/431 403/485/431 388/478/431
f 412/464/432 411/486/432 396/479/432
f 409/480/433 424/508/433 423/481/433
f 417/482/434 416/507/434 401/483/434
f 425/484/435 424/508/435 409/480/435
f 403/485/436 418/511/436 417/482/436
f 411/486/437 426/512/437 425/484/437
f 419/487/438 418/511/438 403/485/438
f 427/488/439 426/512/439 411/486/439
f 405/466/440 420/491/440 419/487/440
f 428/489/441 427/488/441 412/464/441
f 406/490/442 421/498/442 420/491/442
f 422/495/445 421/498/445 406/490/445
f 415/496/446 414/492/446 399/467/446
f 423/481/447 422/495/447 407/471/447
f 401/483/448 416/507/448 415/496/448
f 428/489/449 443/503/449 442/497/449
f 421/498/450 436/523/450 435/499/450
f 437/504/453 436/523/453 421/498/453
f 430/505/454 429/500/454 414/492/454
f 438/506/455 437/504/455 422/495/455
f 416/507/456 431/515/456 430/505/456
f 424/508/457 439/517/457 438/506/457
f 432/509/458 431/515/458 416/507/458
f 440/510/459 439/517/459 424/508/459
f 418/511/460 433/518/460 432/509/460
f 426/512/461 441/519/461 440/510/461
f 434/513/462 433/518/462 418/511/462
f 442/497/463 441/519/463 426/512/463
f 420/491/464 435/499/464 434/513/464
f 447/514/465 446/540/465 431/515/465
f 455/516/466 454/541/466 439/517/466
f 433/518/467 448/544/467 447/514/467
f 441/519/468 456/545/468 455/516/468
f 449/520/469 448/544/469 433/518/469
f 457/521/470 456/545/470 441/519/470
f 435/499/471 450/524/471 449/520/471
f 458/522/472 457/521/472 442/497/472
f 436/523/473 451/531/473 450/524/473
f 452/528/476 451/531/476 436/523/476
f 430/505/477 445/530/477 444/525/477
f 453/529/478 452/528/478 437/504/478
f 431/515/479 446/540/479 445/530/479
f 439/517/480 454/541/480 453/529/480
f 451/531/481 466/551/481 465/532/481
f 467/537/484 466/551/484 451/531/484
f 460/538/485 459/533/485 444/525/485
f 468/539/486 467/537/486 452/528/486
f 446/540/487 461/554/487 460/538/487
f 454/541/488 469/548/488 468/539/488
f 462/542/489 461/554/489 446/540/489
f 470/543/490 469/548/490 454/541/490
f 448/544/491 463/549/491 462/542/491
f 456/545/492 471/550/492 470/543/492
f 464/546/493 463/549/493 448/544/493
f 472/547/494 471/550/494 456/545/494
f 450/524/495 465/532/495 464/546/495
f 458/522/496 473/536/496 472/547/496
f 479/1/497 6/3/497 469/548/497
f 463/549/498 2/6/498 476/5/498
f 471/550/499 480/8/499 479/1/499
f 464/546/500 477/9/500 2/6/500
f 481/11/501 480/8/501 471/550/501
f 465/532/502 3/12/502 477/9/502
f 482/15/503 481/11/503 472/547/503
f 466/551/504 4/17/504 3/12/504
f 5/23/507 4/17/507 466/551/507
f 475/24/508 474/18/508 459/533/508
f 478/26/509 5/23/509 467/537/509
f 461/554/510 1/27/510 475/24/510
f 6/3/511 478/26/511 468/539/511
f 462/542/512 476/5/512 1/27/512
