# Blender 4.4.1
# www.blender.org
mtllib lighthouse.mtl
o ICO球
v 0.145630 1.267537 0.448213
v -0.381275 1.267537 0.277009
v -0.381275 1.267537 -0.277009
v 0.145630 1.267537 -0.448213
v 0.471278 1.267535 0.000000
v -0.000000 1.586358 -0.000000
v 0.514559 1.020171 0.167188
v 0.514559 1.020171 -0.167188
v -0.000000 1.020170 0.541040
v 0.318016 1.020169 0.437712
v -0.514562 1.020170 0.167188
v -0.318017 1.020169 0.437712
v -0.318017 1.020169 -0.437712
v -0.514562 1.020170 -0.167188
v 0.318016 1.020169 -0.437712
v -0.000000 1.020170 -0.541040
v 0.379294 1.297349 0.275573
v -0.144880 1.297350 0.445886
v -0.468834 1.297349 0.000000
v -0.144880 1.297350 -0.445886
v 0.379294 1.297349 -0.275573
v 0.117677 1.445198 0.362179
v 0.380819 1.445198 0.000000
v -0.308089 1.445198 0.223837
v -0.308089 1.445198 -0.223837
v 0.117677 1.445198 -0.362179
v 0.000000 -1.000000 -1.000000
v 0.000000 0.384279 -0.666841
v 0.707107 -1.000000 -0.707107
v 0.471528 0.384279 -0.471528
v 1.000000 -1.000000 0.000000
v 0.666841 0.384279 0.000000
v 0.707107 -1.000000 0.707107
v 0.471528 0.384279 0.471528
v 0.000000 -1.000000 1.000000
v 0.000000 0.384279 0.666841
v -0.707107 -1.000000 0.707107
v -0.471528 0.384279 0.471528
v -1.000000 -1.000000 0.000000
v -0.666841 0.384279 0.000000
v -0.707107 -1.000000 -0.707107
v -0.471528 0.384279 -0.471528
v 0.000000 0.520896 -0.591070
v 0.000000 0.937381 -0.588098
v 0.417950 0.520896 -0.417950
v 0.415848 0.937381 -0.415848
v 0.591070 0.520896 0.000000
v 0.588098 0.937381 -0.000000
v 0.417950 0.520896 0.417950
v 0.415848 0.937381 0.415848
v 0.000000 0.520896 0.591070
v 0.000000 0.937381 0.588098
v -0.417950 0.520896 0.417950
v -0.415848 0.937381 0.415848
v -0.591070 0.520896 0.000000
v -0.588098 0.937381 -0.000000
v -0.417950 0.520896 -0.417950
v -0.415848 0.937381 -0.415848
v 0.000000 0.331820 -0.778145
v 0.000000 0.555855 -0.791010
v 0.550231 0.331820 -0.550231
v 0.559329 0.555855 -0.559329
v 0.778145 0.331820 0.000000
v 0.791010 0.555855 0.000000
v 0.550231 0.331820 0.550231
v 0.559329 0.555855 0.559329
v 0.000000 0.331820 0.778145
v 0.000000 0.555855 0.791010
v -0.550231 0.331820 0.550231
v -0.559329 0.555855 0.559329
v -0.778145 0.331820 0.000000
v -0.791010 0.555855 0.000000
v -0.550231 0.331820 -0.550231
v -0.559329 0.555855 -0.559329
v 0.000000 0.860543 -0.629065
v 0.000000 1.006485 -0.625901
v 0.444816 0.860543 -0.444816
v 0.442579 1.006485 -0.442579
v 0.629065 0.860543 0.000000
v 0.625901 1.006485 -0.000000
v 0.444816 0.860543 0.444816
v 0.442579 1.006485 0.442579
v 0.000000 0.860543 0.629065
v 0.000000 1.006485 0.625901
v -0.444816 0.860543 0.444816
v -0.442579 1.006485 0.442579
v -0.629065 0.860543 0.000000
v -0.625901 1.006485 -0.000000
v -0.444816 0.860543 -0.444816
v -0.442579 1.006485 -0.442579
v -0.000000 1.526800 -0.114035
v -0.000000 1.650506 -0.113462
v 0.080635 1.526800 -0.080635
v 0.080229 1.650506 -0.080229
v 0.114035 1.526800 -0.000000
v 0.113462 1.650506 -0.000000
v 0.080635 1.526800 0.080635
v 0.080229 1.650506 0.080229
v -0.000000 1.526800 0.114035
v -0.000000 1.650506 0.113462
v -0.080635 1.526800 0.080635
v -0.080229 1.650506 0.080229
v -0.114035 1.526800 -0.000000
v -0.113462 1.650506 -0.000000
v -0.080635 1.526800 -0.080635
v -0.080229 1.650506 -0.080229
vn -0.0000 -1.0000 -0.0000
vn 0.4965 0.4404 0.7480
vn -0.5580 0.4404 0.7034
vn -0.8414 0.4404 -0.3133
vn 0.0380 0.4404 -0.8970
vn 0.8649 0.4404 -0.2410
vn 0.3370 0.9091 -0.2448
vn 0.5477 0.7360 -0.3979
vn 0.4965 0.4404 -0.7480
vn -0.1287 0.9091 -0.3962
vn -0.2092 0.7360 -0.6438
vn -0.5580 0.4404 -0.7034
vn -0.4165 0.9091 -0.0000
vn -0.6770 0.7360 -0.0000
vn -0.8414 0.4404 0.3133
vn -0.1287 0.9091 0.3962
vn -0.2092 0.7360 0.6438
vn 0.0380 0.4404 0.8970
vn 0.3370 0.9091 0.2448
vn 0.5477 0.7360 0.3979
vn 0.8649 0.4404 0.2410
vn 0.9034 0.3372 -0.2650
vn 0.7982 0.1628 -0.5799
vn 0.5312 0.3372 -0.7772
vn 0.0271 0.3372 -0.9410
vn -0.3049 0.1628 -0.9384
vn -0.5750 0.3372 -0.7454
vn -0.8866 0.3372 -0.3165
vn -0.9867 0.1628 -0.0000
vn -0.8866 0.3372 0.3165
vn -0.5750 0.3372 0.7454
vn -0.3049 0.1628 0.9384
vn 0.0271 0.3372 0.9410
vn 0.5312 0.3372 0.7772
vn 0.7982 0.1628 0.5799
vn 0.9034 0.3372 0.2650
vn 0.3044 0.1724 -0.9368
vn -0.7969 0.1723 -0.5790
vn -0.7969 0.1723 0.5790
vn 0.3044 0.1724 0.9368
vn 0.9850 0.1724 -0.0000
vn 0.3736 0.2171 -0.9019
vn 0.9019 0.2171 -0.3736
vn 0.9019 0.2171 0.3736
vn 0.3736 0.2171 0.9019
vn -0.3736 0.2171 0.9019
vn -0.9019 0.2171 0.3736
vn -0.0000 1.0000 -0.0000
vn -0.9019 0.2171 -0.3736
vn -0.3736 0.2171 -0.9019
vn 0.3827 0.0066 -0.9239
vn 0.9239 0.0066 -0.3827
vn 0.9239 0.0066 0.3827
vn 0.3827 0.0066 0.9239
vn -0.3827 0.0066 0.9239
vn -0.9239 0.0066 0.3827
vn -0.9239 0.0066 -0.3827
vn -0.3827 0.0066 -0.9239
vn 0.3821 -0.0530 -0.9226
vn 0.9226 -0.0530 -0.3821
vn 0.9226 -0.0530 0.3821
vn 0.3821 -0.0530 0.9226
vn -0.3821 -0.0530 0.9226
vn -0.9226 -0.0530 0.3821
vn -0.9226 -0.0530 -0.3821
vn -0.3821 -0.0530 -0.9226
vn 0.3826 0.0200 -0.9237
vn 0.9237 0.0200 -0.3826
vn 0.9237 0.0200 0.3826
vn 0.3826 0.0200 0.9237
vn -0.3826 0.0200 0.9237
vn -0.9237 0.0200 0.3826
vn -0.9237 0.0200 -0.3826
vn -0.3826 0.0200 -0.9237
vn 0.3827 0.0043 -0.9239
vn 0.9239 0.0043 -0.3827
vn 0.9239 0.0043 0.3827
vn 0.3827 0.0043 0.9239
vn -0.3827 0.0043 0.9239
vn -0.9239 0.0043 0.3827
vn -0.9239 0.0043 -0.3827
vn -0.3827 0.0043 -0.9239
vt 0.334026 0.673250
vt 0.363339 0.763466
vt 0.286598 0.819222
vt 0.898587 0.488845
vt 0.900440 0.531439
vt 0.869321 0.497947
vt 0.808990 0.569181
vt 0.811251 0.610700
vt 0.780209 0.577406
vt 0.424842 0.843587
vt 0.444997 0.804469
vt 0.453831 0.851716
vt 0.424841 0.926818
vt 0.422838 0.885203
vt 0.453831 0.918690
vt 0.898172 0.573059
vt 0.877862 0.611913
vt 0.869321 0.564813
vt 0.323512 0.927355
vt 0.257586 0.948774
vt 0.275808 0.892695
vt 0.300998 0.970226
vt 0.444996 0.965938
vt 0.216842 0.892695
vt 0.257586 0.836616
vt 0.209856 0.844778
vt 0.788729 0.530421
vt 0.323512 0.858037
vt 0.780209 0.644109
vt 0.809404 0.653190
vt 0.927839 0.607197
vt 0.905841 0.653592
vt 0.394825 0.960893
vt 0.382365 0.910910
vt 0.382365 0.859496
vt 0.394825 0.809513
vt 0.816640 0.488845
vt 0.838584 0.535126
vt 0.851298 0.584662
vt 0.851927 0.635641
vt 0.941215 0.506437
vt 0.940584 0.557541
vt 0.841998 0.685652
vt 0.462656 0.216146
vt 0.271522 0.347477
vt 0.251162 0.235160
vt 0.008697 0.291043
vt 0.233768 0.235160
vt 0.213407 0.347477
vt 0.022274 0.216146
vt 0.233768 0.121014
vt 0.022274 0.140028
vt 0.213407 0.008697
vt 0.548377 0.198198
vt 0.767540 0.122385
vt 0.757319 0.236074
vt 0.555193 0.122385
vt 0.757319 0.008697
vt 0.008697 0.787782
vt 0.062521 0.657840
vt 0.192462 0.711664
vt 0.476233 0.065131
vt 0.251162 0.121013
vt 0.271522 0.008697
vt 0.462656 0.140028
vt 0.089411 0.640446
vt 0.008697 0.445585
vt 0.203558 0.364871
vt 0.382732 0.432509
vt 0.444480 0.364871
vt 0.444848 0.432339
vt 0.444848 0.585179
vt 0.382365 0.652138
vt 0.382734 0.584670
vt 0.444481 0.652307
vt 0.382365 0.719607
vt 0.444481 0.719437
vt 0.382734 0.787074
vt 0.991303 0.721016
vt 0.929003 0.788145
vt 0.929187 0.720676
vt 0.991119 0.788145
vt 0.929188 0.855613
vt 0.832402 0.170762
vt 0.784934 0.056165
vt 0.899531 0.008697
vt 0.382365 0.566767
vt 0.444848 0.499808
vt 0.444480 0.567276
vt 0.382732 0.499638
vt 0.831462 0.416352
vt 0.783754 0.301176
vt 0.898931 0.253468
vt 0.530983 0.189193
vt 0.493627 0.277196
vt 0.497524 0.188459
vt 0.527022 0.296792
vt 0.497524 0.387730
vt 0.493627 0.298993
vt 0.530983 0.386996
vt 0.497524 0.476553
vt 0.530983 0.477287
vt 0.493627 0.565290
vt 0.527062 0.584886
vt 0.495576 0.675156
vt 0.493627 0.586354
vt 0.529043 0.675156
vt 0.493627 0.763957
vt 0.766360 0.407605
vt 0.702514 0.471451
vt 0.612223 0.253468
vt 0.527022 0.008697
vt 0.497524 0.099636
vt 0.493627 0.010899
vt 0.530983 0.098902
vt 0.700007 0.703282
vt 0.548377 0.640475
vt 0.611185 0.488845
vt 0.302851 0.436848
vt 0.323431 0.364871
vt 0.324622 0.436667
vt 0.363780 0.580269
vt 0.343201 0.508292
vt 0.364971 0.508473
vt 0.364971 0.436667
vt 0.342016 0.365413
vt 0.363780 0.364871
vt 0.515990 0.783181
vt 0.493627 0.854623
vt 0.494222 0.782820
vt 0.515990 0.926065
vt 0.494222 0.926426
vt 0.739126 0.771195
vt 0.789645 0.720676
vt 0.861090 0.893159
vt 0.301666 0.579727
vt 0.324622 0.508473
vt 0.323431 0.580269
vt 0.599152 0.720676
vt 0.670958 0.720676
vt 0.599152 0.894031
vt 0.356006 0.623664
vt 0.337602 0.636713
vt 0.337556 0.623696
vt 0.301666 0.636615
vt 0.320162 0.623696
vt 0.320116 0.636713
vt 0.301712 0.610712
vt 0.320162 0.610680
vt 0.301666 0.597761
vt 0.320116 0.597663
vt 0.832574 0.459715
vt 0.851046 0.446763
vt 0.851023 0.459780
vt 0.832597 0.446763
vt 0.851023 0.433747
vt 0.784934 0.197314
vt 0.794092 0.188156
vt 0.807043 0.219424
vt 0.337602 0.597663
vt 0.356006 0.610712
vt 0.337556 0.610680
vt 0.805975 0.433747
vt 0.815179 0.455968
vt 0.792958 0.465172
vt 0.363339 0.713596
vt 0.334027 0.803811
vt 0.239170 0.803812
vt 0.209856 0.763466
vt 0.209856 0.713597
vt 0.239169 0.673251
vt 0.286598 0.657840
vt 0.476233 0.291043
vt 0.008697 0.065131
vt 0.548377 0.046573
vt 0.192462 0.787782
vt 0.138638 0.841605
vt 0.062521 0.841605
vt 0.008697 0.711664
vt 0.138638 0.657840
vt 0.284272 0.445585
vt 0.284272 0.559732
vt 0.203558 0.640446
vt 0.008697 0.559732
vt 0.089411 0.364871
vt 0.382365 0.365380
vt 0.444848 0.786565
vt 0.991303 0.855274
vt 0.946999 0.056165
vt 0.946999 0.123294
vt 0.899531 0.170762
vt 0.784934 0.123294
vt 0.832402 0.008697
vt 0.946638 0.301176
vt 0.946638 0.368645
vt 0.898931 0.416352
vt 0.783754 0.368645
vt 0.831462 0.253468
vt 0.527022 0.279397
vt 0.527022 0.567492
vt 0.527062 0.765425
vt 0.612223 0.471451
vt 0.548377 0.407605
vt 0.548377 0.317314
vt 0.702514 0.253468
vt 0.766360 0.317314
vt 0.700007 0.488845
vt 0.762815 0.551652
vt 0.762815 0.640475
vt 0.611185 0.703282
vt 0.548377 0.551652
vt 0.301666 0.365413
vt 0.342016 0.579727
vt 0.343201 0.436848
vt 0.515398 0.854623
vt 0.861090 0.720676
vt 0.911609 0.771195
vt 0.911609 0.842640
vt 0.789645 0.893159
vt 0.739126 0.842640
vt 0.302851 0.508292
vt 0.721732 0.771451
vt 0.721732 0.843257
vt 0.670958 0.894031
vt 0.548377 0.843257
vt 0.548377 0.771451
vt 0.356052 0.636615
vt 0.301712 0.623664
vt 0.832574 0.433812
vt 0.807043 0.188156
vt 0.816201 0.197314
vt 0.816201 0.210266
vt 0.794092 0.219424
vt 0.784934 0.210266
vt 0.356052 0.597761
vt 0.815179 0.442951
vt 0.805975 0.465172
vt 0.783754 0.455968
vt 0.783754 0.442951
vt 0.792958 0.433747
s 0
usemtl マテリアル
f 14/1/1 16/2/1 8/3/1
f 1/4/2 17/5/2 22/6/2
f 2/7/3 18/8/3 24/9/3
f 3/10/4 19/11/4 25/12/4
f 4/13/5 20/14/5 26/15/5
f 5/16/6 21/17/6 23/18/6
f 23/19/7 26/20/7 6/21/7
f 23/19/8 21/22/8 26/20/8
f 21/23/9 4/13/9 26/15/9
f 26/20/10 25/24/10 6/21/10
f 26/15/11 20/14/11 25/12/11
f 20/14/12 3/10/12 25/12/12
f 25/24/13 24/25/13 6/21/13
f 25/24/14 19/26/14 24/25/14
f 19/27/15 2/7/15 24/9/15
f 24/25/16 22/28/16 6/21/16
f 24/9/17 18/8/17 22/29/17
f 18/8/18 1/30/18 22/29/18
f 22/28/19 23/19/19 6/21/19
f 22/6/20 17/5/20 23/18/20
f 17/5/21 5/16/21 23/18/21
f 8/31/22 21/17/22 5/16/22
f 8/31/23 15/32/23 21/17/23
f 15/33/24 4/13/24 21/23/24
f 16/34/25 20/14/25 4/13/25
f 16/34/26 13/35/26 20/14/26
f 13/35/27 3/10/27 20/14/27
f 14/36/28 19/11/28 3/10/28
f 14/37/29 11/38/29 19/27/29
f 11/38/30 2/7/30 19/27/30
f 12/39/31 18/8/31 2/7/31
f 12/39/32 9/40/32 18/8/32
f 9/40/33 1/30/33 18/8/33
f 10/41/34 17/5/34 1/4/34
f 10/41/35 7/42/35 17/5/35
f 7/42/36 5/16/36 17/5/36
f 15/33/37 16/34/37 4/13/37
f 13/35/38 14/36/38 3/10/38
f 11/38/39 12/39/39 2/7/39
f 9/40/40 10/43/40 1/30/40
f 7/42/41 8/31/41 5/16/41
f 28/44/42 29/45/42 27/46/42
f 30/47/43 31/48/43 29/49/43
f 32/50/44 33/51/44 31/48/44
f 34/52/45 35/53/45 33/51/45
f 36/54/46 37/55/46 35/56/46
f 38/57/47 39/58/47 37/55/47
f 40/59/48 36/60/48 32/61/48
f 40/62/49 41/63/49 39/64/49
f 42/65/50 27/46/50 41/63/50
f 33/66/1 37/67/1 41/68/1
f 44/69/51 45/70/51 43/71/51
f 46/72/52 47/73/52 45/74/52
f 48/75/53 49/76/53 47/73/53
f 50/77/54 51/78/54 49/76/54
f 52/79/55 53/80/55 51/81/55
f 54/82/56 55/83/56 53/80/56
f 56/84/48 52/85/48 48/86/48
f 56/87/57 57/88/57 55/89/57
f 58/90/58 43/71/58 57/88/58
f 49/91/1 53/92/1 57/93/1
f 60/94/59 61/95/59 59/96/59
f 62/97/60 63/98/60 61/99/60
f 64/100/61 65/101/61 63/98/61
f 66/102/62 67/103/62 65/101/62
f 68/104/63 69/105/63 67/106/63
f 70/107/64 71/108/64 69/105/64
f 66/109/48 64/110/48 72/111/48
f 72/112/65 73/113/65 71/114/65
f 74/115/66 59/96/66 73/113/66
f 65/116/1 69/117/1 73/118/1
f 76/119/67 77/120/67 75/121/67
f 77/122/68 80/123/68 79/124/68
f 80/123/69 81/125/69 79/124/69
f 81/125/70 84/126/70 83/127/70
f 84/128/71 85/129/71 83/130/71
f 85/129/72 88/131/72 87/132/72
f 82/133/48 80/134/48 88/135/48
f 88/136/73 89/137/73 87/138/73
f 89/137/74 76/119/74 75/121/74
f 87/139/1 89/140/1 81/141/1
f 92/142/75 93/143/75 91/144/75
f 94/145/76 95/146/76 93/147/76
f 95/146/77 98/148/77 97/149/77
f 97/149/78 100/150/78 99/151/78
f 100/152/79 101/153/79 99/154/79
f 102/155/80 103/156/80 101/153/80
f 98/157/48 96/158/48 104/159/48
f 103/160/81 106/161/81 105/162/81
f 106/161/82 91/144/82 105/162/82
f 105/163/1 93/164/1 97/165/1
f 14/1/1 13/166/1 16/2/1
f 16/2/1 15/167/1 8/3/1
f 8/3/1 7/168/1 10/169/1
f 10/169/1 9/170/1 8/3/1
f 9/170/1 12/171/1 8/3/1
f 12/171/1 11/172/1 8/3/1
f 11/172/1 14/1/1 8/3/1
f 28/44/42 30/173/42 29/45/42
f 30/47/43 32/50/43 31/48/43
f 32/50/44 34/52/44 33/51/44
f 34/52/45 36/174/45 35/53/45
f 36/54/46 38/57/46 37/55/46
f 38/57/47 40/175/47 39/58/47
f 32/61/48 30/176/48 28/177/48
f 28/177/48 42/178/48 40/59/48
f 40/59/48 38/179/48 36/60/48
f 36/60/48 34/180/48 32/61/48
f 32/61/48 28/177/48 40/59/48
f 40/62/49 42/65/49 41/63/49
f 42/65/50 28/44/50 27/46/50
f 41/68/1 27/181/1 29/182/1
f 29/182/1 31/183/1 33/66/1
f 33/66/1 35/184/1 37/67/1
f 37/67/1 39/185/1 41/68/1
f 41/68/1 29/182/1 33/66/1
f 44/69/51 46/186/51 45/70/51
f 46/72/52 48/75/52 47/73/52
f 48/75/53 50/77/53 49/76/53
f 50/77/54 52/187/54 51/78/54
f 52/79/55 54/82/55 53/80/55
f 54/82/56 56/188/56 55/83/56
f 48/86/48 46/189/48 44/190/48
f 44/190/48 58/191/48 56/84/48
f 56/84/48 54/192/48 52/85/48
f 52/85/48 50/193/48 48/86/48
f 48/86/48 44/190/48 56/84/48
f 56/87/57 58/90/57 57/88/57
f 58/90/58 44/69/58 43/71/58
f 57/93/1 43/194/1 45/195/1
f 45/195/1 47/196/1 49/91/1
f 49/91/1 51/197/1 53/92/1
f 53/92/1 55/198/1 57/93/1
f 57/93/1 45/195/1 49/91/1
f 60/94/59 62/199/59 61/95/59
f 62/97/60 64/100/60 63/98/60
f 64/100/61 66/102/61 65/101/61
f 66/102/62 68/200/62 67/103/62
f 68/104/63 70/107/63 69/105/63
f 70/107/64 72/201/64 71/108/64
f 64/110/48 62/202/48 60/203/48
f 60/203/48 74/204/48 64/110/48
f 74/204/48 72/111/48 64/110/48
f 72/111/48 70/205/48 68/206/48
f 68/206/48 66/109/48 72/111/48
f 72/112/65 74/115/65 73/113/65
f 74/115/66 60/94/66 59/96/66
f 73/118/1 59/207/1 61/208/1
f 61/208/1 63/209/1 65/116/1
f 65/116/1 67/210/1 69/117/1
f 69/117/1 71/211/1 73/118/1
f 73/118/1 61/208/1 65/116/1
f 76/119/67 78/212/67 77/120/67
f 77/122/68 78/213/68 80/123/68
f 80/123/69 82/214/69 81/125/69
f 81/125/70 82/214/70 84/126/70
f 84/128/71 86/215/71 85/129/71
f 85/129/72 86/215/72 88/131/72
f 80/134/48 78/216/48 76/217/48
f 76/217/48 90/218/48 80/134/48
f 90/218/48 88/135/48 80/134/48
f 88/135/48 86/219/48 84/220/48
f 84/220/48 82/133/48 88/135/48
f 88/136/73 90/221/73 89/137/73
f 89/137/74 90/221/74 76/119/74
f 89/140/1 75/222/1 77/223/1
f 77/223/1 79/224/1 89/140/1
f 79/224/1 81/141/1 89/140/1
f 81/141/1 83/225/1 85/226/1
f 85/226/1 87/139/1 81/141/1
f 92/142/75 94/227/75 93/143/75
f 94/145/76 96/228/76 95/146/76
f 95/146/77 96/228/77 98/148/77
f 97/149/78 98/148/78 100/150/78
f 100/152/79 102/155/79 101/153/79
f 102/155/80 104/229/80 103/156/80
f 96/158/48 94/230/48 104/159/48
f 94/230/48 92/231/48 104/159/48
f 92/231/48 106/232/48 104/159/48
f 104/159/48 102/233/48 100/234/48
f 100/234/48 98/157/48 104/159/48
f 103/160/81 104/235/81 106/161/81
f 106/161/82 92/142/82 91/144/82
f 105/163/1 91/236/1 93/164/1
f 93/164/1 95/237/1 97/165/1
f 97/165/1 99/238/1 101/239/1
f 101/239/1 103/240/1 97/165/1
f 103/240/1 105/163/1 97/165/1
