# Blender 4.4.1
# www.blender.org
mtllib enemy.mtl
o 円.001
v 0.786101 0.500156 -0.962595
v 0.884685 0.504659 -0.971276
v 0.982253 0.489768 -0.979832
v 1.075056 0.456055 -0.987933
v 1.159526 0.404817 -0.995269
v 1.232419 0.338022 -1.001559
v 1.290932 0.258236 -1.006559
v 1.332818 0.168527 -1.010078
v 0.360024 -0.072342 -0.924059
v 0.355523 0.026624 -0.923846
v 0.370340 0.124566 -0.925330
v 0.403908 0.217722 -0.928454
v 0.454936 0.302510 -0.933099
v 0.521462 0.375673 -0.939086
v 0.600931 0.434400 -0.946185
v 0.690289 0.476432 -0.954123
v 0.878550 0.504530 -1.041021
v 0.779965 0.500027 -1.032341
v 0.976118 0.489639 -1.049577
v 1.068920 0.455927 -1.057678
v 1.153391 0.404688 -1.065015
v 1.226284 0.337893 -1.071304
v 1.284797 0.258108 -1.076304
v 1.326682 0.168399 -1.079823
v 0.353889 -0.072470 -0.993804
v 0.349387 0.026495 -0.993591
v 0.364205 0.124438 -0.995075
v 0.397773 0.217593 -0.998199
v 0.448800 0.302382 -1.002844
v 0.515327 0.375545 -1.008831
v 0.594796 0.434271 -1.015930
v 0.684153 0.476304 -1.023868
v 0.024485 0.944864 0.627726
v 0.024485 0.646893 0.931215
v 0.024485 0.257574 1.095462
v 0.024485 0.046877 1.116598
v 0.024485 -0.163821 1.095462
v 0.024485 -0.553139 0.931215
v -0.016620 1.106125 0.227074
v -0.056146 1.044667 0.429462
v -0.092573 0.944864 0.615983
v -0.124501 0.810552 0.779470
v -0.150704 0.646893 0.913641
v -0.170175 0.460175 1.013339
v -0.182164 0.257574 1.074732
v -0.186213 0.046877 1.095462
v -0.182164 -0.163821 1.074732
v -0.170174 -0.366421 1.013339
v -0.150704 -0.553139 0.913641
v -0.124501 -0.716799 0.779470
v -0.092573 -0.851111 0.615983
v -0.056146 -0.950913 0.429462
v -0.016620 -1.012372 0.227074
v -0.056146 1.106125 0.214862
v -0.133678 1.044667 0.405507
v -0.205132 0.944864 0.581206
v -0.267761 0.810552 0.735208
v -0.319160 0.646893 0.861594
v -0.357353 0.460175 0.955507
v -0.380872 0.257574 1.013339
v -0.388813 0.046877 1.032866
v -0.380872 -0.163821 1.013339
v -0.357353 -0.366421 0.955507
v -0.319160 -0.553139 0.861594
v -0.267761 -0.716799 0.735208
v -0.205132 -0.851111 0.581206
v -0.133678 -0.950913 0.405507
v -0.056146 -1.012372 0.214862
v -0.092573 1.106125 0.195031
v -0.205132 1.044667 0.366607
v -0.308867 0.944864 0.524732
v -0.399791 0.810552 0.663330
v -0.474410 0.646893 0.777074
v -0.529858 0.460175 0.861594
v -0.564002 0.257574 0.913641
v -0.575531 0.046877 0.931215
v -0.564002 -0.163821 0.913641
v -0.529858 -0.366421 0.861594
v -0.474410 -0.553139 0.777074
v -0.399791 -0.716799 0.663330
v -0.308866 -0.851111 0.524732
v -0.205132 -0.950913 0.366607
v -0.092573 -1.012372 0.195031
v -0.124501 1.106125 0.168343
v -0.267761 1.044667 0.314256
v -0.399791 0.944864 0.448730
v -0.515516 0.810552 0.566598
v -0.610488 0.646893 0.663330
v -0.681059 0.460175 0.735208
v -0.724517 0.257574 0.779470
v -0.739191 0.046877 0.794416
v -0.724517 -0.163821 0.779470
v -0.681060 -0.366421 0.735208
v -0.610488 -0.553139 0.663330
v -0.515516 -0.716799 0.566599
v -0.399791 -0.851111 0.448730
v -0.267762 -0.950913 0.314256
v -0.124501 -1.012371 0.168343
v -0.150704 1.106125 0.135823
v -0.319160 1.044667 0.250466
v -0.474411 0.944864 0.356122
v -0.610488 0.810552 0.448731
v -0.722165 0.646893 0.524732
v -0.805148 0.460175 0.581206
v -0.856248 0.257574 0.615983
v -0.873503 0.046877 0.627725
v -0.856248 -0.163821 0.615983
v -0.805148 -0.366421 0.581206
v -0.722165 -0.553139 0.524732
v -0.610488 -0.716799 0.448731
v -0.474410 -0.851111 0.356122
v -0.319160 -0.950913 0.250466
v -0.150704 -1.012371 0.135823
v 0.024485 1.126877 0.016598
v -0.170175 1.106125 0.098722
v -0.357353 1.044667 0.177690
v -0.529858 0.944864 0.250466
v -0.681060 0.810552 0.314256
v -0.805148 0.646893 0.366607
v -0.897354 0.460175 0.405507
v -0.954133 0.257574 0.429462
v -0.973306 0.046877 0.437550
v -0.954133 -0.163821 0.429462
v -0.897353 -0.366421 0.405507
v -0.805148 -0.553139 0.366607
v -0.681060 -0.716799 0.314256
v -0.529858 -0.851111 0.250466
v -0.357353 -0.950913 0.177689
v -0.170174 -1.012372 0.098722
v -0.182164 1.106125 0.058464
v -0.380872 1.044667 0.098722
v -0.564002 0.944864 0.135823
v -0.724517 0.810552 0.168343
v -0.856248 0.646893 0.195031
v -0.954134 0.460175 0.214862
v -1.014411 0.257574 0.227074
v -1.034764 0.046877 0.231197
v -1.014411 -0.163821 0.227074
v -0.954134 -0.366421 0.214862
v -0.856248 -0.553139 0.195031
v -0.724517 -0.716799 0.168343
v -0.564002 -0.851111 0.135823
v -0.380872 -0.950913 0.098722
v -0.182164 -1.012371 0.058464
v -0.186213 1.106125 0.016598
v -0.388814 1.044667 0.016598
v -0.575531 0.944864 0.016598
v -0.739191 0.810552 0.016598
v -0.873503 0.646893 0.016598
v -0.973306 0.460175 0.016598
v -1.034764 0.257574 0.016598
v -1.055516 0.046877 0.016598
v -1.034764 -0.163821 0.016598
v -0.973306 -0.366421 0.016598
v -0.873503 -0.553139 0.016598
v -0.739191 -0.716799 0.016598
v -0.575531 -0.851111 0.016598
v -0.388814 -0.950913 0.016598
v -0.186213 -1.012371 0.016598
v -0.182165 1.106125 -0.025268
v -0.380872 1.044667 -0.065526
v -0.564002 0.944864 -0.102627
v -0.724517 0.810552 -0.135146
v -0.856248 0.646893 -0.161835
v -0.954134 0.460175 -0.181666
v -1.014411 0.257574 -0.193878
v -1.034764 0.046877 -0.198001
v -1.014411 -0.163821 -0.193878
v -0.954133 -0.366421 -0.181666
v -0.856248 -0.553139 -0.161835
v -0.724517 -0.716799 -0.135146
v -0.564002 -0.851111 -0.102627
v -0.380872 -0.950913 -0.065525
v -0.182164 -1.012371 -0.025268
v -0.170174 1.106125 -0.065526
v -0.357353 1.044667 -0.144493
v -0.529858 0.944864 -0.217270
v -0.681060 0.810552 -0.281060
v -0.805148 0.646893 -0.333411
v -0.897354 0.460175 -0.372311
v -0.954133 0.257574 -0.396265
v -0.973306 0.046877 -0.404354
v -0.954133 -0.163821 -0.396265
v -0.897354 -0.366421 -0.372311
v -0.805148 -0.553139 -0.333411
v -0.681060 -0.716799 -0.281060
v -0.529858 -0.851111 -0.217270
v -0.357353 -0.950913 -0.144493
v -0.170175 -1.012372 -0.065526
v -0.150704 1.106125 -0.102627
v -0.319160 1.044667 -0.217270
v -0.474411 0.944864 -0.322926
v -0.610489 0.810552 -0.415534
v -0.722165 0.646893 -0.491536
v -0.805148 0.460175 -0.548010
v -0.856248 0.257574 -0.582787
v -0.873503 0.046877 -0.594529
v -0.856248 -0.163821 -0.582787
v -0.805148 -0.366421 -0.548010
v -0.722165 -0.553139 -0.491536
v -0.610489 -0.716799 -0.415534
v -0.474411 -0.851111 -0.322926
v -0.319160 -0.950913 -0.217270
v -0.150704 -1.012371 -0.102627
v -0.124501 1.106125 -0.135147
v -0.267761 1.044667 -0.281060
v -0.399791 0.944864 -0.415534
v -0.515516 0.810552 -0.533402
v -0.610488 0.646893 -0.630133
v -0.681060 0.460175 -0.702012
v -0.724517 0.257574 -0.746274
v -0.739191 0.046877 -0.761219
v -0.724517 -0.163821 -0.746274
v -0.681060 -0.366421 -0.702012
v -0.610488 -0.553139 -0.630133
v -0.515516 -0.716799 -0.533402
v -0.399791 -0.851111 -0.415534
v -0.267761 -0.950913 -0.281060
v -0.124501 -1.012371 -0.135147
v -0.092573 1.106125 -0.161835
v -0.205132 1.044667 -0.333411
v -0.308866 0.944864 -0.491536
v -0.399791 0.810552 -0.630134
v -0.474411 0.646893 -0.743878
v -0.529858 0.460175 -0.828398
v -0.564002 0.257574 -0.880444
v -0.575531 0.046877 -0.898018
v -0.564002 -0.163821 -0.880444
v -0.529858 -0.366421 -0.828397
v -0.474410 -0.553139 -0.743878
v -0.399791 -0.716799 -0.630134
v -0.308867 -0.851111 -0.491536
v -0.205132 -0.950913 -0.333411
v -0.092573 -1.012372 -0.161835
v -0.056146 1.106125 -0.181666
v -0.133678 1.044667 -0.372311
v -0.205132 0.944864 -0.548010
v -0.267761 0.810552 -0.702012
v -0.319160 0.646893 -0.828397
v -0.357353 0.460175 -0.922311
v -0.380872 0.257574 -0.980142
v -0.388813 0.046877 -0.999669
v -0.380872 -0.163821 -0.980142
v -0.357353 -0.366421 -0.922311
v -0.319160 -0.553139 -0.828397
v -0.267761 -0.716799 -0.702012
v -0.205131 -0.851111 -0.548010
v -0.133678 -0.950913 -0.372311
v -0.056146 -1.012371 -0.181666
v -0.016620 1.106125 -0.193878
v -0.056146 1.044667 -0.396265
v -0.092573 0.944864 -0.582786
v -0.124501 0.810552 -0.746274
v -0.150704 0.646893 -0.880444
v -0.170175 0.460175 -0.980142
v -0.182164 0.257574 -1.041535
v -0.186213 0.046877 -1.062266
v -0.182165 -0.163821 -1.041536
v -0.170175 -0.366421 -0.980142
v -0.150704 -0.553139 -0.880444
v -0.124501 -0.716799 -0.746274
v -0.092573 -0.851111 -0.582787
v -0.056146 -0.950913 -0.396265
v -0.016621 -1.012371 -0.193878
v 0.024485 1.106125 -0.198001
v 0.024485 1.044667 -0.404354
v 0.024485 0.944864 -0.594529
v 0.024484 0.810552 -0.761220
v 0.024485 0.646893 -0.898018
v 0.024484 0.460175 -0.999669
v 0.024485 0.257574 -1.062266
v 0.024485 0.046877 -1.083402
v 0.024485 -0.163821 -1.062266
v 0.024484 -0.366421 -0.999670
v 0.024485 -0.553139 -0.898018
v 0.024485 -0.716799 -0.761220
v 0.024485 -0.851111 -0.594529
v 0.024485 -0.950913 -0.404354
v 0.024485 -1.012372 -0.198001
v 0.065590 1.106125 -0.193878
v 0.105115 1.044667 -0.396265
v 0.141542 0.944864 -0.582786
v 0.173470 0.810552 -0.746274
v 0.199673 0.646893 -0.880444
v 0.219144 0.460175 -0.980142
v 0.231134 0.257574 -1.041536
v 0.235182 0.046877 -1.062265
v 0.231134 -0.163821 -1.041536
v 0.219144 -0.366421 -0.980142
v 0.199673 -0.553139 -0.880444
v 0.173470 -0.716799 -0.746274
v 0.141542 -0.851111 -0.582787
v 0.105115 -0.950913 -0.396265
v 0.065590 -1.012372 -0.193878
v 0.105115 1.106125 -0.181666
v 0.182647 1.044667 -0.372311
v 0.254101 0.944864 -0.548010
v 0.316730 0.810552 -0.702012
v 0.368129 0.646893 -0.828397
v 0.406322 0.460175 -0.922311
v 0.429841 0.257574 -0.980142
v 0.437783 0.046877 -0.999669
v 0.429841 -0.163821 -0.980142
v 0.406322 -0.366421 -0.922311
v 0.368129 -0.553139 -0.828397
v 0.316730 -0.716799 -0.702012
v 0.254101 -0.851111 -0.548010
v 0.182647 -0.950913 -0.372311
v 0.105115 -1.012371 -0.181666
v 0.141542 1.106125 -0.161835
v 0.254101 1.044667 -0.333411
v 0.357836 0.944864 -0.491536
v 0.448760 0.810552 -0.630134
v 0.523380 0.646893 -0.743878
v 0.578827 0.460175 -0.828398
v 0.612971 0.257574 -0.880444
v 0.624501 0.046877 -0.898018
v 0.612971 -0.163821 -0.880444
v 0.578827 -0.366421 -0.828398
v 0.523380 -0.553139 -0.743878
v 0.448760 -0.716799 -0.630134
v 0.357836 -0.851111 -0.491536
v 0.254101 -0.950913 -0.333411
v 0.141542 -1.012372 -0.161835
v 0.173470 1.106125 -0.135146
v 0.316731 1.044667 -0.281060
v 0.448760 0.944864 -0.415534
v 0.564485 0.810552 -0.533402
v 0.659457 0.646893 -0.630133
v 0.730029 0.460175 -0.702012
v 0.773486 0.257574 -0.746274
v 0.788160 0.046877 -0.761219
v 0.773486 -0.163821 -0.746274
v 0.730029 -0.366421 -0.702012
v 0.659458 -0.553139 -0.630133
v 0.564485 -0.716799 -0.533402
v 0.448760 -0.851111 -0.415534
v 0.316731 -0.950913 -0.281060
v 0.173470 -1.012372 -0.135146
v 0.024485 -1.033123 0.016598
v 0.199673 1.106125 -0.102627
v 0.368129 1.044667 -0.217270
v 0.523380 0.944864 -0.322926
v 0.659458 0.810552 -0.415534
v 0.771134 0.646893 -0.491536
v 0.854117 0.460175 -0.548010
v 0.905217 0.257574 -0.582787
v 0.922472 0.046877 -0.594529
v 0.905217 -0.163821 -0.582787
v 0.854117 -0.366421 -0.548010
v 0.771134 -0.553139 -0.491536
v 0.659458 -0.716799 -0.415534
v 0.523380 -0.851111 -0.322926
v 0.368130 -0.950913 -0.217270
v 0.199673 -1.012372 -0.102627
v 0.219144 1.106125 -0.065526
v 0.406322 1.044667 -0.144493
v 0.578827 0.944864 -0.217270
v 0.730029 0.810552 -0.281060
v 0.854117 0.646893 -0.333410
v 0.946322 0.460175 -0.372311
v 1.003103 0.257574 -0.396265
v 1.022274 0.046877 -0.404353
v 1.003102 -0.163821 -0.396265
v 0.946323 -0.366421 -0.372311
v 0.854117 -0.553139 -0.333410
v 0.730029 -0.716799 -0.281060
v 0.578827 -0.851111 -0.217270
v 0.406322 -0.950913 -0.144493
v 0.219144 -1.012371 -0.065526
v 0.231134 1.106125 -0.025268
v 0.429841 1.044667 -0.065526
v 0.612971 0.944864 -0.102627
v 0.773486 0.810552 -0.135147
v 0.905217 0.646893 -0.161835
v 1.003102 0.460175 -0.181666
v 1.063380 0.257574 -0.193878
v 1.083732 0.046877 -0.198001
v 1.063380 -0.163821 -0.193878
v 1.003103 -0.366421 -0.181666
v 0.905217 -0.553139 -0.161835
v 0.773486 -0.716799 -0.135147
v 0.612971 -0.851111 -0.102627
v 0.429841 -0.950913 -0.065526
v 0.231134 -1.012372 -0.025268
v 0.235182 1.106125 0.016598
v 0.437783 1.044667 0.016598
v 0.624500 0.944864 0.016598
v 0.788160 0.810552 0.016598
v 0.922472 0.646893 0.016598
v 1.022275 0.460175 0.016598
v 1.083733 0.257574 0.016598
v 1.104484 0.046877 0.016598
v 1.083733 -0.163821 0.016598
v 1.022275 -0.366421 0.016598
v 0.922472 -0.553139 0.016598
v 0.788160 -0.716799 0.016598
v 0.624500 -0.851111 0.016598
v 0.437783 -0.950913 0.016598
v 0.235182 -1.012372 0.016598
v 0.231134 1.106125 0.058464
v 0.429841 1.044667 0.098722
v 0.612971 0.944864 0.135823
v 0.773486 0.810552 0.168343
v 0.905217 0.646893 0.195031
v 1.003103 0.460175 0.214862
v 1.063380 0.257574 0.227074
v 1.083732 0.046877 0.231198
v 1.063380 -0.163821 0.227074
v 1.003102 -0.366421 0.214862
v 0.905217 -0.553139 0.195031
v 0.773486 -0.716799 0.168343
v 0.612971 -0.851111 0.135823
v 0.429841 -0.950913 0.098722
v 0.231134 -1.012372 0.058464
v 0.219144 1.106125 0.098722
v 0.406322 1.044667 0.177689
v 0.578827 0.944864 0.250466
v 0.730029 0.810552 0.314256
v 0.854117 0.646893 0.366607
v 0.946323 0.460175 0.405506
v 1.003102 0.257574 0.429461
v 1.022274 0.046877 0.437550
v 1.003102 -0.163821 0.429461
v 0.946322 -0.366421 0.405507
v 0.854117 -0.553139 0.366607
v 0.730029 -0.716799 0.314256
v 0.578827 -0.851111 0.250466
v 0.406322 -0.950913 0.177689
v 0.219144 -1.012371 0.098722
v 0.199673 1.106125 0.135823
v 0.368129 1.044667 0.250466
v 0.523379 0.944864 0.356122
v 0.659458 0.810552 0.448730
v 0.771134 0.646893 0.524732
v 0.854117 0.460175 0.581206
v 0.905217 0.257574 0.615983
v 0.922471 0.046877 0.627725
v 0.905217 -0.163821 0.615983
v 0.854117 -0.366421 0.581206
v 0.771134 -0.553139 0.524732
v 0.659458 -0.716799 0.448730
v 0.523379 -0.851111 0.356122
v 0.368129 -0.950913 0.250466
v 0.199673 -1.012372 0.135823
v 0.173470 1.106125 0.168343
v 0.316731 1.044667 0.314256
v 0.448760 0.944864 0.448730
v 0.564485 0.810552 0.566598
v 0.659457 0.646893 0.663329
v 0.730029 0.460175 0.735207
v 0.773486 0.257574 0.779470
v 0.788159 0.046877 0.794415
v 0.773486 -0.163821 0.779470
v 0.730029 -0.366421 0.735208
v 0.659457 -0.553139 0.663329
v 0.564485 -0.716799 0.566598
v 0.448760 -0.851111 0.448730
v 0.316731 -0.950913 0.314256
v 0.173470 -1.012372 0.168343
v 0.141542 1.106125 0.195031
v 0.254101 1.044667 0.366607
v 0.357835 0.944864 0.524732
v 0.448760 0.810552 0.663330
v 0.523380 0.646893 0.777074
v 0.578827 0.460175 0.861593
v 0.612971 0.257574 0.913640
v 0.624500 0.046877 0.931214
v 0.612971 -0.163821 0.913640
v 0.578827 -0.366421 0.861593
v 0.523379 -0.553139 0.777074
v 0.448760 -0.716799 0.663329
v 0.357835 -0.851111 0.524732
v 0.254101 -0.950913 0.366607
v 0.141542 -1.012371 0.195031
v 0.105115 1.106125 0.214862
v 0.182647 1.044667 0.405507
v 0.254101 0.944864 0.581206
v 0.316731 0.810552 0.735208
v 0.368129 0.646893 0.861593
v 0.406322 0.460175 0.955507
v 0.429841 0.257574 1.013338
v 0.437782 0.046877 1.032865
v 0.429841 -0.163821 1.013338
v 0.406322 -0.366421 0.955507
v 0.368129 -0.553139 0.861593
v 0.316731 -0.716799 0.735208
v 0.254101 -0.851111 0.581206
v 0.182647 -0.950913 0.405507
v 0.105115 -1.012372 0.214862
v 0.065590 1.106125 0.227074
v 0.105115 1.044667 0.429461
v 0.141542 0.944864 0.615982
v 0.173470 0.810552 0.779470
v 0.199673 0.646893 0.913640
v 0.219144 0.460175 1.013338
v 0.231134 0.257574 1.074731
v 0.235182 0.046877 1.095461
v 0.231134 -0.163821 1.074731
v 0.219144 -0.366421 1.013338
v 0.199673 -0.553139 0.913640
v 0.173470 -0.716799 0.779470
v 0.141542 -0.851111 0.615982
v 0.105115 -0.950913 0.429461
v 0.065590 -1.012372 0.227074
v 0.024485 1.106125 0.231197
v 0.024485 1.044667 0.437550
v 0.024485 0.810552 0.794416
v 0.024485 0.460175 1.032865
v 0.024485 -0.366421 1.032865
v 0.024485 -0.716799 0.794416
v 0.024485 -0.851111 0.627725
v 0.024485 -0.950913 0.437550
v 0.024485 -1.012372 0.231197
v -0.648608 0.479110 -0.962595
v -0.558604 0.438589 -0.954123
v -0.478233 0.381214 -0.946185
v -0.410583 0.309188 -0.939086
v -0.358256 0.225281 -0.933099
v -0.323260 0.132716 -0.928454
v -0.306942 0.035051 -0.925330
v -0.309929 -0.063961 -0.923846
v -1.286447 0.160515 -1.011981
v -1.245933 0.250901 -1.010078
v -1.188639 0.331644 -1.006559
v -1.116767 0.399643 -1.001558
v -1.033077 0.452283 -0.995269
v -0.940788 0.487543 -0.987933
v -0.843444 0.504066 -0.979831
v -0.744787 0.501219 -0.971276
v -0.552591 0.437363 -1.023868
v -0.642595 0.477883 -1.032340
v -0.472220 0.379987 -1.015930
v -0.404571 0.307961 -1.008831
v -0.352243 0.224054 -1.002844
v -0.317247 0.131489 -0.998199
v -0.300929 0.033824 -0.995075
v -0.303916 -0.065188 -0.993591
v -1.280434 0.159288 -1.081726
v -1.239920 0.249674 -1.079823
v -1.182627 0.330417 -1.076304
v -1.110754 0.398416 -1.071303
v -1.027065 0.451057 -1.065014
v -0.934775 0.486316 -1.057678
v -0.837431 0.502840 -1.049576
v -0.738774 0.499992 -1.041021
vn 0.0876 0.0018 0.9962
vn -0.0876 -0.0018 -0.9962
vn -0.5906 0.8054 0.0505
vn 0.9020 0.4243 -0.0801
vn -0.4228 0.9055 0.0355
vn 0.2387 -0.9709 -0.0192
vn -0.0454 0.9990 0.0022
vn -0.2387 0.9709 0.0192
vn -0.9951 -0.0455 0.0876
vn 0.1496 0.9886 -0.0150
vn -0.9849 0.1503 0.0864
vn 0.3388 0.9403 -0.0315
vn -0.9368 0.3403 0.0818
vn 0.5151 0.8559 -0.0469
vn -0.8527 0.5172 0.0741
vn 0.6715 0.7385 -0.0604
vn -0.7358 0.6742 0.0635
vn 0.8022 0.5928 -0.0717
vn -0.0767 0.6394 0.7650
vn -0.0628 -0.7771 0.6262
vn -0.0878 0.4763 0.8749
vn -0.0466 -0.8845 0.4642
vn -0.0954 0.2939 0.9511
vn -0.0286 -0.9580 0.2853
vn -0.0993 0.0993 0.9901
vn -0.0097 0.9953 0.0962
vn -0.0097 -0.9953 0.0962
vn -0.0993 -0.0993 0.9901
vn -0.0286 0.9580 0.2853
vn -0.0954 -0.2938 0.9511
vn -0.0466 0.8845 0.4642
vn -0.0878 -0.4763 0.8749
vn -0.0628 0.7771 0.6262
vn -0.0767 -0.6394 0.7650
vn -0.2596 -0.4758 0.8404
vn -0.1859 0.7767 0.6018
vn -0.2271 -0.6389 0.7350
vn -0.2271 0.6389 0.7350
vn -0.1859 -0.7767 0.6018
vn -0.2596 0.4758 0.8404
vn -0.1379 -0.8842 0.4462
vn -0.2822 0.2935 0.9134
vn -0.0848 -0.9579 0.2743
vn -0.2937 0.0992 0.9507
vn -0.0286 0.9953 0.0925
vn -0.0286 -0.9953 0.0925
vn -0.2937 -0.0992 0.9507
vn -0.0848 0.9579 0.2743
vn -0.2822 -0.2935 0.9134
vn -0.1379 0.8842 0.4462
vn -0.1376 -0.9577 0.2528
vn -0.4758 0.0989 0.8740
vn -0.0464 0.9953 0.0853
vn -0.0464 -0.9953 0.0853
vn -0.4758 -0.0989 0.8740
vn -0.1376 0.9577 0.2528
vn -0.4572 -0.2928 0.8398
vn -0.2238 0.8837 0.4110
vn -0.4208 -0.4748 0.7729
vn -0.3016 0.7759 0.5540
vn -0.3682 -0.6379 0.6763
vn -0.3682 0.6379 0.6763
vn -0.3016 -0.7759 0.5540
vn -0.4208 0.4748 0.7729
vn -0.2238 -0.8838 0.4110
vn -0.4572 0.2928 0.8398
vn -0.4945 -0.6367 0.5917
vn -0.4945 0.6367 0.5917
vn -0.4054 -0.7749 0.4850
vn -0.5648 0.4736 0.6757
vn -0.3009 -0.8831 0.3600
vn -0.6134 0.2919 0.7338
vn -0.1851 -0.9574 0.2215
vn -0.6382 0.0986 0.7635
vn -0.0625 0.9952 0.0748
vn -0.0625 -0.9952 0.0748
vn -0.6382 -0.0986 0.7635
vn -0.1851 0.9574 0.2215
vn -0.6134 -0.2919 0.7338
vn -0.3009 0.8831 0.3600
vn -0.5648 -0.4736 0.6757
vn -0.4054 0.7749 0.4850
vn -0.0761 0.9952 0.0613
vn -0.0761 -0.9952 0.0613
vn -0.7749 -0.0983 0.6244
vn -0.2255 0.9571 0.1817
vn -0.7450 -0.2909 0.6003
vn -0.3664 0.8824 0.2952
vn -0.6864 -0.4723 0.5530
vn -0.4933 0.7738 0.3974
vn -0.6013 -0.6353 0.4845
vn -0.6013 0.6353 0.4845
vn -0.4933 -0.7738 0.3974
vn -0.6864 0.4723 0.5530
vn -0.3664 -0.8824 0.2952
vn -0.7450 0.2909 0.6003
vn -0.2255 -0.9571 0.1817
vn -0.7749 0.0983 0.6244
vn -0.6847 0.6341 0.3593
vn -0.5620 -0.7728 0.2949
vn -0.7811 0.4711 0.4099
vn -0.4177 -0.8818 0.2192
vn -0.8474 0.2901 0.4447
vn -0.2572 -0.9569 0.1350
vn -0.8812 0.0979 0.4625
vn -0.0869 0.9952 0.0456
vn -0.0869 -0.9952 0.0456
vn -0.8812 -0.0979 0.4625
vn -0.2572 0.9569 0.1350
vn -0.8474 -0.2901 0.4447
vn -0.4177 0.8818 0.2192
vn -0.7811 -0.4711 0.4099
vn -0.5620 0.7728 0.2949
vn -0.6847 -0.6341 0.3593
vn -0.9538 -0.0977 0.2841
vn -0.2791 0.9567 0.0831
vn -0.9174 -0.2894 0.2732
vn -0.4529 0.8813 0.1349
vn -0.8458 -0.4702 0.2519
vn -0.6092 0.7720 0.1814
vn -0.7418 -0.6331 0.2209
vn -0.7418 0.6331 0.2209
vn -0.6092 -0.7720 0.1814
vn -0.8458 0.4702 0.2519
vn -0.4529 -0.8813 0.1349
vn -0.9174 0.2894 0.2732
vn -0.2791 -0.9567 0.0831
vn -0.9538 0.0977 0.2841
vn -0.0942 0.9952 0.0281
vn -0.0942 -0.9952 0.0281
vn -0.6332 -0.7716 0.0612
vn -0.8787 0.4697 0.0850
vn -0.4709 -0.8810 0.0455
vn -0.9529 0.2890 0.0921
vn -0.2902 -0.9566 0.0281
vn -0.9906 0.0976 0.0958
vn -0.0980 0.9951 0.0095
vn -0.0980 -0.9951 0.0095
vn -0.9906 -0.0976 0.0958
vn -0.2902 0.9566 0.0281
vn -0.9529 -0.2890 0.0921
vn -0.4709 0.8810 0.0455
vn -0.8787 -0.4697 0.0850
vn -0.6332 0.7716 0.0612
vn -0.7709 -0.6326 0.0745
vn -0.7709 0.6326 0.0745
vn -0.2902 0.9566 -0.0281
vn -0.9529 -0.2890 -0.0921
vn -0.4709 0.8810 -0.0455
vn -0.8787 -0.4697 -0.0850
vn -0.6332 0.7716 -0.0612
vn -0.7709 -0.6326 -0.0745
vn -0.7709 0.6326 -0.0745
vn -0.6332 -0.7716 -0.0612
vn -0.8787 0.4697 -0.0850
vn -0.4709 -0.8810 -0.0455
vn -0.9529 0.2890 -0.0921
vn -0.2902 -0.9566 -0.0281
vn -0.9906 0.0976 -0.0958
vn -0.0980 0.9951 -0.0095
vn -0.0980 -0.9951 -0.0095
vn -0.9906 -0.0976 -0.0958
vn -0.8458 0.4702 -0.2519
vn -0.4529 -0.8813 -0.1349
vn -0.9174 0.2894 -0.2732
vn -0.2791 -0.9567 -0.0831
vn -0.9538 0.0977 -0.2841
vn -0.0942 0.9952 -0.0281
vn -0.0942 -0.9952 -0.0281
vn -0.9538 -0.0977 -0.2841
vn -0.2791 0.9567 -0.0831
vn -0.9174 -0.2894 -0.2732
vn -0.4529 0.8813 -0.1349
vn -0.8458 -0.4702 -0.2519
vn -0.6092 0.7720 -0.1814
vn -0.7418 -0.6331 -0.2209
vn -0.7418 0.6331 -0.2209
vn -0.6092 -0.7720 -0.1814
vn -0.8474 -0.2901 -0.4447
vn -0.4177 0.8818 -0.2192
vn -0.7811 -0.4711 -0.4099
vn -0.5620 0.7728 -0.2949
vn -0.6847 -0.6341 -0.3593
vn -0.6847 0.6341 -0.3593
vn -0.5620 -0.7728 -0.2949
vn -0.7811 0.4711 -0.4099
vn -0.4177 -0.8818 -0.2192
vn -0.8474 0.2901 -0.4447
vn -0.2572 -0.9569 -0.1350
vn -0.8812 0.0979 -0.4625
vn -0.0869 0.9952 -0.0456
vn -0.0869 -0.9952 -0.0456
vn -0.8812 -0.0979 -0.4625
vn -0.2572 0.9569 -0.1350
vn -0.3664 -0.8824 -0.2952
vn -0.7450 0.2909 -0.6003
vn -0.2255 -0.9571 -0.1817
vn -0.7749 0.0983 -0.6244
vn -0.0761 0.9952 -0.0613
vn -0.0761 -0.9952 -0.0613
vn -0.7749 -0.0983 -0.6244
vn -0.2255 0.9571 -0.1817
vn -0.7450 -0.2909 -0.6003
vn -0.3664 0.8824 -0.2952
vn -0.6864 -0.4723 -0.5530
vn -0.4933 0.7738 -0.3974
vn -0.6013 -0.6353 -0.4845
vn -0.6013 0.6353 -0.4845
vn -0.4933 -0.7738 -0.3974
vn -0.6864 0.4723 -0.5530
vn -0.5648 -0.4736 -0.6757
vn -0.4054 0.7749 -0.4850
vn -0.4945 -0.6367 -0.5917
vn -0.4945 0.6367 -0.5917
vn -0.4054 -0.7749 -0.4850
vn -0.5648 0.4736 -0.6757
vn -0.3009 -0.8831 -0.3600
vn -0.6134 0.2919 -0.7338
vn -0.1851 -0.9574 -0.2215
vn -0.6382 0.0986 -0.7635
vn -0.0625 0.9952 -0.0748
vn -0.0625 -0.9952 -0.0748
vn -0.6382 -0.0986 -0.7635
vn -0.1851 0.9574 -0.2215
vn -0.6134 -0.2919 -0.7338
vn -0.3009 0.8831 -0.3600
vn -0.1376 -0.9577 -0.2528
vn -0.4758 0.0989 -0.8740
vn -0.0464 0.9953 -0.0853
vn -0.0464 -0.9953 -0.0853
vn -0.4758 -0.0989 -0.8740
vn -0.1376 0.9577 -0.2528
vn -0.4572 -0.2928 -0.8398
vn -0.2238 0.8837 -0.4110
vn -0.4208 -0.4748 -0.7729
vn -0.3016 0.7759 -0.5540
vn -0.3682 -0.6379 -0.6763
vn -0.3682 0.6379 -0.6763
vn -0.3016 -0.7759 -0.5540
vn -0.4208 0.4748 -0.7729
vn -0.2238 -0.8837 -0.4110
vn -0.4572 0.2928 -0.8398
vn -0.1859 0.7767 -0.6018
vn -0.2271 -0.6389 -0.7350
vn -0.2271 0.6389 -0.7350
vn -0.1859 -0.7767 -0.6018
vn -0.2596 0.4758 -0.8404
vn -0.1379 -0.8842 -0.4462
vn -0.2822 0.2935 -0.9134
vn -0.0848 -0.9579 -0.2743
vn -0.2937 0.0992 -0.9507
vn -0.0286 0.9953 -0.0925
vn -0.0286 -0.9953 -0.0925
vn -0.2937 -0.0992 -0.9507
vn -0.0848 0.9579 -0.2743
vn -0.2822 -0.2935 -0.9134
vn -0.1379 0.8842 -0.4462
vn -0.2596 -0.4758 -0.8404
vn -0.0993 0.0993 -0.9901
vn -0.0097 0.9953 -0.0962
vn -0.0097 -0.9953 -0.0962
vn -0.0993 -0.0993 -0.9901
vn -0.0286 0.9580 -0.2853
vn -0.0954 -0.2938 -0.9511
vn -0.0466 0.8845 -0.4642
vn -0.0878 -0.4763 -0.8749
vn -0.0628 0.7771 -0.6262
vn -0.0767 -0.6394 -0.7650
vn -0.0767 0.6394 -0.7650
vn -0.0628 -0.7771 -0.6262
vn -0.0878 0.4763 -0.8749
vn -0.0466 -0.8845 -0.4642
vn -0.0954 0.2938 -0.9511
vn -0.0286 -0.9580 -0.2853
vn 0.0767 -0.6394 -0.7650
vn 0.0767 0.6394 -0.7650
vn 0.0628 -0.7771 -0.6262
vn 0.0878 0.4763 -0.8749
vn 0.0466 -0.8845 -0.4642
vn 0.0954 0.2938 -0.9511
vn 0.0286 -0.9580 -0.2853
vn 0.0993 0.0993 -0.9901
vn 0.0097 0.9953 -0.0962
vn 0.0097 -0.9953 -0.0962
vn 0.0993 -0.0993 -0.9901
vn 0.0286 0.9580 -0.2853
vn 0.0954 -0.2938 -0.9511
vn 0.0466 0.8845 -0.4642
vn 0.0878 -0.4763 -0.8749
vn 0.0628 0.7771 -0.6262
vn 0.0286 0.9953 -0.0925
vn 0.0286 -0.9953 -0.0925
vn 0.2937 -0.0992 -0.9507
vn 0.0848 0.9579 -0.2743
vn 0.2822 -0.2935 -0.9134
vn 0.1379 0.8842 -0.4462
vn 0.2596 -0.4758 -0.8404
vn 0.1859 0.7767 -0.6018
vn 0.2271 -0.6389 -0.7350
vn 0.2271 0.6389 -0.7350
vn 0.1859 -0.7767 -0.6018
vn 0.2596 0.4758 -0.8404
vn 0.1379 -0.8842 -0.4462
vn 0.2822 0.2935 -0.9134
vn 0.0848 -0.9579 -0.2743
vn 0.2937 0.0992 -0.9507
vn 0.3682 0.6379 -0.6763
vn 0.3016 -0.7759 -0.5540
vn 0.4208 0.4748 -0.7729
vn 0.2238 -0.8837 -0.4110
vn 0.4572 0.2928 -0.8398
vn 0.1376 -0.9577 -0.2528
vn 0.4758 0.0989 -0.8740
vn 0.0464 0.9953 -0.0853
vn 0.0464 -0.9953 -0.0853
vn 0.4758 -0.0989 -0.8740
vn 0.1376 0.9577 -0.2528
vn 0.4572 -0.2928 -0.8398
vn 0.2238 0.8837 -0.4110
vn 0.4208 -0.4748 -0.7729
vn 0.3016 0.7759 -0.5540
vn 0.3682 -0.6379 -0.6763
vn 0.6382 -0.0986 -0.7635
vn 0.1851 0.9574 -0.2215
vn 0.6134 -0.2919 -0.7338
vn 0.3009 0.8831 -0.3600
vn 0.5648 -0.4736 -0.6757
vn 0.4054 0.7749 -0.4850
vn 0.4945 -0.6367 -0.5917
vn 0.4945 0.6367 -0.5917
vn 0.4054 -0.7749 -0.4850
vn 0.5648 0.4736 -0.6757
vn 0.3009 -0.8831 -0.3600
vn 0.6134 0.2919 -0.7338
vn 0.1851 -0.9574 -0.2215
vn 0.6382 0.0986 -0.7635
vn 0.0625 0.9952 -0.0748
vn 0.0625 -0.9952 -0.0748
vn 0.4933 -0.7738 -0.3974
vn 0.6864 0.4723 -0.5530
vn 0.3664 -0.8824 -0.2952
vn 0.7450 0.2909 -0.6003
vn 0.2255 -0.9571 -0.1817
vn 0.7749 0.0983 -0.6244
vn 0.0761 0.9952 -0.0613
vn 0.0761 -0.9952 -0.0613
vn 0.7749 -0.0983 -0.6244
vn 0.2255 0.9571 -0.1817
vn 0.7450 -0.2909 -0.6003
vn 0.3664 0.8824 -0.2952
vn 0.6864 -0.4723 -0.5530
vn 0.4933 0.7738 -0.3974
vn 0.6013 -0.6353 -0.4845
vn 0.6013 0.6353 -0.4845
vn 0.8474 -0.2901 -0.4447
vn 0.4177 0.8818 -0.2192
vn 0.7811 -0.4711 -0.4099
vn 0.5620 0.7728 -0.2949
vn 0.6847 -0.6341 -0.3593
vn 0.6847 0.6341 -0.3593
vn 0.5620 -0.7728 -0.2949
vn 0.7811 0.4711 -0.4099
vn 0.4177 -0.8818 -0.2192
vn 0.8474 0.2901 -0.4447
vn 0.2572 -0.9569 -0.1350
vn 0.8812 0.0979 -0.4625
vn 0.0869 0.9952 -0.0456
vn 0.0869 -0.9952 -0.0456
vn 0.8812 -0.0979 -0.4625
vn 0.2572 0.9569 -0.1350
vn 0.4529 -0.8813 -0.1349
vn 0.9174 0.2894 -0.2732
vn 0.2791 -0.9567 -0.0831
vn 0.9538 0.0977 -0.2841
vn 0.0942 0.9952 -0.0281
vn 0.0942 -0.9952 -0.0281
vn 0.9538 -0.0977 -0.2841
vn 0.2791 0.9567 -0.0831
vn 0.9174 -0.2894 -0.2732
vn 0.4529 0.8813 -0.1349
vn 0.8458 -0.4702 -0.2519
vn 0.6092 0.7720 -0.1814
vn 0.7418 -0.6331 -0.2209
vn 0.7418 0.6331 -0.2209
vn 0.6092 -0.7720 -0.1814
vn 0.8458 0.4702 -0.2519
vn 0.4709 0.8810 -0.0455
vn 0.8787 -0.4697 -0.0850
vn 0.6332 0.7716 -0.0612
vn 0.7709 -0.6326 -0.0745
vn 0.7709 0.6326 -0.0745
vn 0.6332 -0.7716 -0.0612
vn 0.8787 0.4697 -0.0850
vn 0.4709 -0.8810 -0.0455
vn 0.9529 0.2890 -0.0921
vn 0.2902 -0.9566 -0.0281
vn 0.9906 0.0976 -0.0958
vn 0.0980 0.9951 -0.0095
vn 0.0980 -0.9951 -0.0095
vn 0.9906 -0.0976 -0.0958
vn 0.2902 0.9566 -0.0281
vn 0.9529 -0.2890 -0.0921
vn 0.9529 0.2890 0.0921
vn 0.2902 -0.9566 0.0281
vn 0.9906 0.0976 0.0958
vn 0.0980 0.9951 0.0095
vn 0.0980 -0.9951 0.0095
vn 0.9906 -0.0976 0.0958
vn 0.2902 0.9566 0.0281
vn 0.9529 -0.2890 0.0921
vn 0.4709 0.8810 0.0455
vn 0.8787 -0.4697 0.0850
vn 0.6332 0.7716 0.0612
vn 0.7709 -0.6326 0.0745
vn 0.7709 0.6326 0.0745
vn 0.6332 -0.7716 0.0612
vn 0.8787 0.4697 0.0850
vn 0.4709 -0.8810 0.0455
vn 0.8458 -0.4702 0.2519
vn 0.6092 0.7720 0.1814
vn 0.7418 -0.6331 0.2209
vn 0.7418 0.6331 0.2209
vn 0.6092 -0.7720 0.1814
vn 0.8458 0.4702 0.2519
vn 0.4529 -0.8813 0.1349
vn 0.9174 0.2894 0.2732
vn 0.2791 -0.9567 0.0831
vn 0.9538 0.0977 0.2841
vn 0.0942 0.9952 0.0281
vn 0.0942 -0.9952 0.0281
vn 0.9538 -0.0977 0.2841
vn 0.2791 0.9567 0.0831
vn 0.9174 -0.2894 0.2732
vn 0.4529 0.8813 0.1349
vn 0.2572 -0.9569 0.1350
vn 0.8812 0.0979 0.4625
vn 0.0869 0.9952 0.0456
vn 0.0869 -0.9952 0.0456
vn 0.8812 -0.0979 0.4625
vn 0.2572 0.9569 0.1350
vn 0.8474 -0.2901 0.4447
vn 0.4177 0.8818 0.2192
vn 0.7811 -0.4711 0.4099
vn 0.5620 0.7728 0.2949
vn 0.6847 -0.6341 0.3593
vn 0.6847 0.6341 0.3593
vn 0.5620 -0.7728 0.2949
vn 0.7811 0.4711 0.4099
vn 0.4177 -0.8818 0.2192
vn 0.8474 0.2901 0.4447
vn 0.4933 0.7738 0.3974
vn 0.6013 -0.6353 0.4845
vn 0.6013 0.6353 0.4845
vn 0.4933 -0.7738 0.3974
vn 0.6864 0.4723 0.5530
vn 0.3664 -0.8824 0.2952
vn 0.7450 0.2909 0.6003
vn 0.2255 -0.9571 0.1817
vn 0.7749 0.0983 0.6244
vn 0.0761 0.9952 0.0613
vn 0.0761 -0.9952 0.0613
vn 0.7749 -0.0983 0.6244
vn 0.2255 0.9571 0.1817
vn 0.7450 -0.2909 0.6003
vn 0.3664 0.8824 0.2952
vn 0.6864 -0.4723 0.5530
vn 0.6382 0.0986 0.7635
vn 0.0625 0.9952 0.0748
vn 0.0625 -0.9952 0.0748
vn 0.6382 -0.0986 0.7635
vn 0.1851 0.9574 0.2215
vn 0.6134 -0.2919 0.7338
vn 0.3009 0.8831 0.3600
vn 0.5648 -0.4736 0.6757
vn 0.4054 0.7749 0.4850
vn 0.4945 -0.6367 0.5917
vn 0.4945 0.6367 0.5917
vn 0.4054 -0.7749 0.4850
vn 0.5648 0.4736 0.6757
vn 0.3009 -0.8831 0.3600
vn 0.6134 0.2919 0.7338
vn 0.1851 -0.9574 0.2215
vn 0.3682 -0.6379 0.6763
vn 0.3682 0.6379 0.6763
vn 0.3016 -0.7759 0.5540
vn 0.4208 0.4748 0.7729
vn 0.2238 -0.8837 0.4110
vn 0.4572 0.2928 0.8398
vn 0.1376 -0.9577 0.2528
vn 0.4758 0.0989 0.8740
vn 0.0464 0.9953 0.0853
vn 0.0464 -0.9953 0.0853
vn 0.4758 -0.0989 0.8740
vn 0.1376 0.9577 0.2528
vn 0.4572 -0.2928 0.8398
vn 0.2238 0.8837 0.4110
vn 0.4208 -0.4748 0.7729
vn 0.3016 0.7759 0.5540
vn 0.0286 -0.9953 0.0925
vn 0.2937 -0.0992 0.9507
vn 0.0848 0.9579 0.2743
vn 0.2822 -0.2935 0.9134
vn 0.1379 0.8842 0.4462
vn 0.2596 -0.4758 0.8404
vn 0.1859 0.7767 0.6018
vn 0.2271 -0.6389 0.7350
vn 0.2271 0.6389 0.7350
vn 0.1859 -0.7767 0.6018
vn 0.2596 0.4758 0.8404
vn 0.1379 -0.8842 0.4462
vn 0.2822 0.2935 0.9134
vn 0.0848 -0.9579 0.2743
vn 0.2937 0.0992 0.9507
vn 0.0286 0.9953 0.0925
vn 0.0628 -0.7771 0.6262
vn 0.0878 0.4763 0.8749
vn 0.0466 -0.8845 0.4642
vn 0.0954 0.2939 0.9511
vn 0.0286 -0.9580 0.2853
vn 0.0993 0.0993 0.9901
vn 0.0097 0.9953 0.0962
vn 0.0097 -0.9953 0.0962
vn 0.0993 -0.0993 0.9901
vn 0.0286 0.9580 0.2853
vn 0.0954 -0.2938 0.9511
vn 0.0466 0.8845 0.4642
vn 0.0878 -0.4763 0.8749
vn 0.0628 0.7771 0.6262
vn 0.0767 -0.6394 0.7650
vn 0.0767 0.6394 0.7650
vn -0.0859 0.0175 0.9962
vn 0.0859 -0.0175 -0.9962
vn -0.1647 0.9858 -0.0315
vn 0.9958 -0.0287 0.0864
vn 0.0301 0.9994 -0.0150
vn -0.2238 -0.9746 -0.0022
vn 0.4089 0.9124 0.0192
vn 0.2238 0.9746 0.0022
vn -0.9085 0.4090 -0.0855
vn 0.5783 0.8150 0.0355
vn -0.8113 0.5792 -0.0801
vn 0.7255 0.6864 0.0505
vn -0.6829 0.7270 -0.0717
vn 0.8448 0.5314 0.0635
vn -0.5282 0.8470 -0.0604
vn 0.9316 0.3559 0.0741
vn -0.3532 0.9344 -0.0469
vn 0.9826 0.1668 0.0818
vn -0.0954 0.2938 0.9511
vn -0.0954 -0.2939 0.9511
vn -0.2238 0.8838 0.4110
vn -0.2238 -0.8837 0.4110
vn -0.9529 -0.2891 0.0921
vn -0.9529 -0.2891 -0.0921
vn 0.9529 0.2891 0.0921
vn 0.0954 0.2938 0.9511
vn 0.0954 -0.2939 0.9511
vt 0.744651 0.843937
vt 0.738233 0.593270
vt 0.753275 0.673107
vt 0.769111 0.900311
vt 0.739973 0.805282
vt 0.720709 0.716899
vt 0.731167 0.761771
vt 0.742933 0.782990
vt 0.731703 0.783842
vt 0.739519 0.559752
vt 0.769112 0.588583
vt 0.723077 0.739050
vt 0.740467 0.759084
vt 0.744685 0.884314
vt 0.758472 0.538961
vt 0.732035 0.691640
vt 0.719361 0.715119
vt 0.732253 0.736146
vt 0.747381 0.866027
vt 0.739978 0.699283
vt 0.763548 0.868393
vt 0.748633 0.655779
vt 0.756045 0.678159
vt 0.739003 0.824472
vt 0.757358 0.843152
vt 0.746616 0.634829
vt 0.759107 0.655933
vt 0.736061 0.804799
vt 0.749697 0.821884
vt 0.744922 0.615621
vt 0.756442 0.633754
vt 0.761194 0.614930
vt 0.383779 0.328783
vt 0.353867 0.344609
vt 0.356443 0.323692
vt 0.159723 0.351819
vt 0.195263 0.358772
vt 0.166773 0.368602
vt 0.330247 0.342677
vt 0.331298 0.321080
vt 0.125206 0.369453
vt 0.132441 0.383352
vt 0.889398 0.249528
vt 0.849237 0.286860
vt 0.849430 0.249528
vt 0.078788 0.397853
vt 0.084737 0.407782
vt 0.811831 0.286182
vt 0.812112 0.249528
vt 0.500766 0.373615
vt 0.553382 0.404031
vt 0.495968 0.384226
vt 0.030314 0.433894
vt 0.775657 0.249528
vt 0.775104 0.285521
vt 0.445484 0.365419
vt 0.451065 0.350696
vt 0.738321 0.249528
vt 0.737738 0.284593
vt 0.409482 0.354784
vt 0.414533 0.337202
vt 0.698457 0.249528
vt 0.698270 0.283531
vt 0.379834 0.348360
vt 0.189149 0.339924
vt 0.220276 0.352032
vt 0.736051 0.319717
vt 0.696847 0.317176
vt 0.376984 0.367165
vt 0.224207 0.371066
vt 0.200308 0.376914
vt 0.352113 0.364480
vt 0.172560 0.385103
vt 0.329556 0.363212
vt 0.138476 0.397364
vt 0.888785 0.287502
vt 0.848598 0.324301
vt 0.089878 0.418070
vt 0.810884 0.323204
vt 0.550065 0.410682
vt 0.492019 0.395093
vt 0.034296 0.440091
vt 0.773670 0.321800
vt 0.441117 0.380104
vt 0.405683 0.371942
vt 0.143451 0.411459
vt 0.094260 0.428648
vt 0.809401 0.361087
vt 0.547170 0.417759
vt 0.488861 0.406152
vt 0.037909 0.446762
vt 0.771147 0.358834
vt 0.437817 0.394731
vt 0.732860 0.355152
vt 0.402934 0.388750
vt 0.693800 0.350497
vt 0.375027 0.385375
vt 0.228071 0.389711
vt 0.204523 0.394659
vt 0.351043 0.383576
vt 0.177292 0.401411
vt 0.329467 0.382849
vt 0.887948 0.325081
vt 0.847950 0.362210
vt 0.231039 0.408332
vt 0.207931 0.412200
vt 0.350501 0.402132
vt 0.181105 0.417598
vt 0.329616 0.401922
vt 0.147484 0.425621
vt 0.887387 0.362431
vt 0.847953 0.401208
vt 0.097926 0.439454
vt 0.807536 0.400920
vt 0.544718 0.425157
vt 0.486442 0.417345
vt 0.041123 0.453805
vt 0.767186 0.397406
vt 0.435463 0.409297
vt 0.727542 0.391274
vt 0.401079 0.405282
vt 0.688459 0.383396
vt 0.373809 0.403144
vt 0.542718 0.432770
vt 0.484718 0.428619
vt 0.043918 0.461115
vt 0.100912 0.450428
vt 0.272209 0.403228
vt 0.292243 0.421512
vt 0.273455 0.422494
vt 0.433957 0.423804
vt 0.252031 0.405582
vt 0.253984 0.424205
vt 0.400001 0.421604
vt 0.233386 0.426474
vt 0.373216 0.420580
vt 0.210628 0.429514
vt 0.350382 0.420251
vt 0.184108 0.433694
vt 0.329908 0.420393
vt 0.150664 0.439840
vt 0.310810 0.420867
vt 0.310272 0.402390
vt 0.291659 0.402969
vt 0.350653 0.438110
vt 0.212701 0.446674
vt 0.186388 0.449733
vt 0.330430 0.438627
vt 0.153063 0.454108
vt 0.311502 0.439287
vt 0.103242 0.461516
vt 0.293104 0.440063
vt 0.541179 0.440488
vt 0.483658 0.439923
vt 0.046275 0.468587
vt 0.274637 0.441151
vt 0.433225 0.438260
vt 0.255542 0.442574
vt 0.399613 0.437775
vt 0.235219 0.444372
vt 0.373176 0.437794
vt 0.294058 0.458546
vt 0.275713 0.459607
vt 0.433219 0.452675
vt 0.256783 0.460786
vt 0.399862 0.453846
vt 0.236606 0.462141
vt 0.373648 0.454874
vt 0.214215 0.463750
vt 0.351307 0.455831
vt 0.188006 0.465749
vt 0.331216 0.456750
vt 0.154730 0.468424
vt 0.312376 0.457649
vt 0.104925 0.472663
vt 0.540114 0.448200
vt 0.483248 0.451205
vt 0.048168 0.476112
vt 0.215208 0.480808
vt 0.189001 0.481776
vt 0.332283 0.474841
vt 0.155693 0.482795
vt 0.313437 0.476008
vt 0.105950 0.483819
vt 0.295055 0.477059
vt 0.539544 0.455792
vt 0.483491 0.462416
vt 0.049563 0.483578
vt 0.276652 0.478022
vt 0.433910 0.467060
vt 0.257736 0.478951
vt 0.400716 0.469859
vt 0.237582 0.479873
vt 0.374614 0.471891
vt 0.352343 0.473499
vt 0.485439 0.473502
vt 0.435726 0.481388
vt 0.258536 0.497182
vt 0.402427 0.485857
vt 0.238198 0.497676
vt 0.376173 0.488927
vt 0.215602 0.497942
vt 0.353737 0.491217
vt 0.189133 0.497880
vt 0.333517 0.493007
vt 0.155527 0.497238
vt 0.314532 0.494448
vt 0.105270 0.495049
vt 0.296079 0.495638
vt 0.539975 0.458000
vt 0.049357 0.485823
vt 0.277597 0.496500
vt 0.355546 0.509087
vt 0.335054 0.511344
vt 0.154647 0.511757
vt 0.315812 0.513065
vt 0.103924 0.506356
vt 0.297122 0.514366
vt 0.542306 0.465334
vt 0.488056 0.484588
vt 0.047860 0.493368
vt 0.278396 0.515158
vt 0.438256 0.495710
vt 0.259062 0.515602
vt 0.404769 0.501921
vt 0.238416 0.515664
vt 0.378257 0.506082
vt 0.215478 0.515245
vt 0.188637 0.514120
vt 0.259307 0.534313
vt 0.441542 0.510029
vt 0.407795 0.518085
vt 0.238214 0.533925
vt 0.380915 0.523414
vt 0.214800 0.532784
vt 0.357803 0.527190
vt 0.187467 0.530534
vt 0.336908 0.529948
vt 0.153011 0.526360
vt 0.317269 0.531963
vt 0.101913 0.517689
vt 0.298187 0.533380
vt 0.545154 0.472691
vt 0.491338 0.495622
vt 0.045854 0.500997
vt 0.279061 0.534111
vt 0.150557 0.541051
vt 0.339116 0.548934
vt 0.318921 0.551274
vt 0.099214 0.528993
vt 0.299281 0.552821
vt 0.548483 0.479964
vt 0.495298 0.506548
vt 0.043364 0.508598
vt 0.279587 0.553491
vt 0.445648 0.524344
vt 0.259248 0.553438
vt 0.411585 0.534385
vt 0.237547 0.552566
vt 0.384220 0.540996
vt 0.213505 0.550639
vt 0.360567 0.545623
vt 0.185551 0.547167
vt 0.236342 0.571718
vt 0.416247 0.550864
vt 0.388277 0.558914
vt 0.211500 0.568911
vt 0.363923 0.564508
vt 0.182784 0.564075
vt 0.341739 0.568448
vt 0.147198 0.555829
vt 0.320800 0.571158
vt 0.095792 0.540210
vt 0.300411 0.572857
vt 0.552264 0.487043
vt 0.499967 0.517305
vt 0.040405 0.516058
vt 0.279957 0.573465
vt 0.450661 0.538643
vt 0.258840 0.573131
vt 0.091598 0.551279
vt 0.322953 0.591815
vt 0.301588 0.593689
vt 0.556469 0.493821
vt 0.505386 0.527827
vt 0.036991 0.523268
vt 0.280145 0.594236
vt 0.456695 0.552908
vt 0.258019 0.593586
vt 0.421928 0.567565
vt 0.234501 0.591548
vt 0.393228 0.577275
vt 0.208655 0.587720
vt 0.367990 0.583996
vt 0.179031 0.581318
vt 0.344860 0.588674
vt 0.142819 0.570688
vt 0.428812 0.584537
vt 0.399263 0.596204
vt 0.204799 0.607216
vt 0.372928 0.604283
vt 0.174110 0.598964
vt 0.348591 0.609850
vt 0.137279 0.585613
vt 0.325438 0.613497
vt 0.086574 0.562133
vt 0.302824 0.615556
vt 0.561068 0.500192
vt 0.511605 0.538042
vt 0.033140 0.530118
vt 0.280122 0.616063
vt 0.463887 0.567107
vt 0.256702 0.615052
vt 0.231886 0.612268
vt 0.328319 0.636543
vt 0.304133 0.638674
vt 0.566017 0.506051
vt 0.518676 0.547864
vt 0.028884 0.536500
vt 0.080659 0.572693
vt 0.279861 0.639288
vt 0.472402 0.581187
vt 0.254774 0.637862
vt 0.437140 0.601821
vt 0.228310 0.634147
vt 0.406629 0.615852
vt 0.199700 0.627576
vt 0.378951 0.625613
vt 0.167790 0.617083
vt 0.353081 0.632293
vt 0.130412 0.600569
vt 0.223433 0.657446
vt 0.193115 0.648951
vt 0.386429 0.648208
vt 0.159996 0.635740
vt 0.358740 0.656353
vt 0.122378 0.615579
vt 0.331951 0.661512
vt 0.074583 0.583336
vt 0.305573 0.664087
vt 0.573768 0.515393
vt 0.525916 0.557750
vt 0.022239 0.546661
vt 0.279072 0.664509
vt 0.482082 0.595189
vt 0.251869 0.662410
vt 0.446993 0.619472
vt 0.415587 0.636342
vt 0.577843 0.520234
vt 0.534137 0.566900
vt 0.018737 0.551932
vt 0.067450 0.593359
vt 0.307153 0.691955
vt 0.277815 0.692188
vt 0.493509 0.608846
vt 0.247883 0.689175
vt 0.458930 0.637401
vt 0.216956 0.682529
vt 0.426615 0.657800
vt 0.184583 0.671522
vt 0.395699 0.672395
vt 0.150163 0.654907
vt 0.365725 0.682494
vt 0.112569 0.630445
vt 0.336328 0.688871
vt 0.407336 0.698554
vt 0.173547 0.695489
vt 0.137824 0.674549
vt 0.374509 0.711309
vt 0.100716 0.644970
vt 0.341742 0.719364
vt 0.059184 0.602604
vt 0.308921 0.723135
vt 0.581993 0.523974
vt 0.543394 0.575149
vt 0.015036 0.556119
vt 0.275883 0.723099
vt 0.506928 0.621936
vt 0.242413 0.718800
vt 0.473409 0.655518
vt 0.208351 0.709840
vt 0.440290 0.680362
vt 0.310942 0.758768
vt 0.272968 0.758314
vt 0.522599 0.634127
vt 0.234856 0.752140
vt 0.491002 0.673611
vt 0.196847 0.739906
vt 0.457392 0.704102
vt 0.159238 0.721015
vt 0.422166 0.727124
vt 0.122390 0.694519
vt 0.385787 0.743578
vt 0.086523 0.658858
vt 0.348620 0.754022
vt 0.049741 0.610868
vt 0.586046 0.526572
vt 0.553710 0.582290
vt 0.011302 0.559159
vt 0.140594 0.748165
vt 0.103122 0.714490
vt 0.400624 0.780327
vt 0.069690 0.671664
vt 0.357624 0.794306
vt 0.039116 0.617892
vt 0.313309 0.800495
vt 0.589771 0.528022
vt 0.565060 0.588066
vt 0.007764 0.561022
vt 0.268578 0.799359
vt 0.540770 0.644944
vt 0.224271 0.790334
vt 0.512403 0.691271
vt 0.181300 0.773332
vt 0.478986 0.728966
vt 0.441393 0.758574
vt 0.261854 0.848490
vt 0.209118 0.834916
vt 0.538424 0.707771
vt 0.159971 0.810753
vt 0.506518 0.754623
vt 0.116140 0.776775
vt 0.466817 0.793339
vt 0.079132 0.733830
vt 0.420722 0.822906
vt 0.049954 0.682743
vt 0.369864 0.842359
vt 0.027368 0.623366
vt 0.316166 0.850825
vt 0.592894 0.528387
vt 0.577350 0.592175
vt 0.004703 0.561739
vt 0.561630 0.653717
vt 0.049421 0.751427
vt 0.027179 0.691197
vt 0.387357 0.901476
vt 0.014653 0.626935
vt 0.319751 0.913988
vt 0.595116 0.527845
vt 0.590386 0.594281
vt 0.002433 0.561451
vt 0.251162 0.909208
vt 0.585212 0.659539
vt 0.186769 0.887903
vt 0.569932 0.721890
vt 0.130179 0.852671
vt 0.541917 0.780214
vt 0.083861 0.806211
vt 0.501159 0.831613
vt 0.448923 0.873021
vt 0.607622 0.731712
vt 0.152667 0.951751
vt 0.087863 0.899083
vt 0.587588 0.803933
vt 0.041163 0.834950
vt 0.548452 0.872933
vt 0.013080 0.765452
vt 0.490031 0.932595
vt 0.001528 0.695854
vt 0.414204 0.976641
vt 0.001278 0.628222
vt 0.324562 0.998722
vt 0.596166 0.526858
vt 0.603818 0.594047
vt 0.001278 0.560590
vt 0.232995 0.986931
vt 0.611222 0.661263
vt 0.341556 0.009220
vt 0.384538 0.092193
vt 0.328123 0.075900
vt 0.002847 0.285142
vt 0.015960 0.348250
vt 0.003654 0.347273
vt 0.264592 0.001278
vt 0.269254 0.072809
vt 0.570119 0.314054
vt 0.576511 0.376572
vt 0.557877 0.316507
vt 0.004691 0.409399
vt 0.211419 0.083350
vt 0.189515 0.019397
vt 0.563495 0.251559
vt 0.540388 0.258139
vt 0.158184 0.106639
vt 0.124769 0.054686
vt 0.546627 0.189317
vt 0.514994 0.205019
vt 0.111663 0.140680
vt 0.072681 0.102928
vt 0.515641 0.129708
vt 0.479865 0.158373
vt 0.073447 0.183661
vt 0.034857 0.160137
vt 0.469972 0.077069
vt 0.435818 0.120183
vt 0.044821 0.233698
vt 0.011938 0.222181
vt 0.411082 0.035666
vt 0.026293 0.288856
vt 0.140404 0.175450
vt 0.489371 0.223233
vt 0.452860 0.186833
vt 0.103523 0.208153
vt 0.411581 0.158853
vt 0.072193 0.248425
vt 0.366819 0.139511
vt 0.047308 0.295963
vt 0.319964 0.128985
vt 0.027735 0.351324
vt 0.272618 0.127412
vt 0.575315 0.376056
vt 0.546425 0.321002
vt 0.005802 0.408785
vt 0.225994 0.134522
vt 0.520165 0.267833
vt 0.181614 0.150741
vt 0.038704 0.356175
vt 0.314524 0.172792
vt 0.275044 0.171686
vt 0.573190 0.376250
vt 0.536000 0.327177
vt 0.007889 0.408760
vt 0.236298 0.176501
vt 0.502839 0.279630
vt 0.198741 0.188511
vt 0.468822 0.242551
vt 0.162055 0.207069
vt 0.432422 0.214116
vt 0.127083 0.232372
vt 0.394132 0.193396
vt 0.094771 0.264889
vt 0.354604 0.179784
vt 0.065752 0.305491
vt 0.452420 0.262142
vt 0.416889 0.239860
vt 0.145698 0.255770
vt 0.381431 0.224355
vt 0.113335 0.282173
vt 0.346031 0.214713
vt 0.081724 0.316689
vt 0.310471 0.210529
vt 0.048726 0.362498
vt 0.276311 0.209049
vt 0.570474 0.377490
vt 0.526706 0.334709
vt 0.010665 0.409690
vt 0.243979 0.211125
vt 0.488209 0.292781
vt 0.212029 0.221365
vt 0.178806 0.235842
vt 0.807536 0.098136
vt 0.847950 0.136845
vt 0.809401 0.137968
vt 0.567457 0.379859
vt 0.518572 0.343319
vt 0.013858 0.411689
vt 0.057735 0.370030
vt 0.771147 0.140221
vt 0.767186 0.101650
vt 0.475997 0.306762
vt 0.732860 0.143903
vt 0.727542 0.107782
vt 0.439373 0.281555
vt 0.693800 0.148558
vt 0.688459 0.115660
vt 0.405046 0.264024
vt 0.160488 0.278184
vt 0.372178 0.252245
vt 0.128576 0.299740
vt 0.340314 0.245145
vt 0.095423 0.329013
vt 0.847953 0.097848
vt 0.887387 0.136625
vt 0.192103 0.262324
vt 0.172170 0.299631
vt 0.395976 0.286764
vt 0.365335 0.277746
vt 0.141074 0.317295
vt 0.336364 0.272432
vt 0.107083 0.342080
vt 0.887948 0.173975
vt 0.848598 0.174754
vt 0.065725 0.378546
vt 0.810884 0.175852
vt 0.564387 0.383357
vt 0.511576 0.352784
vt 0.017228 0.414787
vt 0.773670 0.177256
vt 0.465912 0.321217
vt 0.736051 0.179338
vt 0.429029 0.300575
vt 0.696847 0.181880
vt 0.020584 0.418962
vt 0.072724 0.387867
vt 0.775104 0.213535
vt 0.505665 0.362927
vt 0.457681 0.335912
vt 0.737738 0.214463
vt 0.420879 0.319128
vt 0.698270 0.215525
vt 0.389031 0.308296
vt 0.201544 0.287089
vt 0.181585 0.320221
vt 0.360205 0.301472
vt 0.151332 0.334686
vt 0.333397 0.297736
vt 0.116939 0.355621
vt 0.888785 0.211553
vt 0.849237 0.212196
vt 0.811831 0.212874
vt 0.561459 0.387933
vt 0.558810 0.393518
vt 0.023785 0.424167
vt 0.209345 0.310326
vt 0.941858 0.709842
vt 0.925149 0.812219
vt 0.923411 0.505422
vt 0.920836 0.655330
vt 0.933250 0.556049
vt 0.950204 0.851370
vt 0.933275 0.731727
vt 0.944618 0.707057
vt 0.945262 0.733250
vt 0.950204 0.500617
vt 0.940822 0.478444
vt 0.936485 0.679723
vt 0.932562 0.500238
vt 0.921707 0.629986
vt 0.915878 0.656929
vt 0.924810 0.685412
vt 0.922135 0.838951
vt 0.922937 0.877238
vt 0.931472 0.605490
vt 0.932670 0.632863
vt 0.940326 0.832434
vt 0.937533 0.581037
vt 0.937378 0.606621
vt 0.924022 0.784333
vt 0.938186 0.809154
vt 0.924301 0.581971
vt 0.926551 0.757271
vt 0.939127 0.784262
vt 0.924742 0.527027
vt 0.921562 0.554928
vt 0.938811 0.758940
vt 0.942489 0.522660
vt 0.215604 0.331912
vt 0.887956 0.399660
vt 0.887956 0.099396
s 0
usemtl マテリアル
f 11/1/1 7/2/1 3/3/1
f 25/4/2 29/5/2 18/6/2
f 15/7/3 30/8/3 14/9/3
f 8/10/4 23/11/4 7/2/4
f 16/12/5 31/13/5 15/7/5
f 9/14/6 24/15/6 8/10/6
f 2/16/7 18/6/7 1/17/7
f 1/17/8 32/18/8 16/12/8
f 10/19/9 25/4/9 9/14/9
f 3/3/10 17/20/10 2/16/10
f 11/1/11 26/21/11 10/19/11
f 4/22/12 19/23/12 3/3/12
f 12/24/13 27/25/13 11/1/13
f 5/26/14 20/27/14 4/22/14
f 13/28/15 28/29/15 12/24/15
f 6/30/16 21/31/16 5/26/16
f 14/9/17 29/5/17 13/28/17
f 7/2/18 22/32/18 6/30/18
f 508/33/19 43/34/19 34/35/19
f 512/36/20 50/37/20 51/38/20
f 34/35/21 44/39/21 509/40/21
f 513/41/22 51/38/22 52/42/22
f 509/43/23 45/44/23 35/45/23
f 514/46/24 52/42/24 53/47/24
f 35/45/25 46/48/25 36/49/25
f 506/50/26 114/51/26 39/52/26
f 340/53/27 514/46/27 53/47/27
f 37/54/28 46/48/28 47/55/28
f 506/50/29 40/56/29 507/57/29
f 510/58/30 47/55/30 48/59/30
f 507/57/31 41/60/31 33/61/31
f 38/62/32 48/59/32 49/63/32
f 33/61/33 42/64/33 508/33/33
f 511/65/34 49/66/34 50/37/34
f 49/63/35 63/67/35 64/68/35
f 41/60/36 57/69/36 42/64/36
f 50/37/37 64/70/37 65/71/37
f 42/64/38 58/72/38 43/34/38
f 51/38/39 65/71/39 66/73/39
f 43/34/40 59/74/40 44/39/40
f 52/42/41 66/73/41 67/75/41
f 44/76/42 60/77/42 45/44/42
f 53/47/43 67/75/43 68/78/43
f 45/44/44 61/79/44 46/48/44
f 39/52/45 114/80/45 54/81/45
f 340/82/46 53/47/46 68/78/46
f 47/55/47 61/79/47 62/83/47
f 39/52/48 55/84/48 40/56/48
f 48/59/49 62/83/49 63/67/49
f 40/56/50 56/85/50 41/60/50
f 68/78/51 82/86/51 83/87/51
f 60/77/52 76/88/52 61/79/52
f 54/81/53 114/89/53 69/90/53
f 340/91/54 68/78/54 83/87/54
f 62/83/55 76/88/55 77/92/55
f 54/81/56 70/93/56 55/84/56
f 63/67/57 77/92/57 78/94/57
f 55/84/58 71/95/58 56/85/58
f 64/68/59 78/94/59 79/96/59
f 56/85/60 72/97/60 57/69/60
f 65/71/61 79/98/61 80/99/61
f 57/69/62 73/100/62 58/72/62
f 66/73/63 80/99/63 81/101/63
f 58/72/64 74/102/64 59/74/64
f 67/75/65 81/101/65 82/86/65
f 59/103/66 75/104/66 60/77/66
f 80/99/67 94/105/67 95/106/67
f 72/97/68 88/107/68 73/100/68
f 81/101/69 95/106/69 96/108/69
f 73/100/70 89/109/70 74/102/70
f 82/86/71 96/108/71 97/110/71
f 74/111/72 90/112/72 75/104/72
f 83/87/73 97/110/73 98/113/73
f 75/104/74 91/114/74 76/88/74
f 69/90/75 114/115/75 84/116/75
f 340/117/76 83/87/76 98/113/76
f 77/92/77 91/114/77 92/118/77
f 69/90/78 85/119/78 70/93/78
f 78/94/79 92/118/79 93/120/79
f 70/93/80 86/121/80 71/95/80
f 79/96/81 93/120/81 94/122/81
f 71/95/82 87/123/82 72/97/82
f 84/116/83 114/124/83 99/125/83
f 340/126/84 98/113/84 113/127/84
f 92/128/85 106/129/85 107/130/85
f 84/116/86 100/131/86 85/119/86
f 93/132/87 107/130/87 108/133/87
f 85/119/88 101/134/88 86/121/88
f 94/105/89 108/133/89 109/135/89
f 86/121/90 102/136/90 87/123/90
f 95/106/91 109/135/91 110/137/91
f 87/123/92 103/138/92 88/107/92
f 96/108/93 110/137/93 111/139/93
f 88/107/94 104/140/94 89/109/94
f 97/110/95 111/139/95 112/141/95
f 89/109/96 105/142/96 90/143/96
f 98/113/97 112/141/97 113/127/97
f 90/143/98 106/129/98 91/144/98
f 102/136/99 119/145/99 103/138/99
f 111/139/100 126/146/100 127/147/100
f 103/138/101 120/148/101 104/140/101
f 112/141/102 127/147/102 128/149/102
f 104/140/103 121/150/103 105/142/103
f 113/127/104 128/149/104 129/151/104
f 105/142/105 122/152/105 106/129/105
f 99/125/106 114/153/106 115/154/106
f 340/155/107 113/127/107 129/151/107
f 107/130/108 122/152/108 123/156/108
f 99/125/109 116/157/109 100/131/109
f 108/133/110 123/156/110 124/158/110
f 100/131/111 117/159/111 101/134/111
f 109/135/112 124/158/112 125/160/112
f 101/134/113 118/161/113 102/136/113
f 110/137/114 125/160/114 126/146/114
f 123/156/115 137/162/115 138/163/115
f 115/154/116 131/164/116 116/157/116
f 124/158/117 138/163/117 139/165/117
f 116/157/118 132/166/118 117/159/118
f 125/160/119 139/165/119 140/167/119
f 117/159/120 133/168/120 118/161/120
f 126/146/121 140/167/121 141/169/121
f 118/161/122 134/170/122 119/145/122
f 127/147/123 141/169/123 142/171/123
f 119/145/124 135/172/124 120/148/124
f 128/149/125 142/171/125 143/173/125
f 120/148/126 136/174/126 121/150/126
f 129/151/127 143/173/127 144/175/127
f 121/150/128 137/162/128 122/152/128
f 115/154/129 114/176/129 130/177/129
f 340/178/130 129/151/130 144/175/130
f 142/171/131 156/179/131 157/180/131
f 134/170/132 150/181/132 135/172/132
f 143/173/133 157/180/133 158/182/133
f 135/172/134 151/183/134 136/174/134
f 144/175/135 158/182/135 159/184/135
f 136/174/136 152/185/136 137/162/136
f 130/177/137 114/186/137 145/187/137
f 340/188/138 144/175/138 159/184/138
f 138/163/139 152/185/139 153/189/139
f 130/177/140 146/190/140 131/164/140
f 139/165/141 153/189/141 154/191/141
f 131/164/142 147/192/142 132/166/142
f 140/167/143 154/191/143 155/193/143
f 132/166/144 148/194/144 133/168/144
f 141/169/145 155/193/145 156/179/145
f 133/168/146 149/195/146 134/170/146
f 146/190/147 160/196/147 161/197/147
f 153/189/148 169/198/148 154/191/148
f 147/192/149 161/197/149 162/199/149
f 154/191/150 170/200/150 155/193/150
f 148/194/151 162/199/151 163/201/151
f 155/193/152 171/202/152 156/179/152
f 149/195/153 163/201/153 164/203/153
f 156/179/154 172/204/154 157/180/154
f 150/181/155 164/203/155 165/205/155
f 157/180/156 173/206/156 158/182/156
f 151/183/157 165/205/157 166/207/157
f 158/182/158 174/208/158 159/184/158
f 152/185/159 166/207/159 167/209/159
f 145/187/160 114/210/160 160/196/160
f 340/211/161 159/184/161 174/208/161
f 152/185/162 168/212/162 153/189/162
f 165/205/163 179/213/163 180/214/163
f 172/204/164 188/215/164 173/206/164
f 166/207/165 180/214/165 181/216/165
f 173/206/166 189/217/166 174/208/166
f 167/209/167 181/216/167 182/218/167
f 160/196/168 114/219/168 175/220/168
f 340/221/169 174/208/169 189/217/169
f 167/209/170 183/222/170 168/212/170
f 161/197/171 175/220/171 176/223/171
f 168/212/172 184/224/172 169/198/172
f 162/199/173 176/223/173 177/225/173
f 169/198/174 185/226/174 170/200/174
f 163/201/175 177/225/175 178/227/175
f 170/200/176 186/228/176 171/202/176
f 164/203/177 178/227/177 179/213/177
f 171/202/178 187/229/178 172/204/178
f 183/222/179 199/230/179 184/224/179
f 177/225/180 191/231/180 192/232/180
f 184/224/181 200/233/181 185/226/181
f 178/227/182 192/232/182 193/234/182
f 185/226/183 201/235/183 186/228/183
f 179/213/184 193/234/184 194/236/184
f 186/228/185 202/237/185 187/229/185
f 180/214/186 194/236/186 195/238/186
f 187/229/187 203/239/187 188/215/187
f 181/216/188 195/238/188 196/240/188
f 188/215/189 204/241/189 189/217/189
f 182/218/190 196/240/190 197/242/190
f 175/220/191 114/243/191 190/244/191
f 340/245/192 189/217/192 204/241/192
f 182/218/193 198/246/193 183/222/193
f 176/223/194 190/244/194 191/231/194
f 202/237/195 218/247/195 203/239/195
f 196/240/196 210/248/196 211/249/196
f 203/239/197 219/250/197 204/241/197
f 197/242/198 211/249/198 212/251/198
f 190/244/199 114/252/199 205/253/199
f 340/254/200 204/241/200 219/250/200
f 197/242/201 213/255/201 198/246/201
f 191/231/202 205/253/202 206/256/202
f 198/246/203 214/257/203 199/230/203
f 192/232/204 206/256/204 207/258/204
f 199/230/205 215/259/205 200/233/205
f 193/234/206 207/258/206 208/260/206
f 200/233/207 216/261/207 201/235/207
f 194/236/208 208/260/208 209/262/208
f 201/235/209 217/263/209 202/237/209
f 195/238/210 209/262/210 210/248/210
f 214/257/211 230/264/211 215/259/211
f 208/260/212 222/265/212 223/266/212
f 215/259/213 231/267/213 216/261/213
f 209/262/214 223/266/214 224/268/214
f 216/261/215 232/269/215 217/263/215
f 210/248/216 224/268/216 225/270/216
f 217/263/217 233/271/217 218/247/217
f 211/249/218 225/270/218 226/272/218
f 218/247/219 234/273/219 219/250/219
f 212/251/220 226/272/220 227/274/220
f 205/253/221 114/275/221 220/276/221
f 340/277/222 219/250/222 234/273/222
f 212/251/223 228/278/223 213/255/223
f 206/256/224 220/276/224 221/279/224
f 213/255/225 229/280/225 214/257/225
f 207/258/226 221/279/226 222/265/226
f 233/271/227 249/281/227 234/273/227
f 227/274/228 241/282/228 242/283/228
f 220/276/229 114/284/229 235/285/229
f 340/286/230 234/273/230 249/281/230
f 227/274/231 243/287/231 228/278/231
f 221/279/232 235/285/232 236/288/232
f 228/278/233 244/289/233 229/280/233
f 222/265/234 236/288/234 237/290/234
f 229/280/235 245/291/235 230/264/235
f 223/266/236 237/290/236 238/292/236
f 230/264/237 246/293/237 231/267/237
f 224/268/238 238/292/238 239/294/238
f 231/267/239 247/295/239 232/269/239
f 225/270/240 239/294/240 240/296/240
f 232/269/241 248/297/241 233/271/241
f 226/272/242 240/296/242 241/282/242
f 238/292/243 252/298/243 253/299/243
f 245/291/244 261/300/244 246/293/244
f 239/294/245 253/299/245 254/301/245
f 246/293/246 262/302/246 247/295/246
f 240/296/247 254/301/247 255/303/247
f 247/295/248 263/304/248 248/297/248
f 241/282/249 255/303/249 256/305/249
f 248/297/250 264/306/250 249/281/250
f 242/283/251 256/305/251 257/307/251
f 235/285/252 114/308/252 250/309/252
f 340/310/253 249/281/253 264/306/253
f 242/283/254 258/311/254 243/287/254
f 236/288/255 250/309/255 251/312/255
f 243/287/256 259/313/256 244/289/256
f 237/290/257 251/312/257 252/298/257
f 244/289/258 260/314/258 245/291/258
f 257/307/259 271/315/259 272/316/259
f 250/309/260 114/317/260 265/318/260
f 340/319/261 264/306/261 279/320/261
f 257/307/262 273/321/262 258/311/262
f 251/312/263 265/318/263 266/322/263
f 258/311/264 274/323/264 259/313/264
f 252/298/265 266/322/265 267/324/265
f 259/313/266 275/325/266 260/314/266
f 253/299/267 267/324/267 268/326/267
f 260/314/268 276/327/268 261/300/268
f 254/301/269 268/326/269 269/328/269
f 261/300/270 277/329/270 262/302/270
f 255/303/271 269/328/271 270/330/271
f 262/302/272 278/331/272 263/304/272
f 256/305/273 270/330/273 271/315/273
f 263/304/274 279/320/274 264/306/274
f 276/327/275 290/332/275 291/333/275
f 268/326/276 284/334/276 269/328/276
f 277/329/277 291/333/277 292/335/277
f 269/328/278 285/336/278 270/330/278
f 278/331/279 292/335/279 293/337/279
f 270/330/280 286/338/280 271/315/280
f 279/320/281 293/337/281 294/339/281
f 271/315/282 287/340/282 272/316/282
f 265/318/283 114/341/283 280/342/283
f 340/343/284 279/320/284 294/339/284
f 273/321/285 287/340/285 288/344/285
f 265/318/286 281/345/286 266/322/286
f 274/323/287 288/344/287 289/346/287
f 266/322/288 282/347/288 267/324/288
f 275/325/289 289/346/289 290/332/289
f 267/324/290 283/348/290 268/326/290
f 280/342/291 114/349/291 295/350/291
f 340/351/292 294/339/292 309/352/292
f 288/344/293 302/353/293 303/354/293
f 280/342/294 296/355/294 281/345/294
f 289/346/295 303/354/295 304/356/295
f 281/345/296 297/357/296 282/347/296
f 290/332/297 304/356/297 305/358/297
f 282/347/298 298/359/298 283/348/298
f 291/333/299 305/358/299 306/360/299
f 283/348/300 299/361/300 284/334/300
f 292/335/301 306/360/301 307/362/301
f 284/334/302 300/363/302 285/336/302
f 293/337/303 307/362/303 308/364/303
f 285/336/304 301/365/304 286/338/304
f 294/339/305 308/364/305 309/352/305
f 286/338/306 302/353/306 287/340/306
f 298/359/307 314/366/307 299/361/307
f 307/362/308 321/367/308 322/368/308
f 299/361/309 315/369/309 300/363/309
f 308/364/310 322/368/310 323/370/310
f 300/363/311 316/371/311 301/365/311
f 309/352/312 323/370/312 324/372/312
f 301/365/313 317/373/313 302/353/313
f 295/350/314 114/374/314 310/375/314
f 340/376/315 309/352/315 324/372/315
f 303/354/316 317/373/316 318/377/316
f 295/350/317 311/378/317 296/355/317
f 304/356/318 318/377/318 319/379/318
f 296/355/319 312/380/319 297/357/319
f 305/358/320 319/379/320 320/381/320
f 297/357/321 313/382/321 298/359/321
f 306/360/322 320/381/322 321/367/322
f 318/377/323 332/383/323 333/384/323
f 310/375/324 326/385/324 311/378/324
f 319/379/325 333/384/325 334/386/325
f 311/378/326 327/387/326 312/380/326
f 320/381/327 334/386/327 335/388/327
f 312/380/328 328/389/328 313/382/328
f 321/367/329 335/388/329 336/390/329
f 313/382/330 329/391/330 314/366/330
f 322/368/331 336/390/331 337/392/331
f 314/366/332 330/393/332 315/369/332
f 323/370/333 337/392/333 338/394/333
f 315/369/334 331/395/334 316/371/334
f 324/372/335 338/394/335 339/396/335
f 316/371/336 332/383/336 317/373/336
f 310/375/337 114/397/337 325/398/337
f 340/399/338 324/372/338 339/396/338
f 337/392/339 352/400/339 353/401/339
f 329/391/340 346/402/340 330/393/340
f 338/394/341 353/401/341 354/403/341
f 330/393/342 347/404/342 331/395/342
f 339/396/343 354/403/343 355/405/343
f 331/395/344 348/406/344 332/383/344
f 325/398/345 114/407/345 341/408/345
f 340/409/346 339/396/346 355/405/346
f 333/384/347 348/406/347 349/410/347
f 325/398/348 342/411/348 326/385/348
f 334/386/349 349/410/349 350/412/349
f 326/385/350 343/413/350 327/387/350
f 335/388/351 350/412/351 351/414/351
f 327/387/352 344/415/352 328/389/352
f 336/390/353 351/414/353 352/400/353
f 328/389/354 345/416/354 329/391/354
f 350/412/355 364/417/355 365/418/355
f 342/411/356 358/419/356 343/413/356
f 351/414/357 365/418/357 366/420/357
f 343/413/358 359/421/358 344/415/358
f 352/400/359 366/420/359 367/422/359
f 344/415/360 360/423/360 345/416/360
f 353/401/361 367/422/361 368/424/361
f 345/416/362 361/425/362 346/402/362
f 354/403/363 368/424/363 369/426/363
f 346/402/364 362/427/364 347/404/364
f 355/405/365 369/426/365 370/428/365
f 347/404/366 363/429/366 348/406/366
f 341/408/367 114/430/367 356/431/367
f 340/432/368 355/405/368 370/428/368
f 349/410/369 363/429/369 364/417/369
f 341/408/370 357/433/370 342/411/370
f 369/426/371 383/434/371 384/435/371
f 361/425/372 377/436/372 362/427/372
f 370/428/373 384/435/373 385/437/373
f 362/427/374 378/438/374 363/429/374
f 356/431/375 114/439/375 371/440/375
f 340/441/376 370/428/376 385/437/376
f 364/417/377 378/438/377 379/442/377
f 356/431/378 372/443/378 357/433/378
f 365/418/379 379/442/379 380/444/379
f 357/433/380 373/445/380 358/419/380
f 366/420/381 380/444/381 381/446/381
f 358/419/382 374/447/382 359/421/382
f 367/422/383 381/446/383 382/448/383
f 359/421/384 375/449/384 360/423/384
f 368/424/385 382/448/385 383/434/385
f 360/423/386 376/450/386 361/425/386
f 372/443/387 388/451/387 373/445/387
f 381/446/388 395/452/388 396/453/388
f 373/445/389 389/454/389 374/447/389
f 382/448/390 396/453/390 397/455/390
f 374/447/391 390/456/391 375/449/391
f 383/434/392 397/455/392 398/457/392
f 375/449/393 391/458/393 376/450/393
f 384/435/394 398/457/394 399/459/394
f 376/450/395 392/460/395 377/436/395
f 385/437/396 399/459/396 400/461/396
f 377/436/397 393/462/397 378/438/397
f 371/440/398 114/463/398 386/464/398
f 340/465/399 385/437/399 400/461/399
f 379/442/400 393/462/400 394/466/400
f 371/440/401 387/467/401 372/443/401
f 380/444/402 394/466/402 395/452/402
f 392/468/403 406/469/403 407/470/403
f 399/471/404 415/472/404 400/473/404
f 393/474/405 407/470/405 408/475/405
f 386/476/406 114/477/406 401/478/406
f 340/479/407 400/473/407 415/472/407
f 393/474/408 409/480/408 394/481/408
f 387/482/409 401/478/409 402/483/409
f 394/481/410 410/484/410 395/485/410
f 388/486/411 402/483/411 403/487/411
f 395/485/412 411/488/412 396/489/412
f 389/490/413 403/487/413 404/491/413
f 396/489/414 412/492/414 397/493/414
f 390/494/415 404/491/415 405/495/415
f 397/493/416 413/496/416 398/497/416
f 391/498/417 405/495/417 406/469/417
f 398/497/418 414/499/418 399/471/418
f 410/484/419 426/500/419 411/488/419
f 404/491/420 418/501/420 419/502/420
f 411/488/421 427/503/421 412/492/421
f 405/495/422 419/502/422 420/504/422
f 412/492/423 428/505/423 413/496/423
f 406/469/424 420/504/424 421/506/424
f 413/496/425 429/507/425 414/499/425
f 407/470/426 421/506/426 422/508/426
f 414/499/427 430/509/427 415/472/427
f 408/475/428 422/508/428 423/510/428
f 401/478/429 114/511/429 416/512/429
f 340/513/430 415/472/430 430/509/430
f 408/475/431 424/514/431 409/480/431
f 402/483/432 416/512/432 417/515/432
f 409/480/433 425/516/433 410/484/433
f 403/487/434 417/515/434 418/501/434
f 429/507/435 445/517/435 430/509/435
f 423/510/436 437/518/436 438/519/436
f 416/512/437 114/520/437 431/521/437
f 340/522/438 430/509/438 445/517/438
f 423/510/439 439/523/439 424/514/439
f 417/515/440 431/521/440 432/524/440
f 424/514/441 440/525/441 425/516/441
f 418/501/442 432/524/442 433/526/442
f 425/516/443 441/527/443 426/500/443
f 419/502/444 433/526/444 434/528/444
f 426/500/445 442/529/445 427/503/445
f 420/504/446 434/528/446 435/530/446
f 427/503/447 443/531/447 428/505/447
f 421/506/448 435/530/448 436/532/448
f 428/505/449 444/533/449 429/507/449
f 422/508/450 436/532/450 437/518/450
f 434/528/451 448/534/451 449/535/451
f 441/527/452 457/536/452 442/529/452
f 435/530/453 449/535/453 450/537/453
f 442/529/454 458/538/454 443/531/454
f 436/532/455 450/537/455 451/539/455
f 443/531/456 459/540/456 444/533/456
f 437/518/457 451/539/457 452/541/457
f 444/533/458 460/542/458 445/517/458
f 438/519/459 452/541/459 453/543/459
f 431/521/460 114/544/460 446/545/460
f 340/546/461 445/517/461 460/542/461
f 438/519/462 454/547/462 439/523/462
f 432/524/463 446/545/463 447/548/463
f 439/523/464 455/549/464 440/525/464
f 433/526/465 447/548/465 448/534/465
f 440/525/466 456/550/466 441/527/466
f 453/551/467 467/552/467 468/553/467
f 446/545/468 114/554/468 461/555/468
f 340/556/469 460/542/469 475/557/469
f 453/551/470 469/558/470 454/559/470
f 447/548/471 461/555/471 462/560/471
f 454/559/472 470/561/472 455/562/472
f 448/534/473 462/560/473 463/563/473
f 455/562/474 471/564/474 456/565/474
f 449/535/475 463/563/475 464/566/475
f 456/550/476 472/567/476 457/536/476
f 450/537/477 464/566/477 465/568/477
f 457/536/478 473/569/478 458/538/478
f 451/539/479 465/568/479 466/570/479
f 458/538/480 474/571/480 459/540/480
f 452/572/481 466/573/481 467/552/481
f 459/540/482 475/557/482 460/542/482
f 471/574/483 487/575/483 472/567/483
f 465/568/484 479/576/484 480/577/484
f 472/567/485 488/578/485 473/569/485
f 466/570/486 480/577/486 481/579/486
f 473/569/487 489/580/487 474/571/487
f 467/552/488 481/581/488 482/582/488
f 474/571/489 490/583/489 475/557/489
f 468/553/490 482/582/490 483/584/490
f 461/555/491 114/585/491 476/586/491
f 340/587/492 475/557/492 490/583/492
f 468/553/493 484/588/493 469/558/493
f 462/560/494 476/586/494 477/589/494
f 469/558/495 485/590/495 470/561/495
f 463/563/496 477/589/496 478/591/496
f 470/561/497 486/592/497 471/564/497
f 464/566/498 478/591/498 479/576/498
f 340/593/499 490/583/499 505/594/499
f 483/584/500 499/595/500 484/588/500
f 477/589/501 491/596/501 492/597/501
f 484/588/502 500/598/502 485/590/502
f 478/591/503 492/597/503 493/599/503
f 485/590/504 501/600/504 486/592/504
f 479/576/505 493/599/505 494/601/505
f 486/602/506 502/603/506 487/575/506
f 480/577/507 494/601/507 495/604/507
f 487/575/508 503/605/508 488/578/508
f 481/579/509 495/604/509 496/606/509
f 488/578/510 504/607/510 489/580/510
f 482/582/511 496/608/511 497/609/511
f 489/580/512 505/594/512 490/583/512
f 483/584/513 497/609/513 498/610/513
f 476/586/514 114/611/514 491/596/514
f 502/603/515 512/36/515 503/605/515
f 496/606/516 34/35/516 509/40/516
f 503/605/517 513/41/517 504/607/517
f 497/609/518 509/43/518 35/45/518
f 504/607/519 514/46/519 505/594/519
f 498/610/520 35/45/520 36/49/520
f 491/596/521 114/612/521 506/50/521
f 340/613/522 505/594/522 514/46/522
f 498/610/523 37/54/523 499/595/523
f 492/597/524 506/50/524 507/57/524
f 499/595/525 510/58/525 500/598/525
f 493/599/526 507/57/526 33/61/526
f 500/598/527 38/62/527 501/600/527
f 494/601/528 33/61/528 508/33/528
f 501/614/529 511/65/529 502/603/529
f 495/604/530 508/33/530 34/35/530
f 529/615/531 525/616/531 521/617/531
f 532/618/532 535/619/532 539/620/532
f 528/621/533 545/622/533 544/623/533
f 521/617/534 538/624/534 537/625/534
f 529/615/535 546/626/535 545/622/535
f 522/627/536 539/620/536 538/624/536
f 516/628/537 532/618/537 515/629/537
f 530/630/538 532/618/538 546/626/538
f 524/631/539 539/620/539 523/632/539
f 517/633/540 531/634/540 516/628/540
f 525/616/541 540/635/541 524/631/541
f 517/633/542 534/636/542 533/637/542
f 526/638/543 541/639/543 525/616/543
f 518/640/544 535/619/544 534/636/544
f 527/641/545 542/642/545 526/638/545
f 520/643/546 535/619/546 519/644/546
f 527/641/547 544/623/547 543/645/547
f 520/643/548 537/625/548 536/646/548
f 3/3/1 2/16/1 1/17/1
f 1/17/1 16/12/1 3/3/1
f 16/12/1 15/7/1 3/3/1
f 15/7/1 14/9/1 13/28/1
f 13/28/1 12/24/1 11/1/1
f 11/1/1 10/19/1 9/14/1
f 9/14/1 8/10/1 7/2/1
f 7/2/1 6/30/1 5/26/1
f 5/26/1 4/22/1 3/3/1
f 15/7/1 13/28/1 3/3/1
f 13/28/1 11/1/1 3/3/1
f 11/1/1 9/14/1 7/2/1
f 7/2/1 5/26/1 3/3/1
f 18/6/2 17/20/2 21/31/2
f 17/20/2 19/23/2 21/31/2
f 19/23/2 20/27/2 21/31/2
f 21/31/2 22/32/2 23/11/2
f 23/11/2 24/15/2 25/4/2
f 25/4/2 26/21/2 29/5/2
f 26/21/2 27/25/2 29/5/2
f 27/25/2 28/29/2 29/5/2
f 29/5/2 30/8/2 31/13/2
f 31/13/2 32/18/2 29/5/2
f 32/18/2 18/6/2 29/5/2
f 21/31/2 23/11/2 18/6/2
f 23/11/2 25/4/2 18/6/2
f 15/7/3 31/13/3 30/8/3
f 8/10/4 24/15/4 23/11/4
f 16/12/5 32/18/5 31/13/5
f 9/14/6 25/4/6 24/15/6
f 2/16/7 17/20/7 18/6/7
f 1/17/8 18/6/8 32/18/8
f 10/19/9 26/21/9 25/4/9
f 3/3/10 19/23/10 17/20/10
f 11/1/11 27/25/11 26/21/11
f 4/22/12 20/27/12 19/23/12
f 12/24/13 28/29/13 27/25/13
f 5/26/14 21/31/14 20/27/14
f 13/28/15 29/5/15 28/29/15
f 6/30/16 22/32/16 21/31/16
f 14/9/17 30/8/17 29/5/17
f 7/2/18 23/11/18 22/32/18
f 508/33/19 42/64/19 43/34/19
f 512/36/20 511/65/20 50/37/20
f 34/35/21 43/34/21 44/39/21
f 513/41/22 512/36/22 51/38/22
f 509/43/549 44/76/549 45/44/549
f 514/46/24 513/41/24 52/42/24
f 35/45/25 45/44/25 46/48/25
f 37/54/28 36/49/28 46/48/28
f 506/50/29 39/52/29 40/56/29
f 510/58/550 37/54/550 47/55/550
f 507/57/31 40/56/31 41/60/31
f 38/62/32 510/58/32 48/59/32
f 33/61/33 41/60/33 42/64/33
f 511/65/34 38/647/34 49/66/34
f 49/63/35 48/59/35 63/67/35
f 41/60/36 56/85/36 57/69/36
f 50/37/37 49/66/37 64/70/37
f 42/64/38 57/69/38 58/72/38
f 51/38/39 50/37/39 65/71/39
f 43/34/40 58/72/40 59/74/40
f 52/42/41 51/38/41 66/73/41
f 44/76/42 59/103/42 60/77/42
f 53/47/43 52/42/43 67/75/43
f 45/44/44 60/77/44 61/79/44
f 47/55/47 46/48/47 61/79/47
f 39/52/48 54/81/48 55/84/48
f 48/59/49 47/55/49 62/83/49
f 40/56/50 55/84/50 56/85/50
f 68/78/51 67/75/51 82/86/51
f 60/77/52 75/104/52 76/88/52
f 62/83/55 61/79/55 76/88/55
f 54/81/56 69/90/56 70/93/56
f 63/67/57 62/83/57 77/92/57
f 55/84/551 70/93/551 71/95/551
f 64/68/59 63/67/59 78/94/59
f 56/85/60 71/95/60 72/97/60
f 65/71/61 64/70/61 79/98/61
f 57/69/62 72/97/62 73/100/62
f 66/73/63 65/71/63 80/99/63
f 58/72/64 73/100/64 74/102/64
f 67/75/552 66/73/552 81/101/552
f 59/103/66 74/111/66 75/104/66
f 80/99/67 79/98/67 94/105/67
f 72/97/68 87/123/68 88/107/68
f 81/101/69 80/99/69 95/106/69
f 73/100/70 88/107/70 89/109/70
f 82/86/71 81/101/71 96/108/71
f 74/111/72 89/648/72 90/112/72
f 83/87/73 82/86/73 97/110/73
f 75/104/74 90/112/74 91/114/74
f 77/92/77 76/88/77 91/114/77
f 69/90/78 84/116/78 85/119/78
f 78/94/79 77/92/79 92/118/79
f 70/93/80 85/119/80 86/121/80
f 79/96/81 78/94/81 93/120/81
f 71/95/82 86/121/82 87/123/82
f 92/128/85 91/144/85 106/129/85
f 84/116/86 99/125/86 100/131/86
f 93/132/87 92/128/87 107/130/87
f 85/119/88 100/131/88 101/134/88
f 94/105/89 93/132/89 108/133/89
f 86/121/90 101/134/90 102/136/90
f 95/106/91 94/105/91 109/135/91
f 87/123/92 102/136/92 103/138/92
f 96/108/93 95/106/93 110/137/93
f 88/107/94 103/138/94 104/140/94
f 97/110/95 96/108/95 111/139/95
f 89/109/96 104/140/96 105/142/96
f 98/113/97 97/110/97 112/141/97
f 90/143/98 105/142/98 106/129/98
f 102/136/99 118/161/99 119/145/99
f 111/139/100 110/137/100 126/146/100
f 103/138/101 119/145/101 120/148/101
f 112/141/102 111/139/102 127/147/102
f 104/140/103 120/148/103 121/150/103
f 113/127/104 112/141/104 128/149/104
f 105/142/105 121/150/105 122/152/105
f 107/130/108 106/129/108 122/152/108
f 99/125/109 115/154/109 116/157/109
f 108/133/110 107/130/110 123/156/110
f 100/131/111 116/157/111 117/159/111
f 109/135/112 108/133/112 124/158/112
f 101/134/113 117/159/113 118/161/113
f 110/137/114 109/135/114 125/160/114
f 123/156/115 122/152/115 137/162/115
f 115/154/116 130/177/116 131/164/116
f 124/158/117 123/156/117 138/163/117
f 116/157/118 131/164/118 132/166/118
f 125/160/119 124/158/119 139/165/119
f 117/159/120 132/166/120 133/168/120
f 126/146/121 125/160/121 140/167/121
f 118/161/122 133/168/122 134/170/122
f 127/147/123 126/146/123 141/169/123
f 119/145/124 134/170/124 135/172/124
f 128/149/125 127/147/125 142/171/125
f 120/148/126 135/172/126 136/174/126
f 129/151/127 128/149/127 143/173/127
f 121/150/128 136/174/128 137/162/128
f 142/171/131 141/169/131 156/179/131
f 134/170/132 149/195/132 150/181/132
f 143/173/133 142/171/133 157/180/133
f 135/172/134 150/181/134 151/183/134
f 144/175/135 143/173/135 158/182/135
f 136/174/136 151/183/136 152/185/136
f 138/163/139 137/162/139 152/185/139
f 130/177/140 145/187/140 146/190/140
f 139/165/553 138/163/553 153/189/553
f 131/164/142 146/190/142 147/192/142
f 140/167/143 139/165/143 154/191/143
f 132/166/144 147/192/144 148/194/144
f 141/169/145 140/167/145 155/193/145
f 133/168/146 148/194/146 149/195/146
f 146/190/147 145/187/147 160/196/147
f 153/189/554 168/212/554 169/198/554
f 147/192/149 146/190/149 161/197/149
f 154/191/150 169/198/150 170/200/150
f 148/194/151 147/192/151 162/199/151
f 155/193/152 170/200/152 171/202/152
f 149/195/153 148/194/153 163/201/153
f 156/179/154 171/202/154 172/204/154
f 150/181/155 149/195/155 164/203/155
f 157/180/156 172/204/156 173/206/156
f 151/183/157 150/181/157 165/205/157
f 158/182/158 173/206/158 174/208/158
f 152/185/159 151/183/159 166/207/159
f 152/185/162 167/209/162 168/212/162
f 165/205/163 164/203/163 179/213/163
f 172/204/164 187/229/164 188/215/164
f 166/207/165 165/205/165 180/214/165
f 173/206/166 188/215/166 189/217/166
f 167/209/167 166/207/167 181/216/167
f 167/209/170 182/218/170 183/222/170
f 161/197/171 160/196/171 175/220/171
f 168/212/172 183/222/172 184/224/172
f 162/199/173 161/197/173 176/223/173
f 169/198/174 184/224/174 185/226/174
f 163/201/175 162/199/175 177/225/175
f 170/200/176 185/226/176 186/228/176
f 164/203/177 163/201/177 178/227/177
f 171/202/178 186/228/178 187/229/178
f 183/222/179 198/246/179 199/230/179
f 177/225/180 176/223/180 191/231/180
f 184/224/181 199/230/181 200/233/181
f 178/227/182 177/225/182 192/232/182
f 185/226/183 200/233/183 201/235/183
f 179/213/184 178/227/184 193/234/184
f 186/228/185 201/235/185 202/237/185
f 180/214/186 179/213/186 194/236/186
f 187/229/187 202/237/187 203/239/187
f 181/216/188 180/214/188 195/238/188
f 188/215/189 203/239/189 204/241/189
f 182/218/190 181/216/190 196/240/190
f 182/218/193 197/242/193 198/246/193
f 176/223/194 175/220/194 190/244/194
f 202/237/195 217/263/195 218/247/195
f 196/240/196 195/238/196 210/248/196
f 203/239/197 218/247/197 219/250/197
f 197/242/198 196/240/198 211/249/198
f 197/242/201 212/251/201 213/255/201
f 191/231/202 190/244/202 205/253/202
f 198/246/203 213/255/203 214/257/203
f 192/232/204 191/231/204 206/256/204
f 199/230/205 214/257/205 215/259/205
f 193/234/206 192/232/206 207/258/206
f 200/233/207 215/259/207 216/261/207
f 194/236/208 193/234/208 208/260/208
f 201/235/209 216/261/209 217/263/209
f 195/238/210 194/236/210 209/262/210
f 214/257/211 229/280/211 230/264/211
f 208/260/212 207/258/212 222/265/212
f 215/259/213 230/264/213 231/267/213
f 209/262/214 208/260/214 223/266/214
f 216/261/215 231/267/215 232/269/215
f 210/248/216 209/262/216 224/268/216
f 217/263/217 232/269/217 233/271/217
f 211/249/218 210/248/218 225/270/218
f 218/247/219 233/271/219 234/273/219
f 212/251/220 211/249/220 226/272/220
f 212/251/223 227/274/223 228/278/223
f 206/256/224 205/253/224 220/276/224
f 213/255/225 228/278/225 229/280/225
f 207/258/226 206/256/226 221/279/226
f 233/271/227 248/297/227 249/281/227
f 227/274/228 226/272/228 241/282/228
f 227/274/231 242/283/231 243/287/231
f 221/279/232 220/276/232 235/285/232
f 228/278/233 243/287/233 244/289/233
f 222/265/234 221/279/234 236/288/234
f 229/280/235 244/289/235 245/291/235
f 223/266/236 222/265/236 237/290/236
f 230/264/237 245/291/237 246/293/237
f 224/268/238 223/266/238 238/292/238
f 231/267/239 246/293/239 247/295/239
f 225/270/240 224/268/240 239/294/240
f 232/269/241 247/295/241 248/297/241
f 226/272/242 225/270/242 240/296/242
f 238/292/243 237/290/243 252/298/243
f 245/291/244 260/314/244 261/300/244
f 239/294/245 238/292/245 253/299/245
f 246/293/246 261/300/246 262/302/246
f 240/296/247 239/294/247 254/301/247
f 247/295/248 262/302/248 263/304/248
f 241/282/249 240/296/249 255/303/249
f 248/297/250 263/304/250 264/306/250
f 242/283/251 241/282/251 256/305/251
f 242/283/254 257/307/254 258/311/254
f 236/288/255 235/285/255 250/309/255
f 243/287/256 258/311/256 259/313/256
f 237/290/257 236/288/257 251/312/257
f 244/289/258 259/313/258 260/314/258
f 257/307/259 256/305/259 271/315/259
f 257/307/262 272/316/262 273/321/262
f 251/312/263 250/309/263 265/318/263
f 258/311/264 273/321/264 274/323/264
f 252/298/265 251/312/265 266/322/265
f 259/313/266 274/323/266 275/325/266
f 253/299/267 252/298/267 267/324/267
f 260/314/268 275/325/268 276/327/268
f 254/301/269 253/299/269 268/326/269
f 261/300/270 276/327/270 277/329/270
f 255/303/271 254/301/271 269/328/271
f 262/302/272 277/329/272 278/331/272
f 256/305/273 255/303/273 270/330/273
f 263/304/274 278/331/274 279/320/274
f 276/327/275 275/325/275 290/332/275
f 268/326/276 283/348/276 284/334/276
f 277/329/277 276/327/277 291/333/277
f 269/328/278 284/334/278 285/336/278
f 278/331/279 277/329/279 292/335/279
f 270/330/280 285/336/280 286/338/280
f 279/320/281 278/331/281 293/337/281
f 271/315/282 286/338/282 287/340/282
f 273/321/285 272/316/285 287/340/285
f 265/318/286 280/342/286 281/345/286
f 274/323/287 273/321/287 288/344/287
f 266/322/288 281/345/288 282/347/288
f 275/325/289 274/323/289 289/346/289
f 267/324/290 282/347/290 283/348/290
f 288/344/293 287/340/293 302/353/293
f 280/342/294 295/350/294 296/355/294
f 289/346/295 288/344/295 303/354/295
f 281/345/296 296/355/296 297/357/296
f 290/332/297 289/346/297 304/356/297
f 282/347/298 297/357/298 298/359/298
f 291/333/299 290/332/299 305/358/299
f 283/348/300 298/359/300 299/361/300
f 292/335/301 291/333/301 306/360/301
f 284/334/302 299/361/302 300/363/302
f 293/337/303 292/335/303 307/362/303
f 285/336/304 300/363/304 301/365/304
f 294/339/305 293/337/305 308/364/305
f 286/338/306 301/365/306 302/353/306
f 298/359/307 313/382/307 314/366/307
f 307/362/308 306/360/308 321/367/308
f 299/361/309 314/366/309 315/369/309
f 308/364/310 307/362/310 322/368/310
f 300/363/311 315/369/311 316/371/311
f 309/352/312 308/364/312 323/370/312
f 301/365/313 316/371/313 317/373/313
f 303/354/316 302/353/316 317/373/316
f 295/350/317 310/375/317 311/378/317
f 304/356/318 303/354/318 318/377/318
f 296/355/319 311/378/319 312/380/319
f 305/358/320 304/356/320 319/379/320
f 297/357/321 312/380/321 313/382/321
f 306/360/322 305/358/322 320/381/322
f 318/377/323 317/373/323 332/383/323
f 310/375/324 325/398/324 326/385/324
f 319/379/325 318/377/325 333/384/325
f 311/378/326 326/385/326 327/387/326
f 320/381/327 319/379/327 334/386/327
f 312/380/328 327/387/328 328/389/328
f 321/367/329 320/381/329 335/388/329
f 313/382/330 328/389/330 329/391/330
f 322/368/331 321/367/331 336/390/331
f 314/366/332 329/391/332 330/393/332
f 323/370/333 322/368/333 337/392/333
f 315/369/334 330/393/334 331/395/334
f 324/372/335 323/370/335 338/394/335
f 316/371/336 331/395/336 332/383/336
f 337/392/339 336/390/339 352/400/339
f 329/391/340 345/416/340 346/402/340
f 338/394/341 337/392/341 353/401/341
f 330/393/342 346/402/342 347/404/342
f 339/396/343 338/394/343 354/403/343
f 331/395/344 347/404/344 348/406/344
f 333/384/347 332/383/347 348/406/347
f 325/398/348 341/408/348 342/411/348
f 334/386/349 333/384/349 349/410/349
f 326/385/350 342/411/350 343/413/350
f 335/388/351 334/386/351 350/412/351
f 327/387/352 343/413/352 344/415/352
f 336/390/353 335/388/353 351/414/353
f 328/389/354 344/415/354 345/416/354
f 350/412/355 349/410/355 364/417/355
f 342/411/356 357/433/356 358/419/356
f 351/414/357 350/412/357 365/418/357
f 343/413/358 358/419/358 359/421/358
f 352/400/359 351/414/359 366/420/359
f 344/415/360 359/421/360 360/423/360
f 353/401/361 352/400/361 367/422/361
f 345/416/362 360/423/362 361/425/362
f 354/403/363 353/401/363 368/424/363
f 346/402/364 361/425/364 362/427/364
f 355/405/365 354/403/365 369/426/365
f 347/404/366 362/427/366 363/429/366
f 349/410/369 348/406/369 363/429/369
f 341/408/370 356/431/370 357/433/370
f 369/426/371 368/424/371 383/434/371
f 361/425/372 376/450/372 377/436/372
f 370/428/373 369/426/373 384/435/373
f 362/427/374 377/436/374 378/438/374
f 364/417/377 363/429/377 378/438/377
f 356/431/378 371/440/378 372/443/378
f 365/418/379 364/417/379 379/442/379
f 357/433/380 372/443/380 373/445/380
f 366/420/381 365/418/381 380/444/381
f 358/419/382 373/445/382 374/447/382
f 367/422/383 366/420/383 381/446/383
f 359/421/384 374/447/384 375/449/384
f 368/424/385 367/422/385 382/448/385
f 360/423/386 375/449/386 376/450/386
f 372/443/387 387/467/387 388/451/387
f 381/446/388 380/444/388 395/452/388
f 373/445/389 388/451/389 389/454/389
f 382/448/390 381/446/390 396/453/390
f 374/447/391 389/454/391 390/456/391
f 383/434/392 382/448/392 397/455/392
f 375/449/393 390/456/393 391/458/393
f 384/435/394 383/434/394 398/457/394
f 376/450/395 391/458/395 392/460/395
f 385/437/396 384/435/396 399/459/396
f 377/436/397 392/460/397 393/462/397
f 379/442/400 378/438/400 393/462/400
f 371/440/401 386/464/401 387/467/401
f 380/444/402 379/442/402 394/466/402
f 392/468/555 391/498/555 406/469/555
f 399/471/404 414/499/404 415/472/404
f 393/474/405 392/468/405 407/470/405
f 393/474/408 408/475/408 409/480/408
f 387/482/409 386/476/409 401/478/409
f 394/481/410 409/480/410 410/484/410
f 388/486/411 387/482/411 402/483/411
f 395/485/412 410/484/412 411/488/412
f 389/490/413 388/486/413 403/487/413
f 396/489/414 411/488/414 412/492/414
f 390/494/415 389/490/415 404/491/415
f 397/493/416 412/492/416 413/496/416
f 391/498/417 390/494/417 405/495/417
f 398/497/418 413/496/418 414/499/418
f 410/484/419 425/516/419 426/500/419
f 404/491/420 403/487/420 418/501/420
f 411/488/421 426/500/421 427/503/421
f 405/495/422 404/491/422 419/502/422
f 412/492/423 427/503/423 428/505/423
f 406/469/424 405/495/424 420/504/424
f 413/496/425 428/505/425 429/507/425
f 407/470/426 406/469/426 421/506/426
f 414/499/427 429/507/427 430/509/427
f 408/475/428 407/470/428 422/508/428
f 408/475/431 423/510/431 424/514/431
f 402/483/432 401/478/432 416/512/432
f 409/480/433 424/514/433 425/516/433
f 403/487/434 402/483/434 417/515/434
f 429/507/435 444/533/435 445/517/435
f 423/510/436 422/508/436 437/518/436
f 423/510/439 438/519/439 439/523/439
f 417/515/440 416/512/440 431/521/440
f 424/514/441 439/523/441 440/525/441
f 418/501/442 417/515/442 432/524/442
f 425/516/443 440/525/443 441/527/443
f 419/502/444 418/501/444 433/526/444
f 426/500/445 441/527/445 442/529/445
f 420/504/446 419/502/446 434/528/446
f 427/503/447 442/529/447 443/531/447
f 421/506/448 420/504/448 435/530/448
f 428/505/449 443/531/449 444/533/449
f 422/508/450 421/506/450 436/532/450
f 434/528/451 433/526/451 448/534/451
f 441/527/452 456/550/452 457/536/452
f 435/530/453 434/528/453 449/535/453
f 442/529/454 457/536/454 458/538/454
f 436/532/455 435/530/455 450/537/455
f 443/531/456 458/538/456 459/540/456
f 437/518/457 436/532/457 451/539/457
f 444/533/458 459/540/458 460/542/458
f 438/519/459 437/518/459 452/541/459
f 438/519/462 453/543/462 454/547/462
f 432/524/463 431/521/463 446/545/463
f 439/523/464 454/547/464 455/549/464
f 433/526/465 432/524/465 447/548/465
f 440/525/466 455/549/466 456/550/466
f 453/551/467 452/572/467 467/552/467
f 453/551/470 468/553/470 469/558/470
f 447/548/471 446/545/471 461/555/471
f 454/559/472 469/558/472 470/561/472
f 448/534/473 447/548/473 462/560/473
f 455/562/474 470/561/474 471/564/474
f 449/535/475 448/534/475 463/563/475
f 456/550/476 471/574/476 472/567/476
f 450/537/477 449/535/477 464/566/477
f 457/536/478 472/567/478 473/569/478
f 451/539/479 450/537/479 465/568/479
f 458/538/480 473/569/480 474/571/480
f 452/572/481 451/649/481 466/573/481
f 459/540/482 474/571/482 475/557/482
f 471/574/483 486/602/483 487/575/483
f 465/568/484 464/566/484 479/576/484
f 472/567/485 487/575/485 488/578/485
f 466/570/486 465/568/486 480/577/486
f 473/569/487 488/578/487 489/580/487
f 467/552/488 466/573/488 481/581/488
f 474/571/489 489/580/489 490/583/489
f 468/553/490 467/552/490 482/582/490
f 468/553/493 483/584/493 484/588/493
f 462/560/494 461/555/494 476/586/494
f 469/558/495 484/588/495 485/590/495
f 463/563/496 462/560/496 477/589/496
f 470/561/497 485/590/497 486/592/497
f 464/566/498 463/563/498 478/591/498
f 483/584/500 498/610/500 499/595/500
f 477/589/501 476/586/501 491/596/501
f 484/588/502 499/595/502 500/598/502
f 478/591/503 477/589/503 492/597/503
f 485/590/504 500/598/504 501/600/504
f 479/576/505 478/591/505 493/599/505
f 486/602/506 501/614/506 502/603/506
f 480/577/507 479/576/507 494/601/507
f 487/575/508 502/603/508 503/605/508
f 481/579/509 480/577/509 495/604/509
f 488/578/510 503/605/510 504/607/510
f 482/582/511 481/581/511 496/608/511
f 489/580/512 504/607/512 505/594/512
f 483/584/513 482/582/513 497/609/513
f 502/603/515 511/65/515 512/36/515
f 496/606/516 495/604/516 34/35/516
f 503/605/517 512/36/517 513/41/517
f 497/609/556 496/608/556 509/43/556
f 504/607/519 513/41/519 514/46/519
f 498/610/520 497/609/520 35/45/520
f 498/610/523 36/49/523 37/54/523
f 492/597/524 491/596/524 506/50/524
f 499/595/557 37/54/557 510/58/557
f 493/599/526 492/597/526 507/57/526
f 500/598/527 510/58/527 38/62/527
f 494/601/528 493/599/528 33/61/528
f 501/614/529 38/647/529 511/65/529
f 495/604/530 494/601/530 508/33/530
f 517/633/531 516/628/531 529/615/531
f 516/628/531 515/629/531 529/615/531
f 515/629/531 530/630/531 529/615/531
f 529/615/531 528/621/531 525/616/531
f 528/621/531 527/641/531 525/616/531
f 527/641/531 526/638/531 525/616/531
f 525/616/531 524/631/531 523/632/531
f 523/632/531 522/627/531 525/616/531
f 522/627/531 521/617/531 525/616/531
f 521/617/531 520/643/531 517/633/531
f 520/643/531 519/644/531 517/633/531
f 519/644/531 518/640/531 517/633/531
f 517/633/531 529/615/531 521/617/531
f 532/618/532 531/634/532 533/637/532
f 533/637/532 534/636/532 535/619/532
f 535/619/532 536/646/532 537/625/532
f 537/625/532 538/624/532 535/619/532
f 538/624/532 539/620/532 535/619/532
f 539/620/532 540/635/532 541/639/532
f 541/639/532 542/642/532 543/645/532
f 543/645/532 544/623/532 545/622/532
f 545/622/532 546/626/532 532/618/532
f 532/618/532 533/637/532 535/619/532
f 539/620/532 541/639/532 532/618/532
f 541/639/532 543/645/532 532/618/532
f 543/645/532 545/622/532 532/618/532
f 528/621/533 529/615/533 545/622/533
f 521/617/534 522/627/534 538/624/534
f 529/615/535 530/630/535 546/626/535
f 522/627/536 523/632/536 539/620/536
f 516/628/537 531/634/537 532/618/537
f 530/630/538 515/629/538 532/618/538
f 524/631/539 540/635/539 539/620/539
f 517/633/540 533/637/540 531/634/540
f 525/616/541 541/639/541 540/635/541
f 517/633/542 518/640/542 534/636/542
f 526/638/543 542/642/543 541/639/543
f 518/640/544 519/644/544 535/619/544
f 527/641/545 543/645/545 542/642/545
f 520/643/546 536/646/546 535/619/546
f 527/641/547 528/621/547 544/623/547
f 520/643/548 521/617/548 537/625/548
